<?xml version="1.0" encoding="UTF-8"?>
<!DOCTYPE svg PUBLIC "-//W3C//DTD SVG 1.1//EN" "http://www.w3.org/Graphics/SVG/1.1/DTD/svg11.dtd">
<!-- Creator: CorelDRAW 2019 (64-Bit) -->
<svg xmlns="http://www.w3.org/2000/svg" xml:space="preserve" width="171.041mm" height="67.7177mm" version="1.1" style="shape-rendering:geometricPrecision; text-rendering:geometricPrecision; image-rendering:optimizeQuality; fill-rule:evenodd; clip-rule:evenodd"
viewBox="0 0 170.9666 67.6884"
 xmlns:xlink="http://www.w3.org/1999/xlink"
 xmlns:xodm="http://www.corel.com/coreldraw/odm/2003">
 <defs>
  <style type="text/css">
   <![CDATA[
    .fil0 {fill:#E63B24}
   ]]>
  </style>
 </defs>
 <g id="Layer_x0020_1">
  <metadata id="CorelCorpID_0Corel-Layer"/>
  <g id="_719787968">
   <polygon class="fil0" points="76.946,67.2017 95.4349,67.2017 116.7781,0.4811 100.0179,0.4811 86.1929,43.9044 72.3631,0.4811 55.6217,0.4811 "/>
   <path class="fil0" d="M170.9666 52.5786l0 -11.255 -15.8082 0 0 11.255 -19.5824 0 0 -37.4476 19.5824 0 0 11.2364 15.8082 0 0 -14.142 -0.0132 0c0,-1.4679 -0.1023,-2.8847 -0.3094,-4.2851 -0.5617,-3.9917 -3.8089,-7.0934 -7.782,-7.6768 -1.2922,-0.1804 -2.5858,-0.2636 -3.9183,-0.2636l-27.1613 0c-1.3326,0 -2.6369,0.0832 -3.9136,0.2636 -3.9778,0.5833 -7.2275,3.6851 -7.7975,7.6768 -0.1964,1.4005 -0.307,2.8173 -0.307,4.2851l0 43.2536c0,1.4572 0.1106,2.8763 0.307,4.2739 0.5701,4.0053 3.8197,7.0749 7.7975,7.6718 1.2767,0.1803 2.581,0.2636 3.9136,0.2636l27.1613 0c1.3325,0 2.6261,-0.0833 3.9183,-0.2636 3.9731,-0.5968 7.2204,-3.6665 7.782,-7.6718 0.2071,-1.3977 0.3094,-2.8168 0.3094,-4.2739l0.0132 -0.0079 0 -2.8925z"/>
   <path class="fil0" d="M-0 52.5786l0 -12.7066 15.7977 0 0 12.7066 19.6015 0 0 -52.0948 15.8005 0 0 54.9953c0,1.4572 -0.118,2.8763 -0.312,4.2739 -0.5721,4.0053 -3.8248,7.0749 -7.7976,7.6718 -1.2634,0.1803 -2.5806,0.2636 -3.9193,0.2636l-27.1577 0c-1.3335,0 -2.6346,-0.0833 -3.9113,-0.2636 -3.9594,-0.5968 -7.2171,-3.6665 -7.7925,-7.6718 -0.2069,-1.3977 -0.2986,-2.8168 -0.2986,-4.2739l-0.0106 -0.0079 0 -2.8925z"/>
  </g>
 </g>
</svg>
