<?xml version="1.0" encoding="UTF-8"?>
<svg version="1.1" xmlns="http://www.w3.org/2000/svg" width="1263" height="632">
<path d="M0 0 C0.87949814 -0.00571014 1.75899628 -0.01142029 2.66514587 -0.01730347 C4.12497139 -0.01898026 4.12497139 -0.01898026 5.61428833 -0.02069092 C7.1441613 -0.02813828 7.1441613 -0.02813828 8.7049408 -0.03573608 C12.10848659 -0.05043341 15.51198541 -0.05718084 18.91555786 -0.06268311 C21.29325358 -0.06843913 23.6709493 -0.0741968 26.04864502 -0.07995605 C31.06092546 -0.09049469 36.07318977 -0.09631506 41.08547974 -0.09979248 C47.43112653 -0.10520934 53.77655126 -0.12907567 60.12212944 -0.15776443 C65.05235345 -0.17665276 69.98252749 -0.18161063 74.91278458 -0.18312836 C77.24615791 -0.18610931 79.57953137 -0.19397818 81.9128685 -0.20731354 C94.47825269 -0.27385301 106.88373567 0.10955053 119.38870239 1.41094971 C121.02903096 1.5730298 121.02903096 1.5730298 122.70249748 1.73838425 C129.05869929 2.47366679 134.65555791 3.86599941 140.60378838 6.23469162 C143.1028646 7.26351252 143.1028646 7.26351252 146.54837036 8.07794189 C151.06314936 9.49926121 154.87527968 11.71856695 158.92337036 14.14044189 C159.62977661 14.55680908 160.33618286 14.97317627 161.06399536 15.40216064 C172.66475458 22.4201772 179.34015991 30.60644102 183.19680786 43.76934814 C183.70016533 46.0735405 183.70016533 46.0735405 184.92337036 47.14044189 C185.13717514 49.13595318 185.29356378 51.13771175 185.42337036 53.14044189 C185.68693024 57.04282845 185.99927297 60.89360132 186.54837036 64.76544189 C187.75836238 75.91753504 184.49508625 85.74400118 180.92337036 96.14044189 C180.61786255 97.02989502 180.31235474 97.91934814 179.99758911 98.83575439 C178.89344966 101.90469584 177.7421032 104.41234263 175.92337036 107.14044189 C175.26337036 107.14044189 174.60337036 107.14044189 173.92337036 107.14044189 C173.71712036 107.96544189 173.51087036 108.79044189 173.29837036 109.64044189 C171.82356383 113.39449488 169.95614249 115.98948136 167.45852661 119.11309814 C165.85531456 121.13720613 165.85531456 121.13720613 164.56790161 123.53497314 C162.5874555 126.67263955 160.17733299 129.17911109 157.54837036 131.76544189 C157.07915161 132.24239502 156.60993286 132.71934814 156.12649536 133.21075439 C153.26426293 136.05717339 150.42523131 138.16039128 146.92337036 140.14044189 C145.48113026 141.21745668 144.043819 142.3010955 142.61087036 143.39044189 C134.48216761 149.13407617 124.9929631 152.91663502 115.54837036 155.95294189 C111.92493926 156.83764509 111.92493926 156.83764509 109.92337036 159.14044189 C110.16884182 173.16299889 118.17993221 188.84248644 127.45071411 198.77716064 C131.31065499 202.33771553 136.07999724 204.29188782 140.92337036 206.14044189 C141.8089563 206.48719971 142.69454224 206.83395752 143.60696411 207.19122314 C148.67218994 208.64098743 153.78839861 208.91617173 159.02297974 209.35137939 C163.40218926 209.75358708 166.8464492 210.42160057 170.92337036 212.14044189 C173.59060342 212.37967729 173.59060342 212.37967729 176.23587036 212.26544189 C177.11887817 212.24739502 178.00188599 212.22934814 178.91165161 212.21075439 C179.5755188 212.18755127 180.23938599 212.16434814 180.92337036 212.14044189 C181.19149536 211.31544189 181.45962036 210.49044189 181.73587036 209.64044189 C182.52563878 207.31270339 183.35907348 204.99931467 184.23587036 202.70294189 C185.9695636 198.13229609 187.48490747 193.49097419 189.01199341 188.84844971 C190.2783351 185.01658826 191.62067916 181.22729795 193.04837036 177.45294189 C194.78665316 172.76167266 196.01634239 168.0381127 197.11477661 163.15997314 C197.89889814 160.23182851 198.91051023 157.45977953 199.99783325 154.63287354 C201.86222763 149.61213963 203.51386001 144.51568295 205.2024231 139.43365479 C205.85392363 137.47383876 206.5085901 135.51510144 207.16360474 133.55645752 C210.63559068 123.14673098 213.90849752 112.69249682 216.92337036 102.14044189 C240.02337036 102.14044189 263.12337036 102.14044189 286.92337036 102.14044189 C285.80264482 111.10624624 285.80264482 111.10624624 284.54055786 114.10528564 C282.87192944 118.25460831 281.44780487 122.45610847 280.04837036 126.70294189 C279.52104778 128.29409474 278.9937037 129.88524047 278.46633911 131.47637939 C278.20643188 132.26238525 277.94652466 133.04839111 277.67874146 133.85821533 C276.57821289 137.18327707 275.46949346 140.50556984 274.36087036 143.82794189 C273.9573938 145.04094971 273.55391724 146.25395752 273.13821411 147.50372314 C272.32413954 149.94071164 271.50375799 152.37560181 270.67727661 154.80841064 C268.76390665 160.46507137 266.90579648 166.11020717 265.26646423 171.85276794 C262.27911313 182.303126 258.7894805 192.55913471 255.23587036 202.82794189 C253.99691905 206.42492121 252.76068722 210.02283191 251.52493286 213.62091064 C251.2194603 214.50942719 250.91398773 215.39794373 250.59925842 216.31338501 C248.64304205 222.01274836 246.71710438 227.72132099 244.82180786 233.44122314 C244.5870726 234.14945724 244.35233734 234.85769135 244.11048889 235.58738708 C243.02096178 238.87915449 241.9363135 242.17246855 240.85623169 245.46734619 C240.29198486 247.17724731 240.29198486 247.17724731 239.71633911 248.92169189 C239.39173706 249.91233643 239.06713501 250.90298096 238.73269653 251.92364502 C237.92337036 254.14044189 237.92337036 254.14044189 236.92337036 255.14044189 C235.12224169 255.2412274 233.31712748 255.2712103 231.51318359 255.27415466 C230.33867645 255.27841965 229.16416931 255.28268463 227.95407104 255.28707886 C226.65342712 255.28662567 225.3527832 255.28617249 224.01272583 255.28570557 C222.63791817 255.28869587 221.26311136 255.2920981 219.88830566 255.29588318 C216.13953893 255.30475115 212.390795 255.30706276 208.6420188 255.30769897 C206.29558544 255.30840912 203.9491579 255.31054302 201.60272598 255.31319618 C193.40280032 255.32246633 185.20289094 255.32652992 177.00296021 255.32574463 C169.38639671 255.32514682 161.76990473 255.33563568 154.15335929 255.35148829 C147.60113854 255.36463428 141.0489409 255.36992542 134.49670708 255.36928922 C130.58997157 255.36903583 126.68329926 255.37179654 122.776577 255.38246727 C119.0879113 255.39226477 115.39936758 255.39214911 111.71069717 255.38495064 C109.73714852 255.3834323 107.76359957 255.39167395 105.79006958 255.40039062 C82.10147164 255.31854317 82.10147164 255.31854317 78.92337036 252.14044189 C77.36692683 251.8180148 75.80277291 251.53244771 74.23587036 251.26544189 C70.04167548 250.45540426 66.58704254 249.43023701 62.92337036 247.14044189 C60.97407978 244.21650603 60.32329709 242.30738003 59.48587036 238.95294189 C57.91979 232.97980121 55.92947882 227.40418592 53.42337036 221.76544189 C51.88472353 218.04704538 50.7948032 214.35686958 49.76712036 210.47247314 C48.84642036 207.92776063 47.57082176 206.26965454 45.92337036 204.14044189 C45.11477661 202.28106689 45.11477661 202.28106689 44.48587036 200.39044189 C42.30189236 194.25014772 39.29238721 188.70480807 35.92337036 183.14044189 C35.43997192 182.31544189 34.95657349 181.49044189 34.45852661 180.64044189 C32.30363665 176.98227326 30.22235477 173.5102384 27.54837036 170.20294189 C25.92337036 168.14044189 25.92337036 168.14044189 25.92337036 165.14044189 C24.48696865 164.94470581 23.04917532 164.75916373 21.61087036 164.57794189 C20.81036255 164.47352783 20.00985474 164.36911377 19.18508911 164.26153564 C16.75519921 163.99289011 16.75519921 163.99289011 13.92337036 165.14044189 C13.98524536 165.80044189 14.04712036 166.46044189 14.11087036 167.14044189 C13.9100384 170.35375321 12.9380074 172.79298829 11.78591919 175.77178955 C10.16830602 180.2139302 8.958449 184.78085378 7.67337036 189.32794189 C5.10171011 198.31075946 2.29281827 207.17639609 -0.72311401 216.01885986 C-2.5872514 221.53128902 -4.1498391 227.03944114 -5.46725464 232.71075439 C-6.20189651 235.6399034 -7.20266975 238.38910575 -8.31881714 241.19122314 C-9.47793837 244.17267416 -10.4423566 247.21531973 -11.42819214 250.25762939 C-12.07662964 252.14044189 -12.07662964 252.14044189 -13.07662964 254.14044189 C-35.18662964 254.14044189 -57.29662964 254.14044189 -80.07662964 254.14044189 C-77.82867227 244.02463372 -77.82867227 244.02463372 -76.45553589 239.61700439 C-76.15969604 238.65794189 -75.8638562 237.69887939 -75.55905151 236.71075439 C-75.25547729 235.73880127 -74.95190308 234.76684814 -74.63912964 233.76544189 C-72.56117465 227.08023618 -70.57627227 220.38895257 -68.75802612 213.62823486 C-67.86162062 210.35543942 -66.85604165 207.12366554 -65.82662964 203.89044189 C-65.3962565 202.52607465 -64.96661608 201.16147614 -64.53756714 199.79669189 C-64.19097046 198.69454346 -64.19097046 198.69454346 -63.83737183 197.57012939 C-58.34806594 180.17617196 -58.34806594 180.17617196 -53.68209839 162.55059814 C-52.91200718 159.48513829 -51.92267481 156.52537133 -50.89303589 153.53887939 C-48.46535386 146.40683744 -46.29527706 139.21086456 -44.51412964 131.89044189 C-43.51623851 127.79748739 -42.39595013 123.81730086 -41.00802612 119.84063721 C-39.80449727 116.35150768 -38.63976375 112.84970041 -37.47506714 109.34747314 C-37.24392212 108.65319214 -37.0127771 107.95891113 -36.77462769 107.24359131 C-36.20837121 105.54262708 -35.64246505 103.84154624 -35.07662964 102.14044189 C-34.0167205 102.13824205 -34.0167205 102.13824205 -32.93539906 102.13599777 C-15.74240453 102.09894673 1.45037441 102.03995478 18.6432066 101.95653915 C26.95754508 101.91672908 35.27178864 101.88434663 43.58621216 101.8694458 C50.83304353 101.85643943 58.07966622 101.82950093 65.32638007 101.78582883 C69.16354259 101.76319092 73.0004475 101.74753259 76.83768272 101.74855804 C80.45017186 101.7493033 84.06209107 101.73140748 87.67443275 101.69927406 C89.63078483 101.68670644 91.58723247 101.69384959 93.54360962 101.70158386 C95.29564949 101.68071465 95.29564949 101.68071465 97.08308411 101.65942383 C98.60265984 101.65389307 98.60265984 101.65389307 100.15293407 101.64825058 C103.63157339 101.01063142 105.26031989 99.39652871 107.92337036 97.14044189 C108.91337036 97.14044189 109.90337036 97.14044189 110.92337036 97.14044189 C110.98524536 96.58356689 111.04712036 96.02669189 111.11087036 95.45294189 C112.25930944 92.18430758 114.45441469 90.55328494 116.92337036 88.14044189 C121.25516606 82.66090546 124.50238528 78.37812842 123.92337036 71.14044189 C123.14485057 67.88519899 123.14485057 67.88519899 121.92337036 65.14044189 C119.27260285 63.81505814 117.2616864 64.00055496 114.29199219 63.98222351 C112.49565338 63.96754028 112.49565338 63.96754028 110.6630249 63.95256042 C109.32907144 63.94665589 107.99511757 63.94084547 106.66116333 63.93511963 C105.26186838 63.92554342 103.86257633 63.9155335 102.46328735 63.90512085 C98.6577606 63.87803777 94.85222141 63.85704667 91.04665136 63.83711886 C87.07211369 63.81528026 83.09761453 63.78788119 79.12310791 63.76106262 C71.59376092 63.71110693 64.06439258 63.66617879 56.53500378 63.62304026 C47.96435748 63.57369244 39.39374981 63.51876522 30.82314086 63.46336067 C13.18991988 63.34949647 -4.44333754 63.24266712 -22.07662964 63.14044189 C-22.07662964 58.71989616 -21.04703481 55.02435315 -19.82662964 50.82794189 C-19.36492571 49.20836852 -18.90400028 47.58857303 -18.44381714 45.96856689 C-18.21275269 45.15839111 -17.98168823 44.34821533 -17.74362183 43.51348877 C-16.7690141 40.04599716 -15.86168085 36.56294421 -14.95162964 33.07794189 C-13.75036753 28.55047594 -12.47421829 24.09747786 -10.93209839 19.67559814 C-10.19224668 17.48306957 -9.49581186 15.28533305 -8.81491089 13.07403564 C-8.59053345 12.34563477 -8.36615601 11.61723389 -8.13497925 10.86676025 C-7.68422928 9.39823971 -7.2357725 7.92901306 -6.7897644 6.45904541 C-4.80708692 0.01862361 -4.80708692 0.01862361 0 0 Z " fill="#020202" transform="translate(354.0766296386719,128.85955810546875)"/>
<path d="M0 0 C22.77 0 45.54 0 69 0 C68.25274867 5.23075933 67.60297684 8.54703232 65.70703125 13.24609375 C65.24441895 14.4055249 64.78180664 15.56495605 64.30517578 16.75952148 C63.81259277 17.97325439 63.32000977 19.1869873 62.8125 20.4375 C62.05364916 22.33205867 61.29758284 24.22771338 60.54162598 26.12342834 C59.80456256 27.97093914 59.0651417 29.81750887 58.32568359 31.6640625 C56.70722818 35.73672821 55.14710843 39.82801633 53.625 43.9375 C51.87298281 48.65330419 50.11026757 53.36390984 48.3125 58.0625 C47.74982422 59.53396484 47.74982422 59.53396484 47.17578125 61.03515625 C46.35076296 63.115518 45.48791179 65.18108368 44.59765625 67.234375 C42.61437345 71.82429398 40.88432567 76.50830808 39.125 81.1875 C36.57893892 87.91965512 33.96733332 94.60529129 31.15234375 101.23046875 C29.41089419 105.4158509 27.8125498 109.65402082 26.2109375 113.89453125 C25.35629094 116.08628613 24.45730881 118.26100129 23.52734375 120.421875 C21.97518857 124.05812602 20.55959133 127.73099293 19.1875 131.4375 C18.93178223 132.12271729 18.67606445 132.80793457 18.41259766 133.51391602 C17.07439554 137.10057562 15.74478414 140.69036538 14.41796875 144.28125 C12.13101606 150.45149009 9.81407208 156.56323777 7.05859375 162.54296875 C5.60352855 165.92022341 4.33796823 169.36460583 3.0625 172.8125 C0.11817481 180.76950868 -3.0829836 188.59494103 -6.46875 196.375 C-8.0126607 200.02997228 -9.43547044 203.71765302 -10.8125 207.4375 C-11.06821777 208.12271729 -11.32393555 208.80793457 -11.58740234 209.51391602 C-12.92560446 213.10057562 -14.25521586 216.69036538 -15.58203125 220.28125 C-17.86285113 226.43444299 -20.16338111 232.53380733 -22.92822266 238.48999023 C-24.29985382 241.70223169 -25.46145756 244.98054996 -26.62109375 248.2734375 C-26.85082886 248.92143311 -27.08056396 249.56942871 -27.31726074 250.23706055 C-27.87969659 251.82416822 -28.44005846 253.4120106 -29 255 C-37.33660587 255.1626827 -45.67254123 255.28681386 -54.01034546 255.3626852 C-57.8826328 255.3991131 -61.75382892 255.44846468 -65.62548828 255.52807617 C-69.36681728 255.60452025 -73.10710153 255.64606873 -76.84915161 255.6641407 C-78.27174314 255.67700713 -79.69428182 255.70213374 -81.11642456 255.7401104 C-93.63649204 256.0609384 -93.63649204 256.0609384 -98.79956055 251.61914062 C-100.56181335 249.76013184 -100.56181335 249.76013184 -102 248 C-102.72832031 247.14535156 -103.45664063 246.29070312 -104.20703125 245.41015625 C-104.73683594 244.63542969 -105.26664063 243.86070312 -105.8125 243.0625 C-106.35519531 242.29035156 -106.89789062 241.51820313 -107.45703125 240.72265625 C-109.04770226 237.91582665 -110.082591 235.16916193 -111.16723633 232.14331055 C-112.62180202 228.39964823 -114.53516879 224.90653974 -116.4375 221.375 C-116.81970703 220.65054688 -117.20191406 219.92609375 -117.59570312 219.1796875 C-119.85224231 214.9501132 -122.31661516 210.97765777 -125 207 C-128.08611197 201.48421424 -130.41008145 196.13254297 -132 190 C-132.71273692 188.08856917 -133.42615597 186.17737589 -134.1484375 184.26953125 C-137.15188878 176.26492028 -139.39126496 168.45056083 -140.85327148 160.02709961 C-142.00950835 153.54483444 -143.51876915 147.11769064 -146 141 C-148.70879335 139.64560332 -151.00933268 139.93498549 -154 140 C-155.76629509 144.59236723 -157.40866889 149.19786451 -158.9375 153.875 C-160.41837771 158.36233889 -162.06886681 162.72474093 -163.86328125 167.09375 C-165.63871274 171.63299751 -167.22020443 176.239976 -168.80615234 180.84838867 C-170.35894416 185.32319563 -172.12973869 189.64557482 -174 194 C-175.20242918 197.15372443 -176.35181055 200.32618376 -177.5 203.5 C-179.51770395 209.07732141 -181.6243401 214.56508575 -184 220 C-185.78829389 224.58736259 -187.40395224 229.19648124 -188.9375 233.875 C-190.74486247 239.33157905 -192.61402978 244.76538093 -195 250 C-195.57346916 251.28966927 -195.57346916 251.28966927 -196.15852356 252.60539246 C-198 255 -198 255 -200.90434265 255.60127258 C-202.6797216 255.584618 -202.6797216 255.584618 -204.4909668 255.56762695 C-205.1448941 255.56835709 -205.79882141 255.56908722 -206.4725647 255.56983948 C-208.63229579 255.56635811 -210.789865 255.52747859 -212.94921875 255.48828125 C-214.44707562 255.47895489 -215.94494774 255.47183794 -217.44282532 255.46684265 C-221.38386196 255.44775833 -225.32397611 255.39864687 -229.26464844 255.34332275 C-233.28633138 255.29216017 -237.3081635 255.26933511 -241.33007812 255.24414062 C-249.22047527 255.19052804 -257.11012286 255.10519963 -265 255 C-264.79576416 254.38810822 -264.59152832 253.77621643 -264.38110352 253.14578247 C-264.11225342 252.33986664 -263.84340332 251.53395081 -263.56640625 250.70361328 C-263.30029541 249.9060965 -263.03418457 249.10857971 -262.76000977 248.28689575 C-262.14644649 246.44066258 -261.54073754 244.59182025 -260.9375 242.7421875 C-260.628125 241.79601562 -260.31875 240.84984375 -260 239.875 C-259.690625 238.92367187 -259.38125 237.97234375 -259.0625 236.9921875 C-258.31781835 234.89503256 -257.48653115 232.82757946 -256.59375 230.7890625 C-254.56438324 226.14012997 -253.06171961 221.32155356 -251.5 216.5 C-249.56767248 210.53425522 -247.55217615 204.72967181 -245 199 C-244.50815191 197.75493528 -244.02622778 196.5058094 -243.5625 195.25 C-243.19318359 194.25226563 -243.19318359 194.25226563 -242.81640625 193.234375 C-241.55926477 189.79377726 -240.30766307 186.35120117 -239.0625 182.90625 C-237.27955889 178.02938167 -235.44391587 173.1725845 -233.60546875 168.31640625 C-230.66099455 160.52935853 -227.80461763 152.71930223 -225.0925293 144.84790039 C-224.0054898 141.72061817 -222.86488236 138.69038552 -221.5390625 135.65234375 C-219.23703099 130.18940095 -217.5021728 124.55593447 -215.69335938 118.9140625 C-215.40396484 118.0271875 -215.11457031 117.1403125 -214.81640625 116.2265625 C-214.43657593 115.04441162 -214.43657593 115.04441162 -214.04907227 113.83837891 C-212.55868614 109.80597745 -210.77794383 105.91255338 -209 102 C-178.47638404 101.91665075 -147.95967229 102.1434634 -117.43786621 102.46356201 C-111.49570234 102.52541854 -105.55351421 102.58485354 -99.61132812 102.64453125 C-88.07419471 102.76073674 -76.53708917 102.87948645 -65 103 C-64.60240479 103.74040527 -64.20480957 104.48081055 -63.79516602 105.24365234 C-63.26592529 106.22285645 -62.73668457 107.20206055 -62.19140625 108.2109375 C-61.67006104 109.17821777 -61.14871582 110.14549805 -60.61157227 111.14208984 C-57.35391257 116.98667149 -57.35391257 116.98667149 -53 122 C-50.39945137 122.75327591 -50.39945137 122.75327591 -48 123 C-45.12492003 115.89265945 -42.34217261 108.75056067 -39.5703125 101.60253906 C-38.04911111 97.68365009 -36.51584236 93.77132634 -34.9375 89.875 C-31.17957862 80.52837502 -27.71398478 71.06576438 -24.375 61.5625 C-22.79582076 57.10570525 -21.06844615 52.81131038 -19.09375 48.51953125 C-15.41934108 40.05526785 -12.43552471 31.26380718 -9.375 22.5625 C-7.75730897 17.99978172 -6.02992795 13.55121642 -3.9921875 9.16015625 C-2.60195853 6.13339791 -1.31205303 3.06145708 0 0 Z " fill="#020202" transform="translate(1188,129)"/>
<path d="M0 0 C1.83318283 -0.01441132 1.83318283 -0.01441132 3.70339966 -0.02911377 C5.01283539 -0.03336365 6.32227112 -0.03761353 7.67138672 -0.04199219 C8.34595791 -0.04481956 9.0205291 -0.04764694 9.71554184 -0.05056 C13.28904352 -0.06550632 16.86250534 -0.07476318 20.43603516 -0.07910156 C24.09379824 -0.08456408 27.75118493 -0.10855773 31.40883064 -0.13707352 C34.25046794 -0.15586924 37.09201785 -0.1609145 39.93371201 -0.16243744 C41.92754202 -0.16686701 43.92132494 -0.18543152 45.91506958 -0.20440674 C62.49007711 -0.16432468 77.52701463 4.73212646 91.06982422 14.29394531 C93.56265994 16.04626218 96.10305859 17.61355359 98.72607422 19.16113281 C99.71607422 19.82113281 100.70607422 20.48113281 101.72607422 21.16113281 C101.72607422 21.82113281 101.72607422 22.48113281 101.72607422 23.16113281 C102.56138672 23.47050781 102.56138672 23.47050781 103.41357422 23.78613281 C106.01726199 25.33427149 107.5788378 27.22925976 109.43701172 29.59472656 C110.8481197 31.38093344 110.8481197 31.38093344 113.28857422 33.53613281 C116.32001806 36.80076465 117.92778588 40.12223521 119.72607422 44.16113281 C120.06638672 44.91007812 120.40669922 45.65902344 120.75732422 46.43066406 C121.76333677 48.66751772 122.75097918 50.91062829 123.72607422 53.16113281 C124.21720703 54.24652344 124.70833984 55.33191406 125.21435547 56.45019531 C126.82128286 60.20406241 127.86703594 64.01779894 128.85107422 67.97363281 C129.95822142 72.68264717 129.95822142 72.68264717 131.72607422 77.16113281 C131.96657047 80.80172067 131.91126704 84.450981 131.91357422 88.09863281 C131.92582031 89.11376953 131.93806641 90.12890625 131.95068359 91.17480469 C131.95261719 92.14869141 131.95455078 93.12257813 131.95654297 94.12597656 C131.96065186 95.01921631 131.96476074 95.91245605 131.96899414 96.83276367 C131.72607422 99.16113281 131.72607422 99.16113281 129.72607422 102.16113281 C129.16441451 104.39653845 128.67249921 106.64989317 128.22607422 108.91113281 C124.48765178 127.68451507 117.09751475 146.57821179 106.01904297 162.29003906 C104.8122956 164.03635927 103.79246663 165.79313047 102.78857422 167.66113281 C100.28579762 172.14923431 97.20577656 176.38145613 93.72607422 180.16113281 C93.06607422 180.16113281 92.40607422 180.16113281 91.72607422 180.16113281 C91.49919922 180.71800781 91.27232422 181.27488281 91.03857422 181.84863281 C89.36940884 184.78954325 87.11250672 186.77470031 84.72607422 189.16113281 C84.25169922 189.96550781 83.77732422 190.76988281 83.28857422 191.59863281 C81.27034194 194.90853375 78.82907126 197.80964286 75.72607422 200.16113281 C74.73607422 200.16113281 73.74607422 200.16113281 72.72607422 200.16113281 C72.57138672 201.12019531 72.57138672 201.12019531 72.41357422 202.09863281 C72.18669922 202.77925781 71.95982422 203.45988281 71.72607422 204.16113281 C70.73607422 204.49113281 69.74607422 204.82113281 68.72607422 205.16113281 C68.39607422 206.15113281 68.06607422 207.14113281 67.72607422 208.16113281 C66.08309484 209.19959155 64.41036473 210.19111051 62.72607422 211.16113281 C60.44767674 212.87046576 58.25041355 214.67936249 56.03857422 216.47363281 C51.16199994 220.37591916 46.27569926 223.88420958 40.81201172 226.94238281 C38.68539716 228.12250538 38.68539716 228.12250538 36.76513672 229.69238281 C34.4934165 231.32871769 32.33320266 232.14307545 29.72607422 233.16113281 C26.60638315 234.7901511 23.51555891 236.46076976 20.42919922 238.15136719 C8.85328059 244.42362514 -3.53839886 248.91602259 -16.27392578 252.16113281 C-17.56708402 252.53095648 -18.85897732 252.90526441 -20.14892578 253.28613281 C-25.22900878 254.70855605 -29.80233555 255.29986056 -35.08935547 255.36987305 C-35.75528214 255.37965683 -36.4212088 255.38944061 -37.10731506 255.39952087 C-39.30345728 255.4293344 -41.49953838 255.4508364 -43.69580078 255.46972656 C-44.8320628 255.4795843 -44.8320628 255.4795843 -45.9912796 255.48964119 C-50.01142001 255.52219401 -54.03153464 255.54663941 -58.05175781 255.56616211 C-61.34545629 255.58386104 -64.63828008 255.61849926 -67.93164062 255.66870117 C-71.93814072 255.72967413 -75.94384097 255.7597425 -79.95078278 255.76933479 C-81.46076029 255.77777082 -82.97072347 255.79628562 -84.4804306 255.82607841 C-106.10278295 256.22934723 -126.274749 246.56039191 -142.27392578 232.16113281 C-142.27392578 231.50113281 -142.27392578 230.84113281 -142.27392578 230.16113281 C-142.93392578 230.16113281 -143.59392578 230.16113281 -144.27392578 230.16113281 C-145.89501953 228.55175781 -145.89501953 228.55175781 -147.71142578 226.41113281 C-148.30826172 225.71503906 -148.90509766 225.01894531 -149.52001953 224.30175781 C-164.37524246 206.17110711 -168.93074414 183.64479476 -167.96142578 160.72363281 C-167.92702393 159.87067627 -167.89262207 159.01771973 -167.85717773 158.13891602 C-167.60272298 153.44239506 -166.87831697 149.61376904 -165.27392578 145.16113281 C-164.78352396 142.53667473 -164.3275768 139.92003135 -163.89892578 137.28613281 C-162.84468147 131.24687781 -161.35983043 126.46503142 -158.27392578 121.16113281 C-157.25863037 118.83441416 -156.2590438 116.50078811 -155.27392578 114.16113281 C-154.59139792 112.57564979 -153.90370201 110.99238368 -153.21142578 109.41113281 C-152.89044922 108.67378906 -152.56947266 107.93644531 -152.23876953 107.17675781 C-151.27392578 105.16113281 -151.27392578 105.16113281 -149.27392578 102.16113281 C-146.90744019 101.80036926 -146.90744019 101.80036926 -143.90625 101.82055664 C-142.78523895 101.82078323 -141.66422791 101.82100983 -140.50924683 101.82124329 C-139.29463776 101.83672714 -138.08002869 101.852211 -136.82861328 101.86816406 C-134.96839035 101.87453133 -134.96839035 101.87453133 -133.07058716 101.88102722 C-129.77257115 101.89500066 -126.47499229 101.92195921 -123.17712402 101.95513916 C-119.81231036 101.98582043 -116.44743274 101.99952835 -113.08251953 102.01464844 C-106.47948307 102.04778551 -99.8767402 102.09803584 -93.27392578 102.16113281 C-94.01400149 105.55718116 -94.8336107 106.72081774 -97.27392578 109.16113281 C-101.12840145 114.82378916 -102.08904943 119.51435071 -102.58642578 126.28613281 C-102.70304565 127.67892456 -102.70304565 127.67892456 -102.82202148 129.09985352 C-103.35451595 136.22808849 -103.15967742 143.06516747 -102.27392578 150.16113281 C-102.21076172 151.04929687 -102.14759766 151.93746094 -102.08251953 152.85253906 C-101.15333895 165.80175787 -95.99650717 176.19876809 -86.27392578 184.78613281 C-84.94586468 185.91735184 -83.61299639 187.04296794 -82.27392578 188.16113281 C-80.94361328 189.27488281 -80.94361328 189.27488281 -79.58642578 190.41113281 C-77.21588577 192.20505498 -74.8704265 193.71192311 -72.27392578 195.16113281 C-71.37673828 195.67546875 -71.37673828 195.67546875 -70.46142578 196.20019531 C-65.61106501 198.83378964 -61.74903105 199.63128392 -56.27392578 200.16113281 C-55.33355469 200.49338867 -54.39318359 200.82564453 -53.42431641 201.16796875 C-50.10247063 202.21518423 -47.46553255 202.41937773 -43.99267578 202.42675781 C-42.23503906 202.430625 -42.23503906 202.430625 -40.44189453 202.43457031 C-39.23146484 202.42683594 -38.02103516 202.41910156 -36.77392578 202.41113281 C-35.56349609 202.41886719 -34.35306641 202.42660156 -33.10595703 202.43457031 C-31.93419922 202.43199219 -30.76244141 202.42941406 -29.55517578 202.42675781 C-27.96286133 202.42337402 -27.96286133 202.42337402 -26.33837891 202.41992188 C-23.04227627 202.14157031 -20.37392808 201.28470147 -17.27392578 200.16113281 C-15.15557944 199.80632294 -13.02963458 199.49448563 -10.89892578 199.22363281 C-1.15801678 197.78012707 6.24978321 194.10110215 14.72607422 189.16113281 C15.82306641 188.53464844 16.92005859 187.90816406 18.05029297 187.26269531 C28.25517368 181.21317294 39.34852193 172.96563396 44.72607422 162.16113281 C47.22607422 159.41113281 47.22607422 159.41113281 49.72607422 157.16113281 C50.38607422 157.16113281 51.04607422 157.16113281 51.72607422 157.16113281 C51.83435547 156.59394531 51.94263672 156.02675781 52.05419922 155.44238281 C52.82609708 152.82152031 53.9932887 150.95410011 55.47607422 148.66113281 C58.45971359 143.84140768 60.60693303 138.90931135 62.64794922 133.62988281 C63.72607422 131.16113281 63.72607422 131.16113281 65.72607422 129.16113281 C66.4951929 127.28205043 67.19441654 125.37403632 67.85498047 123.45410156 C68.25007812 122.31005859 68.64517578 121.16601562 69.05224609 119.98730469 C69.46023438 118.78654297 69.86822266 117.58578125 70.28857422 116.34863281 C70.70042969 115.15947266 71.11228516 113.9703125 71.53662109 112.74511719 C75.99407726 99.75210665 77.42938217 89.5897357 72.69873047 76.36425781 C69.71659726 71.5219821 66.70325157 68.02920151 61.72607422 65.16113281 C55.87527665 63.9881784 50.12796119 64.08864104 44.1809082 64.16113281 C42.40618627 64.15351833 40.63147647 64.14239242 38.85679626 64.1280365 C34.05950546 64.09911159 29.26353569 64.11907817 24.46629214 64.14805222 C19.44539371 64.16998729 14.42470693 64.14664381 9.40382385 64.12817383 C-0.09461228 64.10007607 -9.59254271 64.11249653 -19.09096426 64.13959789 C-29.90845091 64.16848086 -40.7257212 64.15200624 -51.54321015 64.13178635 C-73.7869096 64.09122155 -96.0302673 64.10740665 -118.27392578 64.16113281 C-117.55281978 60.88084067 -116.76940136 59.26677665 -114.33642578 56.91113281 C-113.81177734 56.39035156 -113.28712891 55.86957031 -112.74658203 55.33300781 C-111.27392578 54.16113281 -111.27392578 54.16113281 -109.27392578 54.16113281 C-108.94392578 53.17113281 -108.61392578 52.18113281 -108.27392578 51.16113281 C-106.60350972 49.61592681 -104.86306759 48.14542579 -103.08642578 46.72363281 C-102.14412109 45.96179688 -101.20181641 45.19996094 -100.23095703 44.41503906 C-98.30220351 42.94490593 -96.32816072 41.53186884 -94.30908203 40.18847656 C-91.61267667 38.38740271 -89.06905348 36.47328308 -86.53125 34.45703125 C-82.00190672 30.86119605 -77.59588189 27.45357325 -72.28955078 25.07910156 C-69.74927606 23.9221935 -67.33991832 22.57708818 -64.89892578 21.22363281 C-63.95146484 20.70800781 -63.00400391 20.19238281 -62.02783203 19.66113281 C-60.3634357 18.754568 -58.70322413 17.84017582 -57.05126953 16.91113281 C-45.47892688 10.70656109 -32.44361078 7.01131351 -19.89892578 3.28613281 C-19.21628662 3.08310547 -18.53364746 2.88007813 -17.83032227 2.67089844 C-11.84529156 0.94273671 -6.22768892 0.03975308 0 0 Z " fill="#020202" transform="translate(820.27392578125,128.8388671875)"/>
<path d="M0 0 C1.12712402 -0.00807175 2.25424805 -0.01614349 3.41552734 -0.02445984 C5.79572031 -0.03824248 8.17593256 -0.04899044 10.55615234 -0.05688477 C12.96278782 -0.06837267 15.36939847 -0.08877336 17.77587891 -0.1184082 C40.1312448 -0.39313088 58.75539604 1.99187861 77.79296875 14.68359375 C80.2494062 16.35540233 80.2494062 16.35540233 83.375 17.73828125 C87.47443831 19.92464835 90.9883833 22.86865326 94.1875 26.23828125 C94.1875 26.89828125 94.1875 27.55828125 94.1875 28.23828125 C95.1775 28.56828125 96.1675 28.89828125 97.1875 29.23828125 C109.92619119 41.7257162 118.518498 61.43731611 120.828125 78.875 C121.06535402 81.25037648 121.06535402 81.25037648 122.1875 83.23828125 C122.28399939 85.23638635 122.31730872 87.23785305 122.3125 89.23828125 C122.31507813 90.31078125 122.31765625 91.38328125 122.3203125 92.48828125 C122.1875 95.23828125 122.1875 95.23828125 121.1875 97.23828125 C120.93132951 99.16175883 120.72317399 101.09173041 120.5390625 103.0234375 C120.36117187 104.78010742 120.36117187 104.78010742 120.1796875 106.57226562 C119.93763733 109.03010484 119.70054096 111.48843768 119.46875 113.94726562 C118.76874637 120.76485416 117.70187021 126.85993426 115.1875 133.23828125 C114.754375 134.47578125 114.32125 135.71328125 113.875 136.98828125 C110.69697875 145.32434745 106.82945745 153.42073969 102.36328125 161.140625 C101.453561 162.76361429 100.62022991 164.42954843 99.8203125 166.109375 C98.06587635 169.47134476 96.04027748 172.34305024 93.75 175.36328125 C92.98816406 176.37648438 92.22632813 177.3896875 91.44140625 178.43359375 C89.47412678 180.88161222 87.41792662 183.03675865 85.1875 185.23828125 C84.16883771 186.89360748 83.16939187 188.56088263 82.1875 190.23828125 C77.38803622 196.63756629 71.43261509 201.96079832 65.625 207.42578125 C64.96564453 208.05419922 64.30628906 208.68261719 63.62695312 209.33007812 C62.98564453 209.93271484 62.34433594 210.53535156 61.68359375 211.15625 C61.10794678 211.70047607 60.5322998 212.24470215 59.93920898 212.80541992 C58.1875 214.23828125 58.1875 214.23828125 56.03149414 215.3059082 C54.00893219 216.09841616 54.00893219 216.09841616 53.1875 218.23828125 C51.55524758 219.15642324 49.92104655 220.0712681 48.27734375 220.96875 C45.18457054 222.84753746 42.46542707 225.14096074 39.69140625 227.45703125 C36.37686093 229.81496053 32.84405739 231.4765738 29.1875 233.23828125 C27.87590324 233.90159525 26.56597462 234.56821901 25.2578125 235.23828125 C18.75326255 238.54336609 12.29654111 241.79745512 5.4609375 244.375 C3.90933923 244.96418079 2.37268848 245.59390969 0.8515625 246.2578125 C-5.18029733 248.86381019 -11.16220789 250.29925588 -17.61328125 251.52734375 C-20.73409471 252.1229506 -20.73409471 252.1229506 -23.22875977 253.24438477 C-32.60180095 256.84994563 -44.52504983 255.42447226 -54.4453125 255.42358398 C-57.17463782 255.42577094 -59.90355827 255.44398521 -62.6328125 255.46289062 C-86.22783499 255.53908582 -86.22783499 255.53908582 -96.81640625 251.0703125 C-98.86013015 250.18987759 -98.86013015 250.18987759 -101.21484375 249.4375 C-112.59009197 245.64575059 -125.24213818 239.83186898 -133.8125 231.23828125 C-133.8125 230.57828125 -133.8125 229.91828125 -133.8125 229.23828125 C-134.7715625 229.08359375 -134.7715625 229.08359375 -135.75 228.92578125 C-136.7709375 228.58546875 -136.7709375 228.58546875 -137.8125 228.23828125 C-138.1425 227.24828125 -138.4725 226.25828125 -138.8125 225.23828125 C-139.8025 224.90828125 -140.7925 224.57828125 -141.8125 224.23828125 C-143.75068042 221.36977423 -145.31196106 218.35478521 -146.8125 215.23828125 C-147.4725 215.23828125 -148.1325 215.23828125 -148.8125 215.23828125 C-149.91925619 213.05205875 -151.02294378 210.86437177 -152.125 208.67578125 C-152.43373047 208.06669922 -152.74246094 207.45761719 -153.06054688 206.83007812 C-155.13936162 202.69433089 -157.03017584 198.51288042 -158.8125 194.23828125 C-159.18632812 193.34625 -159.56015625 192.45421875 -159.9453125 191.53515625 C-160.27273437 190.6946875 -160.60015625 189.85421875 -160.9375 188.98828125 C-161.27007812 188.158125 -161.60265625 187.32796875 -161.9453125 186.47265625 C-167.13645849 167.11108471 -165.46691338 141.84126468 -158.4921875 123.07421875 C-157.84693159 121.33128611 -157.35587126 119.53353394 -156.875 117.73828125 C-155.19953039 112.21908724 -153.01524838 107.04240382 -149.8125 102.23828125 C-147.2182312 101.8775177 -147.2182312 101.8775177 -143.89404297 101.89770508 C-142.65290741 101.89793167 -141.41177185 101.89815826 -140.13302612 101.89839172 C-138.77357628 101.91371277 -137.41413009 101.92936078 -136.0546875 101.9453125 C-134.6674953 101.95090698 -133.28029717 101.95517778 -131.89309692 101.95817566 C-128.24000719 101.96963628 -124.58727466 101.99911339 -120.93432617 102.0322876 C-117.20756869 102.06296258 -113.48075355 102.07667546 -109.75390625 102.09179688 C-102.43994123 102.12398239 -95.12627064 102.17519286 -87.8125 102.23828125 C-87.8125 104.23828125 -87.8125 104.23828125 -90.125 106.67578125 C-91.50245052 107.9891643 -92.88946513 109.29950787 -94.37890625 110.484375 C-96.48056551 113.0556148 -96.78596593 115.63424974 -97.4375 118.86328125 C-98.72916667 125.15494792 -98.72916667 125.15494792 -99.8125 126.23828125 C-101.43706449 143.09765048 -100.94638801 156.93636548 -92.80078125 172.07421875 C-91.8125 174.23828125 -91.8125 174.23828125 -91.8125 177.23828125 C-90.884375 177.57859375 -90.884375 177.57859375 -89.9375 177.92578125 C-87.13950936 179.65395194 -87.0283297 181.19870699 -85.8125 184.23828125 C-82.23126848 189.40730798 -78.42648483 192.48232506 -72.8125 195.23828125 C-72.13131104 195.59760742 -71.45012207 195.95693359 -70.74829102 196.32714844 C-66.32209504 197.70083354 -62.01038792 197.52318165 -57.40234375 197.50390625 C-56.39788712 197.5058197 -55.39343048 197.50773315 -54.35853577 197.50970459 C-52.23959095 197.51106304 -50.12063772 197.50739038 -48.00170898 197.49902344 C-44.75811095 197.48830804 -41.51506535 197.49893616 -38.27148438 197.51171875 C-36.21093628 197.51039731 -34.15038852 197.50783525 -32.08984375 197.50390625 C-30.6350486 197.50997894 -30.6350486 197.50997894 -29.15086365 197.51617432 C-28.24634964 197.50987 -27.34183563 197.50356567 -26.40991211 197.49707031 C-25.61669052 197.49547913 -24.82346893 197.49388794 -24.00621033 197.49224854 C-21.5434742 197.20713596 -19.98780781 196.39471403 -17.8125 195.23828125 C-15.85266498 194.80842139 -13.89174602 194.38209746 -11.92285156 193.99584961 C-3.41168698 192.30123919 2.37985488 189.7534975 9.1875 184.23828125 C10.84845934 183.22882999 12.51505166 182.22858137 14.1875 181.23828125 C15.5147892 180.27925727 16.82815925 179.30059508 18.125 178.30078125 C20.57418181 176.43142468 23.03221703 174.65239916 25.625 172.98828125 C28.26397032 171.49068022 28.26397032 171.49068022 29.1875 169.23828125 C29.88875 168.84640625 30.59 168.45453125 31.3125 168.05078125 C36.07150969 165.05053601 40.09782138 161.43853643 42.61328125 156.359375 C44.30912638 152.9971411 46.30694559 150.4708902 48.75 147.61328125 C51.35534769 144.55873568 53.42540966 141.82742378 55.1875 138.23828125 C55.8475 137.90828125 56.5075 137.57828125 57.1875 137.23828125 C57.99745846 134.9679859 57.99745846 134.9679859 58.625 132.23828125 C59.54112894 128.67044242 60.49641086 125.16174371 61.6875 121.67578125 C61.93113281 120.95003906 62.17476562 120.22429687 62.42578125 119.4765625 C62.95273842 117.92811911 63.49267993 116.38405614 64.04296875 114.84375 C66.13418339 108.60937773 66.80776874 102.81074425 66.1875 96.23828125 C65.8575 95.90828125 65.5275 95.57828125 65.1875 95.23828125 C65.01169513 93.51624075 64.84039574 91.79360354 64.69360352 90.06884766 C63.92574974 81.5692002 62.08057231 74.4347082 57.1875 67.23828125 C48.84242111 61.67489532 33.49191841 64.07089563 23.63525391 64.03295898 C22.02729558 64.02335276 20.41933962 64.0133412 18.81138611 64.00296021 C14.49212038 63.97620185 10.17284405 63.95503718 5.8535428 63.93495822 C1.32253935 63.91291674 -3.20843253 63.88561791 -7.7394104 63.85890198 C-16.29896608 63.80921832 -24.85853952 63.76419045 -33.41812956 63.72087961 C-43.17161481 63.67129775 -52.92506834 63.6164581 -62.67852283 63.56120002 C-82.72315227 63.447754 -102.76781206 63.34083528 -122.8125 63.23828125 C-121.33553509 60.14989105 -119.83051272 57.99970509 -117.40625 55.56640625 C-116.74496094 54.90253906 -116.08367187 54.23867187 -115.40234375 53.5546875 C-114.71269531 52.87277344 -114.02304688 52.19085938 -113.3125 51.48828125 C-112.62285156 50.79089844 -111.93320313 50.09351563 -111.22265625 49.375 C-110.56136719 48.71628906 -109.90007812 48.05757812 -109.21875 47.37890625 C-108.61353516 46.77594727 -108.00832031 46.17298828 -107.38476562 45.55175781 C-105.8125 44.23828125 -105.8125 44.23828125 -103.8125 44.23828125 C-103.8125 43.57828125 -103.8125 42.91828125 -103.8125 42.23828125 C-101.78478698 40.50745154 -99.75645409 38.89419839 -97.625 37.30078125 C-97.04685547 36.85798828 -96.46871094 36.41519531 -95.87304688 35.95898438 C-92.62477617 33.49617122 -89.33591885 31.29757673 -85.8125 29.23828125 C-84.5381066 28.34751968 -83.26731665 27.45158269 -82 26.55078125 C-75.32772286 22.06906746 -68.04972622 18.69739626 -60.8125 15.23828125 C-60.02101563 14.85800781 -59.22953125 14.47773438 -58.4140625 14.0859375 C-56.23282834 13.08153521 -54.03342977 12.15218881 -51.8125 11.23828125 C-51.18649902 10.97660156 -50.56049805 10.71492187 -49.91552734 10.4453125 C-33.47138578 3.61564409 -17.86792293 0.12360534 0 0 Z " fill="#020202" transform="translate(169.8125,128.76171875)"/>
<path d="M0 0 C1.30185242 -0.00953201 2.60370483 -0.01906403 3.94500732 -0.02888489 C5.37382026 -0.02862339 6.80263321 -0.02768598 8.23144531 -0.02612305 C9.69395062 -0.03000971 11.1564548 -0.03434431 12.61895752 -0.03910828 C15.68904267 -0.04657905 18.75901288 -0.04627424 21.82910156 -0.04101562 C25.75438928 -0.03523688 29.67920271 -0.05210863 33.60441208 -0.0753603 C36.62769299 -0.09013311 39.65086084 -0.09096425 42.67417145 -0.08785057 C44.12058701 -0.08836257 45.5670091 -0.0935775 47.01338959 -0.10366249 C49.04274362 -0.11606916 51.07219333 -0.10727275 53.1015625 -0.09765625 C54.25468933 -0.09828568 55.40781616 -0.0989151 56.59588623 -0.0995636 C65.37541753 0.92278083 73.10722039 7.87081693 78.49707031 14.5246582 C82.14563172 19.48534726 85.04642151 24.78205753 87.80957031 30.2746582 C88.38707031 31.3884082 88.96457031 32.5021582 89.55957031 33.6496582 C91.11083973 38.14833952 91.70070603 42.57329153 92.28222656 47.28637695 C92.77153995 50.05915283 93.51942073 51.82022729 94.80957031 54.2746582 C95.35649965 60.5096526 95.35649965 60.5096526 93.59968853 62.96695423 C91.2301484 64.69793323 89.77697819 64.64450507 86.85517883 64.63542175 C85.32182388 64.64160774 85.32182388 64.64160774 83.75749207 64.6479187 C82.07651176 64.63173996 82.07651176 64.63173996 80.36157227 64.61523438 C78.59064209 64.61589149 78.59064209 64.61589149 76.78393555 64.61656189 C73.54645798 64.61482884 70.30936844 64.59977413 67.07196832 64.57884002 C63.68871764 64.56009772 60.3054595 64.55832472 56.92216492 64.55476379 C50.51544268 64.5454361 44.10887385 64.52081263 37.70221919 64.49071532 C30.40847692 64.45719376 23.11472737 64.44069097 15.82092726 64.42562902 C0.81705611 64.39426362 -14.18667146 64.34148916 -29.19042969 64.2746582 C-28.62895654 60.08273334 -28.06047995 56.41262294 -26.37792969 52.5246582 C-24.9391065 49.09004801 -23.57330196 45.65485876 -22.31542969 42.1496582 C-20.94087303 38.32130313 -19.52338685 34.51247771 -18.07568359 30.71118164 C-15.22678534 23.22024428 -12.60805434 15.68156171 -10.19482422 8.03808594 C-8.03917474 1.35616764 -7.01516178 0.02810709 0 0 Z " fill="#030303" transform="translate(1023.1904296875,128.725341796875)"/>
<path d="M0 0 C7.59 0 15.18 0 23 0 C26.27138297 6.54276595 29.34372429 12.95486176 32.1015625 19.69921875 C32.64627701 21.01814873 32.64627701 21.01814873 33.20199585 22.36372375 C34.34648796 25.13689249 35.48590691 27.91210984 36.625 30.6875 C37.77237534 33.47312065 38.9207898 36.25831093 40.06942749 39.04341125 C40.77941237 40.76597919 41.4884735 42.48892827 42.19644165 44.21232605 C44.09296231 48.82529083 46.02284774 53.42098891 48 58 C48.2266333 56.70489502 48.4532666 55.40979004 48.68676758 54.07543945 C49.53872804 49.21235162 50.39529841 44.35008469 51.25317383 39.48803711 C51.62192023 37.39450398 51.98946137 35.30075815 52.35571289 33.20678711 C54.30576678 22.06248189 56.30116419 10.99115783 59 0 C65.6 0 72.2 0 79 0 C80.35363211 4.06089633 79.40992492 7.40809852 78.64477539 11.51049805 C78.41090874 12.81325684 78.41090874 12.81325684 78.1723175 14.14233398 C77.65448793 17.01678904 77.12611637 19.88920074 76.59765625 22.76171875 C76.23685376 24.75271549 75.87670889 26.74383152 75.51719666 28.73506165 C74.56859885 33.97892388 73.61105665 39.22111469 72.65167236 44.4630127 C71.67450648 49.81095361 70.70576746 55.16041971 69.73632812 60.50976562 C67.83248437 71.00802874 65.91841666 81.50439009 64 92 C56.08 92 48.16 92 40 92 C34.89898085 81.26144674 30.34625454 70.3357314 25.85693359 59.33032227 C24.6112339 56.27877769 23.35859754 53.23014082 22.10546875 50.18164062 C21.31208587 48.24235687 20.51910202 46.30290981 19.7265625 44.36328125 C19.3516568 43.45193924 18.9767511 42.54059723 18.59048462 41.60163879 C18.24947723 40.76283676 17.90846985 39.92403473 17.55712891 39.05981445 C17.25545807 38.32181107 16.95378723 37.58380768 16.64297485 36.82344055 C16 35 16 35 16 33 C15.34 33 14.68 33 14 33 C13.97421875 33.59143799 13.9484375 34.18287598 13.921875 34.79223633 C13.26923226 45.14830459 11.36401035 55.29775314 9.56152344 65.50366211 C8.99484355 68.71673707 8.43829737 71.93145707 7.8828125 75.14648438 C7.52663487 77.18499957 7.16988533 79.22341494 6.8125 81.26171875 C6.64580811 82.22510666 6.47911621 83.18849457 6.30737305 84.18107605 C6.15051025 85.06322281 5.99364746 85.94536957 5.83203125 86.85424805 C5.69514893 87.63301804 5.5582666 88.41178802 5.41723633 89.2141571 C5 91 5 91 4 92 C2.5112814 92.08669432 1.018555 92.10703494 -0.47265625 92.09765625 C-1.37177734 92.09443359 -2.27089844 92.09121094 -3.19726562 92.08789062 C-4.61555664 92.07532227 -4.61555664 92.07532227 -6.0625 92.0625 C-7.01189453 92.05798828 -7.96128906 92.05347656 -8.93945312 92.04882812 C-11.29303065 92.0370011 -13.64648477 92.02052025 -16 92 C-16.13363238 86.87732982 -15.65853843 82.07426378 -14.74658203 77.04858398 C-14.54657593 75.90570923 -14.54657593 75.90570923 -14.3425293 74.73974609 C-13.90355973 72.24077234 -13.45594093 69.74344 -13.0078125 67.24609375 C-12.69832584 65.49934251 -12.38923994 63.75252022 -12.08053589 62.00563049 C-11.43364747 58.35275339 -10.78258438 54.70065284 -10.12841797 51.04907227 C-9.29180406 46.37767264 -8.46459712 41.70466734 -7.64038277 37.03106594 C-7.00379884 33.42645267 -6.36274698 29.8226453 -5.72030258 26.21907234 C-5.41366489 24.49657451 -5.10828412 22.77385241 -4.80420303 21.05090141 C-4.37798773 18.6404547 -3.94588701 16.23113483 -3.51220703 13.82202148 C-3.38848724 13.11588211 -3.26476746 12.40974274 -3.13729858 11.6822052 C-2.39025675 7.57447366 -1.33729637 4.01188912 0 0 Z " fill="#060606" transform="translate(912,409)"/>
<path d="M0 0 C9.01426654 9.90646356 11.98507323 19.77488592 12 33 C11.01993982 49.07298697 4.85647213 63.00188284 -6.80078125 74.1484375 C-19.97246896 85.23792236 -35.36201124 87.26316547 -52 86 C-62.67484147 84.08988011 -71.93263343 79.42062093 -78.72265625 70.84375 C-86.33551616 59.8551571 -87.67671799 46.99195823 -85.34765625 33.96484375 C-82.50662047 20.32493973 -76.17636351 8.65079566 -65 0 C-45.48845589 -12.25973655 -19.00072486 -15.69343146 0 0 Z M-56 20 C-61.92080658 28.89787256 -65.12651826 37.98792625 -63.6171875 48.72265625 C-62.11816782 55.01284645 -59.23229709 59.21000613 -54 63 C-48.12763436 66.47624182 -41.66890476 66.8347725 -35 66 C-26.44339244 63.71003021 -20.50108887 59.66278523 -15.75 52.125 C-10.82701386 43.33579438 -9.02931748 33.46971277 -11.65234375 23.52734375 C-14.3250455 17.57398663 -18.94946597 13.56073834 -24.6875 10.625 C-37.11186818 8.28077959 -46.969463 10.92424795 -56 20 Z " fill="#050505" transform="translate(878,417)"/>
<path d="M0 0 C23.43 0 46.86 0 71 0 C70.01 3.3 69.02 6.6 68 10 C67.7215625 10.95132813 67.443125 11.90265625 67.15625 12.8828125 C65.89032976 17.20803999 64.49732052 21.42491866 62.875 25.6328125 C60.75654665 31.36398539 58.91452349 37.19786436 57 43 C56.10598024 45.70893747 55.20984697 48.41716311 54.3125 51.125 C53.91675781 52.32382813 53.52101563 53.52265625 53.11328125 54.7578125 C52.15950372 57.5354804 51.0907214 60.27319649 50 63 C26.9 63 3.8 63 -20 63 C-19.2543469 57.78042828 -18.43636718 53.86698377 -16.75 49 C-16.29676858 47.67581767 -15.84364664 46.35159786 -15.390625 45.02734375 C-15.15923828 44.35815918 -14.92785156 43.68897461 -14.68945312 42.99951172 C-12.26993597 35.98256926 -9.89624959 28.94650645 -7.71484375 21.8515625 C-7.50085938 21.15603271 -7.286875 20.46050293 -7.06640625 19.74389648 C-6.47608705 17.81367186 -5.89211705 15.8815087 -5.30859375 13.94921875 C-3.74374917 9.22665795 -1.84769452 4.6192363 0 0 Z " fill="#040404" transform="translate(605,129)"/>
<path d="M0 0 C19.14 0 38.28 0 58 0 C57 12 57 12 55 19 C42.79 19.33 30.58 19.66 18 20 C16.515 27.92 16.515 27.92 15 36 C26.55 36 38.1 36 50 36 C49 47 49 47 47 54 C35.12 54 23.24 54 11 54 C10.67 57.63 10.34 61.26 10 65 C9.67 66.98 9.34 68.96 9 71 C28.8 71.495 28.8 71.495 49 72 C48 83 48 83 46 92 C25.87 92 5.74 92 -15 92 C-15 83 -15 83 -14.43054199 79.84899902 C-14.24122353 78.77231964 -14.24122353 78.77231964 -14.04808044 77.67388916 C-13.90781937 76.91718933 -13.76755829 76.1604895 -13.62304688 75.38085938 C-13.47674332 74.56039124 -13.33043976 73.7399231 -13.17970276 72.89459229 C-12.69927956 70.20975152 -12.20910195 67.52679351 -11.71875 64.84375 C-11.38184034 62.9719921 -11.04554584 61.10012339 -10.70983887 59.22814941 C-9.82821333 54.32146882 -8.93828016 49.41633105 -8.04656982 44.51147461 C-6.97645799 38.61540338 -5.91674215 32.71745579 -4.85527039 26.81982422 C-3.24477827 17.87842536 -1.62115314 8.9395016 0 0 Z " fill="#070707" transform="translate(346,409)"/>
<path d="M0 0 C1.01037827 0.00222061 2.02075653 0.00444122 3.06175232 0.00672913 C4.77341331 0.00684242 4.77341331 0.00684242 6.51965332 0.00695801 C7.76129745 0.01211929 9.00294159 0.01728058 10.2822113 0.02259827 C12.17785072 0.02472069 12.17785072 0.02472069 14.11178589 0.02688599 C17.47705394 0.0315487 20.84225495 0.04053972 24.20750427 0.05158997 C27.63930175 0.06180606 31.07110614 0.06638403 34.50291443 0.07142639 C41.2405633 0.08248071 47.9781803 0.09923742 54.71580505 0.12025452 C54.60066357 2.16250088 54.4732318 4.20405611 54.34080505 6.24525452 C54.27119568 7.38220764 54.2015863 8.51916077 54.12986755 9.69056702 C53.71580505 13.12025452 53.71580505 13.12025452 51.71580505 19.12025452 C39.50580505 19.45025452 27.29580505 19.78025452 14.71580505 20.12025452 C13.23080505 28.04025452 13.23080505 28.04025452 11.71580505 36.12025452 C23.26580505 36.12025452 34.81580505 36.12025452 46.71580505 36.12025452 C45.71580505 48.12025452 45.71580505 48.12025452 43.71580505 54.12025452 C26.39080505 54.61525452 26.39080505 54.61525452 8.71580505 55.12025452 C7.72580505 60.73025452 6.73580505 66.34025452 5.71580505 72.12025452 C18.91580505 72.12025452 32.11580505 72.12025452 45.71580505 72.12025452 C45.71580505 79.12025452 45.71580505 79.12025452 42.71580505 92.12025452 C22.58580505 92.12025452 2.45580505 92.12025452 -18.28419495 92.12025452 C-17.13511472 77.18221153 -17.13511472 77.18221153 -15.90138245 70.50013733 C-15.76629272 69.73906677 -15.631203 68.97799622 -15.49201965 68.19386292 C-15.05403405 65.73585909 -14.60691454 63.27962724 -14.15919495 60.82337952 C-13.84868587 59.09565687 -13.53863545 57.36785173 -13.22901917 55.63996887 C-12.58413957 52.04899456 -11.93490421 48.4588457 -11.28224182 44.86927795 C-10.444442 40.26035272 -9.61605942 35.6497947 -8.79063416 31.03863907 C-8.1537537 27.48490611 -7.51288315 23.93190241 -6.87068176 20.3791275 C-6.56343652 18.67758071 -6.25724054 16.97584412 -5.95210266 15.27391815 C-5.52767646 12.91108959 -5.09810483 10.54925653 -4.66700745 8.18763733 C-4.47839142 7.12962921 -4.47839142 7.12962921 -4.28596497 6.05024719 C-3.20215875 0.16858196 -3.20215875 0.16858196 0 0 Z " fill="#070707" transform="translate(491.28419494628906,408.87974548339844)"/>
<path d="M0 0 C7.26 0 14.52 0 22 0 C22.60600889 4.93728054 23.21038217 9.87474492 23.8125 14.8125 C23.90270416 15.55131409 23.99290833 16.29012817 24.08584595 17.05133057 C25.49702504 28.62760741 26.8297684 40.20941837 28.0480957 51.80786133 C28.15984131 52.84837646 28.27158691 53.8888916 28.38671875 54.9609375 C28.48170654 55.86634277 28.57669434 56.77174805 28.67456055 57.70458984 C28.95179528 60.15526194 28.95179528 60.15526194 30 63 C30.54188965 61.99138916 30.54188965 61.99138916 31.09472656 60.96240234 C62.5306422 2.4693578 62.5306422 2.4693578 65 0 C66.78071246 -0.08726223 68.5648314 -0.10699041 70.34765625 -0.09765625 C71.42724609 -0.09443359 72.50683594 -0.09121094 73.61914062 -0.08789062 C75.32360352 -0.07532227 75.32360352 -0.07532227 77.0625 -0.0625 C78.77276367 -0.05573242 78.77276367 -0.05573242 80.51757812 -0.04882812 C83.34510351 -0.03699747 86.1725264 -0.0205141 89 0 C88.41813419 4.18715204 87.00597635 7.01838247 84.78125 10.59375 C84.10497559 11.69162842 83.42870117 12.78950684 82.73193359 13.9206543 C82.36896179 14.50261566 82.00598999 15.08457703 81.63201904 15.68417358 C79.67874795 18.81733753 77.75091013 21.9661146 75.8203125 25.11328125 C75.41994781 25.76464554 75.01958313 26.41600983 74.60708618 27.08711243 C70.43070693 33.89631244 66.39561169 40.78557031 62.375 47.6875 C55.16379879 60.05075259 47.83900703 72.34106531 40.44775391 84.59765625 C38.93888718 87.02084987 38.93888718 87.02084987 37.64672852 89.77807617 C36 92 36 92 33.5480957 92.56762695 C32.60023193 92.54144287 31.65236816 92.51525879 30.67578125 92.48828125 C29.13374023 92.46411133 29.13374023 92.46411133 27.56054688 92.43945312 C26.48869141 92.39755859 25.41683594 92.35566406 24.3125 92.3125 C23.22904297 92.28994141 22.14558594 92.26738281 21.02929688 92.24414062 C18.35141162 92.18515637 15.67663079 92.09864379 13 92 C10.94451166 80.58573459 9.03420298 69.15740058 7.265625 57.6953125 C7.14576988 56.9203027 7.02591476 56.14529289 6.90242767 55.34679794 C6.27244928 51.27173412 5.64477412 47.19632352 5.01904297 43.12060547 C4.37397335 38.92224906 3.72039908 34.72525981 3.06509781 30.52849007 C2.55939842 27.2796476 2.05998447 24.02986174 1.56230927 20.77978134 C1.32386462 19.23004306 1.08302461 17.68067134 0.83972931 16.13168716 C0.50267825 13.98214769 0.17455702 11.83142633 -0.15136719 9.68017578 C-0.339953 8.45904083 -0.52853882 7.23790588 -0.72283936 5.97976685 C-1 3 -1 3 0 0 Z " fill="#050505" transform="translate(554,409)"/>
<path d="M0 0 C1.921875 1.4375 1.921875 1.4375 3.25 3 C3.25 7 3.25 7 1.7109375 8.78125 C1.02257812 9.3484375 0.33421875 9.915625 -0.375 10.5 C-1.09945312 11.09941406 -1.82390625 11.69882812 -2.5703125 12.31640625 C-5.2216985 14.3643406 -7.90949965 16.22468728 -10.75 18 C-11.430625 17.38125 -12.11125 16.7625 -12.8125 16.125 C-18.22798975 12.20741167 -23.21326748 11.59093766 -29.6640625 12.515625 C-32.45535307 13.16378985 -34.49845985 14.24098426 -36.75 16 C-38.38191323 19.26382646 -38.29862988 21.40342633 -37.75 25 C-33.86904739 29.08027646 -27.9042234 30.76036446 -22.8125 32.8125 C-15.08600582 36.03739939 -9.23868679 40.03365543 -4.75 47.1875 C-1.6529613 55.89792134 -1.8758397 64.57337524 -5.75 73 C-11.82503644 82.17811261 -20.24083516 86.50093588 -30.75 89 C-45.53458592 90.53691913 -58.55726084 88.47430738 -70.921875 79.87890625 C-72.75 78 -72.75 78 -73.75 73 C-69.13 69.37 -64.51 65.74 -59.75 62 C-55.75 64 -55.75 64 -53.1875 66 C-47.43058669 69.34947684 -40.91221279 70.75662212 -34.3125 69.375 C-30.68696135 67.97566929 -28.85967602 67.25241721 -26.75 64 C-25.99988633 60.54271642 -25.99988633 60.54271642 -26.75 57 C-30.54951289 52.26714448 -34.48457565 50.65166519 -40 48.6875 C-48.49330453 45.41707922 -54.69993724 41.62130721 -59.8125 33.875 C-61.97812715 24.92374112 -62.04367038 16.24934426 -57.28125 8.1796875 C-44.64477673 -9.80794537 -17.59685972 -12.12091386 0 0 Z " fill="#060606" transform="translate(742.75,414)"/>
<path d="M0 0 C1.25908676 0.00222061 2.51817352 0.00444122 3.81541443 0.00672913 C4.50806396 0.0065831 5.2007135 0.00643707 5.91435242 0.00628662 C8.21400537 0.00698577 10.51357828 0.01477823 12.81321716 0.02259827 C14.40362504 0.02446244 15.99403349 0.02588635 17.58444214 0.02688599 C21.77827021 0.03071123 25.97206386 0.04054156 30.1658783 0.05158997 C34.44220006 0.06180395 38.71852736 0.06638358 42.99485779 0.07142639 C51.39135799 0.08216383 59.78783017 0.09924032 68.18431091 0.12025452 C68.02935382 1.72641819 67.87279718 3.3324276 67.71556091 4.93836975 C67.62854919 5.83273239 67.54153748 6.72709503 67.45188904 7.64855957 C67.17509614 10.20537396 66.76625036 12.67768705 66.18431091 15.18275452 C66.01931091 15.91623108 65.85431091 16.64970764 65.68431091 17.40541077 C65.18431091 19.12025452 65.18431091 19.12025452 64.18431091 20.12025452 C62.40359845 20.20751675 60.61947951 20.22724493 58.83665466 20.21791077 C57.75706482 20.21468811 56.67747498 20.21146545 55.56517029 20.20814514 C54.42886169 20.19976624 53.2925531 20.19138733 52.12181091 20.18275452 C50.98163513 20.1782428 49.84145935 20.17373108 48.66673279 20.16908264 C45.8392074 20.15725199 43.01178451 20.14076861 40.18431091 20.12025452 C40.033974 21.06827942 39.88363708 22.01630432 39.72874451 22.99305725 C36.92681422 40.62483198 34.05563693 58.24043041 30.87181091 75.80775452 C30.74320679 76.52293243 30.61460266 77.23811035 30.48210144 77.97496033 C30.11955729 79.98629199 29.75168036 81.99666025 29.38352966 84.00697327 C29.17558777 85.14352356 28.96764587 86.28007385 28.75340271 87.45106506 C28.18431091 90.12025452 28.18431091 90.12025452 27.18431091 92.12025452 C20.25431091 92.12025452 13.32431091 92.12025452 6.18431091 92.12025452 C7.30931091 80.87025452 7.30931091 80.87025452 8.30760193 75.29359436 C8.52775467 74.05306305 8.74790741 72.81253174 8.97473145 71.53440857 C9.21247776 70.21665487 9.45030822 68.89891636 9.68821716 67.58119202 C9.93374103 66.205488 10.17892863 64.82972393 10.42379761 63.4539032 C11.06324525 59.86625326 11.70719982 56.27942717 12.35215759 52.69276428 C13.01187036 49.01934974 13.66723296 45.34515942 14.32298279 41.67103577 C15.60588169 34.48668277 16.89395409 27.3032725 18.18431091 20.12025452 C10.26431091 20.12025452 2.34431091 20.12025452 -5.81568909 20.12025452 C-5.81568909 11.06186036 -5.81568909 11.06186036 -4.87818909 6.18275452 C-4.70416565 5.24560608 -4.53014221 4.30845764 -4.35084534 3.34291077 C-3.5637149 0.073734 -3.46039465 0.14778908 0 0 Z " fill="#090909" transform="translate(268.81568908691406,408.87974548339844)"/>
<path d="M0 0 C6.6 0 13.2 0 20 0 C21.23435813 3.70307438 20.69998108 5.74546634 20.01196289 9.58276367 C19.89506607 10.24644455 19.77816925 10.91012543 19.6577301 11.59391785 C19.26972411 13.78658224 18.87124489 15.97720556 18.47265625 18.16796875 C18.20153772 19.68814272 17.93107403 21.20843362 17.66123962 22.72883606 C16.94934455 26.72982076 16.22855509 30.72915351 15.50592041 34.72821045 C14.64068556 39.52695895 13.78647756 44.3276809 12.93042755 49.12807465 C11.62874017 56.42026579 10.31304504 63.70980428 9 71 C20.22 71.33 31.44 71.66 43 72 C42 85 42 85 40 92 C21.52 92 3.04 92 -16 92 C-14.87475084 77.37176089 -14.87475084 77.37176089 -13.72485352 70.81054688 C-13.60112366 70.09491577 -13.4773938 69.37928467 -13.34991455 68.64196777 C-12.9490348 66.33310908 -12.53933111 64.02592935 -12.12890625 61.71875 C-11.84327744 60.09027763 -11.55804216 58.4617362 -11.2731781 56.83312988 C-10.67951841 53.44728043 -10.08150964 50.06223774 -9.48022461 46.67773438 C-8.71120507 42.34731719 -7.9527496 38.01512766 -7.19741917 33.68230438 C-6.6120489 30.33070398 -6.02142517 26.98004606 -5.42918205 23.62965393 C-5.14735748 22.0319802 -4.8670914 20.43403071 -4.58844185 18.83580017 C-4.19910135 16.60765649 -3.80275948 14.38086861 -3.40454102 12.15429688 C-3.18105484 10.89000854 -2.95756866 9.62572021 -2.72731018 8.32312012 C-2 5 -2 5 0 0 Z " fill="#070707" transform="translate(422,409)"/>
<path d="M0 0 C6.93 0 13.86 0 21 0 C20.29972182 9.97784182 18.61051171 19.70171041 16.875 29.5390625 C16.56466522 31.31451677 16.25461134 33.09002016 15.94482422 34.86557007 C15.29878214 38.56242239 14.64958246 42.25870187 13.99804688 45.95458984 C13.16162356 50.70060575 12.33290165 55.4479289 11.50643921 60.19568825 C10.86941247 63.85060835 10.22855258 67.50484802 9.58648682 71.15888596 C9.27912369 72.91065707 8.97292828 74.66263347 8.66790771 76.414814 C8.24342225 78.84967308 7.81383667 81.28357632 7.3828125 83.71728516 C7.25706848 84.44446747 7.13132446 85.17164978 7.00177002 85.92086792 C6.11429772 90.88570228 6.11429772 90.88570228 5 92 C3.43827255 92.08685603 1.87270656 92.10702219 0.30859375 92.09765625 C-0.63564453 92.09443359 -1.57988281 92.09121094 -2.55273438 92.08789062 C-3.54595703 92.07951172 -4.53917969 92.07113281 -5.5625 92.0625 C-6.55958984 92.05798828 -7.55667969 92.05347656 -8.58398438 92.04882812 C-11.05605138 92.03700005 -13.52798665 92.01967958 -16 92 C-15.25181955 82.50806008 -13.54893561 73.20904029 -11.875 63.84765625 C-11.56467948 62.09798243 -11.25462534 60.34826135 -10.94482422 58.59849548 C-10.29824181 54.95122885 -9.64912585 51.30442555 -8.99804688 47.65795898 C-8.16334644 42.98245055 -7.33402271 38.30600806 -6.50643921 33.62923527 C-5.86823383 30.02504822 -5.2277377 26.42127137 -4.58648682 22.81762505 C-4.27969715 21.09252785 -3.97350069 19.36732505 -3.66790771 17.64201546 C-3.24179541 15.23888145 -2.81272904 12.83629384 -2.3828125 10.43383789 C-2.25706848 9.72162582 -2.13132446 9.00941376 -2.00177002 8.27561951 C-1.48906733 5.42575567 -0.91744157 2.75232471 0 0 Z " fill="#070707" transform="translate(765,409)"/>
<path d="M0 0 C6.93 0 13.86 0 21 0 C20.30777894 9.89909394 18.62156562 19.53090123 16.875 29.28515625 C16.56462933 31.0357876 16.25457613 32.78647525 15.94482422 34.53721619 C15.2987992 38.18280427 14.64963108 41.82781363 13.99804688 45.47241211 C13.16214741 50.14890305 12.33320514 54.826595 11.50643921 59.50470829 C10.86885988 63.10896482 10.22817827 66.71266424 9.58648682 70.31619072 C9.27943959 72.04206868 8.97324307 73.76809822 8.66790771 75.49427986 C8.24262448 77.89526772 7.81329947 80.29549711 7.3828125 82.69555664 C7.25706848 83.40979294 7.13132446 84.12402924 7.00177002 84.85990906 C6.11437487 89.77125025 6.11437487 89.77125025 5 92 C-1.93 92 -8.86 92 -16 92 C-15.30777894 82.10090606 -13.62156562 72.46909877 -11.875 62.71484375 C-11.56462933 60.9642124 -11.25457613 59.21352475 -10.94482422 57.46278381 C-10.2987992 53.81719573 -9.64963108 50.17218637 -8.99804688 46.52758789 C-8.16214741 41.85109695 -7.33320514 37.173405 -6.50643921 32.49529171 C-5.86885988 28.89103518 -5.22817827 25.28733576 -4.58648682 21.68380928 C-4.27943959 19.95793132 -3.97324307 18.23190178 -3.66790771 16.50572014 C-3.24262448 14.10473228 -2.81329947 11.70450289 -2.3828125 9.30444336 C-2.25706848 8.59020706 -2.13132446 7.87597076 -2.00177002 7.14009094 C-1.11437487 2.22874975 -1.11437487 2.22874975 0 0 Z " fill="#070707" transform="translate(650,409)"/>
<path d="M0 0 C0.33 0.66 0.66 1.32 1 2 C1.90999001 1.99354745 2.81998001 1.9870949 3.75754547 1.98044682 C25.90840485 1.8257985 48.05917108 1.70999197 70.21045685 1.6373148 C80.92272845 1.60123359 91.63463951 1.55204956 102.34667969 1.47192383 C111.68426427 1.40211233 121.02158772 1.35698263 130.35942602 1.34138054 C135.30304131 1.33226145 140.24590961 1.31085933 145.18928528 1.2598896 C149.84502814 1.21227578 154.49971839 1.19773915 159.15568161 1.20824623 C160.86169028 1.20632489 162.56773516 1.19245891 164.27353287 1.16556168 C178.76018167 0.94839323 178.76018167 0.94839323 183.89050293 5.36216736 C184.96313711 6.5429346 186.00365133 7.75418914 187 9 C187.56557869 9.52491311 188.13115738 10.04982622 188.71387482 10.59064579 C189.13829613 11.05573268 189.56271744 11.52081957 190 12 C189.6875 14.1875 189.6875 14.1875 189 16 C188.649375 15.29875 188.29875 14.5975 187.9375 13.875 C185.30688512 9.97150695 183.2838475 7.15909513 179 5 C173.23417406 4.08405368 167.50766523 4.18224458 161.68188477 4.22705078 C159.90746214 4.21887548 158.13304997 4.20807047 156.35865784 4.19483948 C151.55322322 4.16643495 146.74847479 4.17474501 141.9430058 4.18970728 C136.91676021 4.19909335 131.8906814 4.17463103 126.86448669 4.15377808 C117.35192738 4.11944512 107.8396085 4.11549932 98.3269996 4.12250316 C87.49504775 4.12899644 76.66326465 4.1015649 65.83136284 4.07130075 C43.55422317 4.00981794 21.27721531 3.99088265 -1 4 C-0.67 2.68 -0.34 1.36 0 0 Z " fill="#303030" transform="translate(703,189)"/>
<path d="M0 0 C20.88041933 0.10749966 41.76080408 0.22030633 62.64116096 0.33933926 C72.33742247 0.39449267 82.03368765 0.44794411 91.72998047 0.49731445 C100.18648249 0.54037658 108.64295939 0.58670792 117.09942234 0.63687855 C121.57228646 0.66330335 126.04514618 0.68814977 130.5180397 0.70907402 C134.73854264 0.72886943 138.95899852 0.7530761 143.17945862 0.78049088 C144.71839912 0.78974167 146.25734985 0.79745808 147.79630661 0.80341911 C157.24075384 0.84108907 166.58792203 1.19842886 176 2 C176 2.99 176 3.98 176 5 C175.18140692 4.93019456 174.36281384 4.86038912 173.5194149 4.78846836 C164.15520243 4.04781245 154.83772217 3.83081814 145.44775391 3.79467773 C143.83979558 3.78507151 142.23183962 3.77505995 140.62388611 3.76467896 C136.30462038 3.7379206 131.98534405 3.71675593 127.6660428 3.69667697 C123.13503935 3.67463549 118.60406747 3.64733666 114.0730896 3.62062073 C105.51353392 3.57093707 96.95396048 3.5259092 88.39437044 3.48259836 C78.64088519 3.4330165 68.88743166 3.37817685 59.13397717 3.32291877 C39.08934773 3.20947275 19.04468794 3.10255403 -1 3 C-0.67 2.01 -0.34 1.02 0 0 Z " fill="#353535" transform="translate(48,189)"/>
<path d="M0 0 C0.33 0.66 0.66 1.32 1 2 C1.72298908 1.99723462 2.44597816 1.99446924 3.19087601 1.99162006 C20.7755964 1.9253926 38.36028516 1.87573522 55.94510269 1.84456348 C64.44896165 1.82908874 72.95273741 1.80798765 81.45654297 1.77368164 C88.86769565 1.74379783 96.27878808 1.72442942 103.68999934 1.71773452 C107.61489364 1.71382051 111.53961555 1.70460957 115.46445465 1.68280983 C119.15802262 1.66246068 122.85134704 1.65616295 126.54496574 1.66067696 C128.54810057 1.65945698 130.55120882 1.64330662 132.55427551 1.6267395 C133.74616989 1.63086349 134.93806427 1.63498749 136.16607666 1.63923645 C137.20217197 1.63647107 138.23826729 1.63370569 139.30575943 1.63085651 C142.40627118 2.05566406 143.79519191 2.80264866 146 5 C146.25 7.6875 146.25 7.6875 146 10 C145.566875 9.0409375 145.566875 9.0409375 145.125 8.0625 C144.17176549 5.84793921 144.17176549 5.84793921 142 5 C140.12510037 4.8944771 138.24645284 4.85337317 136.36862183 4.84178162 C134.57228302 4.82709839 134.57228302 4.82709839 132.73965454 4.81211853 C131.40570108 4.806214 130.07174721 4.80040357 128.73779297 4.79467773 C127.33849802 4.78510153 125.93920597 4.7750916 124.53991699 4.76467896 C120.73439024 4.73759588 116.92885105 4.71660478 113.123281 4.69667697 C109.14874333 4.67483837 105.17424417 4.6474393 101.19973755 4.62062073 C93.67039056 4.57066504 86.14102222 4.5257369 78.61163342 4.48259836 C70.04098712 4.43325054 61.47037945 4.37832332 52.8997705 4.32291877 C35.26654952 4.20905458 17.6332921 4.10222522 0 4 C0 2.68 0 1.36 0 0 Z " fill="#373737" transform="translate(332,188)"/>
<path d="M0 0 C1.93884889 0.28256092 3.87605961 0.5763793 5.8125 0.875 C6.89144531 1.03742188 7.97039062 1.19984375 9.08203125 1.3671875 C12 2 12 2 15 4 C25.01979647 6.59472771 35.46369676 6.27739916 45.72875977 6.20581055 C48.42929596 6.18755546 51.12948653 6.1853017 53.83007812 6.18554688 C63.59885755 6.16507148 73.26547943 5.8827401 83 5 C83 5.66 83 6.32 83 7 C73.16317411 10.27894196 61.63180132 9.18622184 51.3671875 9.18530273 C48.63786218 9.18748969 45.90894173 9.20570396 43.1796875 9.22460938 C30.57287203 9.26546473 18.80302494 8.88401032 7 4 C4.67893853 3.2752241 2.34760653 2.6358101 0 2 C0 1.34 0 0.68 0 0 Z " fill="#262626" transform="translate(64,375)"/>
<path d="M0 0 C0.495 0.99 0.495 0.99 1 2 C-1.44444444 7.44444444 -1.44444444 7.44444444 -3 9 C-5.08619022 9.09417773 -7.17560477 9.11742878 -9.26391602 9.11352539 C-10.2443689 9.11374443 -10.2443689 9.11374443 -11.24462891 9.1139679 C-13.41442128 9.11326883 -15.58412879 9.10547678 -17.75390625 9.09765625 C-19.25463311 9.09579205 -20.75536057 9.09436816 -22.25608826 9.09336853 C-26.21318226 9.08954352 -30.17023978 9.0797134 -34.12731934 9.06866455 C-38.16234849 9.05845006 -42.19738353 9.05387083 -46.23242188 9.04882812 C-54.15496469 9.03809111 -62.07747781 9.0210149 -70 9 C-69.34 7.68 -68.68 6.36 -68 5 C-68 5.66 -68 6.32 -68 7 C-46.55 6.67 -25.1 6.34 -3 6 C-2.01 4.02 -1.02 2.04 0 0 Z " fill="#1F1F1F" transform="translate(993,375)"/>
<path d="M0 0 C0.33 0 0.66 0 1 0 C1 1.65 1 3.3 1 5 C22.45 5 43.9 5 66 5 C66 5.66 66 6.32 66 7 C43.89 7 21.78 7 -1 7 C-0.67 4.69 -0.34 2.38 0 0 Z " fill="#474747" transform="translate(275,376)"/>
<path d="M0 0 C13.53 0 27.06 0 41 0 C41 0.66 41 1.32 41 2 C39.24357178 2.02187378 39.24357178 2.02187378 37.45166016 2.04418945 C33.11654776 2.10206349 28.78196077 2.17929611 24.44726562 2.26245117 C22.56942253 2.29575202 20.6914781 2.32376776 18.81347656 2.34643555 C16.11739825 2.37988742 13.422253 2.43219641 10.7265625 2.48828125 C9.46243027 2.49786613 9.46243027 2.49786613 8.17276001 2.50764465 C5.56061313 2.53930845 5.56061313 2.53930845 2 3 C1.01 4.485 1.01 4.485 0 6 C-0.66 5.67 -1.32 5.34 -2 5 C-1.34 3.35 -0.68 1.7 0 0 Z " fill="#1D1D1D" transform="translate(979,231)"/>
<path d="M0 0 C20.46 0 40.92 0 62 0 C62 2 62 2 59.75 4.4375 C57.5687345 6.47004286 55.43257 8.28819148 53 10 C54.51325083 6.85709443 56.188065 4.01989166 58 1 C38.86 1 19.72 1 0 1 C0 0.67 0 0.34 0 0 Z " fill="#313131" transform="translate(20,231)"/>
<path d="M0 0 C1.93884889 0.28256092 3.87605961 0.5763793 5.8125 0.875 C6.89144531 1.03742188 7.97039062 1.19984375 9.08203125 1.3671875 C12 2 12 2 15 4 C17.21584546 4.44703234 19.44841961 4.81463242 21.6875 5.125 C22.86699219 5.29257812 24.04648438 5.46015625 25.26171875 5.6328125 C26.61716797 5.81457031 26.61716797 5.81457031 28 6 C28 6.99 28 7.98 28 9 C20.57488373 8.03790414 13.92024131 6.86354813 7 4 C4.67893853 3.2752241 2.34760653 2.6358101 0 2 C0 1.34 0 0.68 0 0 Z " fill="#414141" transform="translate(64,375)"/>
<path d="M0 0 C7.92 0 15.84 0 24 0 C23.67 1.65 23.34 3.3 23 5 C22.01 5.495 22.01 5.495 21 6 C21.33 4.68 21.66 3.36 22 2 C14.41 2.33 6.82 2.66 -1 3 C-0.67 2.01 -0.34 1.02 0 0 Z " fill="#363636" transform="translate(619,409)"/>
<path d="M0 0 C0.91644287 0.00523682 1.83288574 0.01047363 2.77709961 0.01586914 C3.76645508 0.0190918 4.75581055 0.02231445 5.77514648 0.02563477 C6.81606445 0.03401367 7.85698242 0.04239258 8.92944336 0.05102539 C10.49662109 0.05779297 10.49662109 0.05779297 12.09545898 0.06469727 C14.68600996 0.07652627 17.27644895 0.0930085 19.86694336 0.11352539 C19.86694336 0.44352539 19.86694336 0.77352539 19.86694336 1.11352539 C13.26694336 1.44352539 6.66694336 1.77352539 -0.13305664 2.11352539 C-0.46305664 4.75352539 -0.79305664 7.39352539 -1.13305664 10.11352539 C-1.46305664 10.11352539 -1.79305664 10.11352539 -2.13305664 10.11352539 C-2.32717845 8.63521318 -2.51317795 7.15583223 -2.69555664 5.67602539 C-2.7999707 4.85231445 -2.90438477 4.02860352 -3.01196289 3.17993164 C-3.05192383 2.49801758 -3.09188477 1.81610352 -3.13305664 1.11352539 C-2.13305664 0.11352539 -2.13305664 0.11352539 0 0 Z " fill="#545454" transform="translate(556.133056640625,408.886474609375)"/>
<path d="M0 0 C0 0.66 0 1.32 0 2 C-4.39251833 4.02055843 -8.15340923 5.40895235 -13 6 C-12.67 5.01 -12.34 4.02 -12 3 C-10.0390625 2.05078125 -10.0390625 2.05078125 -7.625 1.3125 C-6.83351563 1.06113281 -6.04203125 0.80976563 -5.2265625 0.55078125 C-3 0 -3 0 0 0 Z " fill="#414141" transform="translate(482,278)"/>
<path d="M0 0 C1.4835001 0.42257276 2.96176424 0.86356322 4.4375 1.3125 C5.67306641 1.67794922 5.67306641 1.67794922 6.93359375 2.05078125 C7.61550781 2.36402344 8.29742188 2.67726563 9 3 C9.33 3.99 9.66 4.98 10 6 C6.20696275 4.99806563 3.28463659 4.18975773 0 2 C0 1.34 0 0.68 0 0 Z " fill="#3A3A3A" transform="translate(701,374)"/>
<path d="M0 0 C0 0.99 0 1.98 0 3 C-3.96 4.98 -3.96 4.98 -8 7 C-8 6.01 -8 5.02 -8 4 C-5.36 2.68 -2.72 1.36 0 0 Z " fill="#3E3E3E" transform="translate(850,359)"/>
</svg>
