<?xml version="1.0" encoding="UTF-8" standalone="no"?><!DOCTYPE svg PUBLIC "-//W3C//DTD SVG 1.1//EN" "http://www.w3.org/Graphics/SVG/1.1/DTD/svg11.dtd"><svg width="100%" height="100%" viewBox="0 0 2500 665" version="1.1" xmlns="http://www.w3.org/2000/svg" xmlns:xlink="http://www.w3.org/1999/xlink" xml:space="preserve" xmlns:serif="http://www.serif.com/" style="fill-rule:evenodd;clip-rule:evenodd;stroke-linejoin:round;stroke-miterlimit:2;"><g id="Layer-1" serif:id="Layer 1"><path d="M2224.21,311.885l0,45.198l31.763,0l0,44.843c0.1,4.008 -0.119,8.329 -0.807,11.787c-1.262,8.365 -9.209,22.607 -31.756,22.607c-22.412,0 -30.215,-14.242 -31.568,-22.607c-0.569,-3.458 -0.812,-7.779 -0.812,-11.787l0,-141.638c0,-5.01 0.338,-10.493 1.401,-14.644c1.54,-7.549 8.229,-22.436 30.812,-22.436c23.705,0 29.623,15.695 30.98,22.436c0.891,4.465 0.943,11.954 0.943,11.954l0,17.199l78.047,0l0,-10.167c0,0 0.354,-10.609 -0.593,-20.51c-5.865,-58.135 -53.765,-76.527 -108.689,-76.527c-55.022,0 -101.951,18.563 -108.788,76.527c-0.617,5.301 -1.56,14.835 -1.56,20.51l0,130.293c0,5.674 0.183,10.068 1.234,20.438c5.093,56.535 54.092,76.575 108.896,76.575c55.142,0 103.802,-20.04 108.983,-76.575c0.919,-10.37 1.015,-14.764 1.138,-20.438l0,-83.038l-109.624,0Zm-538.152,-135.956l-78.378,0l0,229.265c0.124,3.995 0,8.484 -0.688,11.775c-1.636,7.696 -8.158,22.507 -29.782,22.507c-21.345,0 -28.039,-14.811 -29.551,-22.507c-0.784,-3.291 -0.883,-7.78 -0.784,-11.775l0,-229.265l-78.354,0l0,222.149c-0.099,5.727 0.35,17.426 0.689,20.49c5.408,57.888 51.031,76.683 108,76.683c57.08,0 102.676,-18.795 108.184,-76.683c0.433,-3.064 1.002,-14.763 0.664,-20.49l0,-222.149Zm-720.149,0l-39.097,242.249l-39.074,-242.249l-126.429,0l-6.705,309.907l77.454,0l2.098,-286.89l53.292,286.89l78.584,0l53.34,-286.89l2.105,286.89l77.65,0l-6.932,-309.907l-126.286,0Zm-468.099,0l-57.406,309.907l83.714,0l43.26,-286.89l42.221,286.89l83.133,0l-57.168,-309.907l-137.754,0Zm1462.16,249.512l-72.982,-249.512l-115.004,0l0,306.676l76.078,0l-4.417,-257.494l78.378,257.494l110.296,0l0,-306.676l-76.575,0l4.226,249.512Zm-703.706,-168.858c-1.377,-6.12 -0.979,-12.622 -0.267,-16.021c2.217,-9.92 8.882,-20.74 28.087,-20.74c17.899,0 28.393,11.158 28.393,27.903l0,18.95l76.404,0l0,-21.6c0,-66.774 -59.866,-77.264 -103.21,-77.264c-54.589,0 -99.17,17.995 -107.312,68.239c-2.153,13.673 -2.686,25.81 0.741,41.298c13.275,62.647 122.338,80.821 138.168,120.44c2.793,7.505 1.993,17.075 0.569,22.714c-2.372,10.311 -9.308,20.681 -29.87,20.681c-19.284,0 -30.891,-11.086 -30.891,-27.796l-0.024,-29.742l-82.238,0l0,23.642c0,68.505 53.658,89.174 111.45,89.174c55.35,0 101.065,-18.914 108.399,-70.185c3.498,-26.49 0.859,-43.745 -0.545,-50.243c-12.814,-64.255 -129.056,-83.583 -137.854,-119.45m-1007.87,-0.76c-1.5,-6.247 -1.15,-12.841 -0.314,-16.279c2.117,-9.873 8.822,-20.884 28.365,-20.884c18.126,0 28.799,11.266 28.799,28.146l0,19.181l77.299,0l0,-21.771c0,-67.415 -60.781,-78.16 -104.598,-78.16c-55.047,0 -100.026,18.274 -108.255,68.88c-2.252,13.892 -2.638,26.112 0.617,41.771c13.418,63.36 123.56,81.681 139.585,121.773c3,7.454 2.093,17.024 0.605,22.882c-2.543,10.418 -9.535,20.935 -30.268,20.935c-19.359,0 -30.939,-11.277 -30.939,-28.217l-0.108,-29.822l-83.161,0l0,23.697c0,69.289 54.418,90.125 112.66,90.125c55.994,0 101.976,-19.081 109.477,-70.944c3.729,-26.734 0.931,-44.131 -0.326,-50.729c-13.08,-65.043 -130.615,-84.308 -139.438,-120.584" style="fill:#1428a0;fill-rule:nonzero;"/></g></svg>