<?xml version="1.0" encoding="UTF-8"?>
<svg version="1.1" xmlns="http://www.w3.org/2000/svg" width="240" height="80">
<path d="M0 0 C79.2 0 158.4 0 240 0 C240 26.4 240 52.8 240 80 C160.8 80 81.6 80 0 80 C0 53.6 0 27.2 0 0 Z " fill="#FDFDFD" transform="translate(0,0)"/>
<path d="M0 0 C2.31 0 4.62 0 7 0 C7 2.31 7 4.62 7 7 C7.59425781 7.09410156 8.18851563 7.18820313 8.80078125 7.28515625 C11.49140721 8.15972916 12.42287455 9.25553383 14.1875 11.4375 C14.69667969 12.05496094 15.20585938 12.67242187 15.73046875 13.30859375 C18.70843281 17.27615818 18.67412074 21.19688974 18 26 C15.76509629 31.50056043 12.3992835 35.40834392 7 38 C2.75443071 38.6065099 0.64009949 38.32632523 -3.1875 36.375 C-7.16849982 33.01326682 -9.58849713 30.51868138 -10.453125 25.2265625 C-10.81905356 18.62321533 -9.90726452 14.55355748 -5.703125 9.42578125 C-3.80574805 7.83738082 -2.41942566 7.39447158 0 7 C0 4.69 0 2.38 0 0 Z " fill="#EE6330" transform="translate(108,17)"/>
<path d="M0 0 C8 0 8 0 9.734375 1.37695312 C10.06953125 2.00537109 10.4046875 2.63378906 10.75 3.28125 C11.32041016 4.29638672 11.32041016 4.29638672 11.90234375 5.33203125 C12.26457031 6.04746094 12.62679687 6.76289063 13 7.5 C13.39316406 8.21542969 13.78632812 8.93085937 14.19140625 9.66796875 C15.1549873 11.43061701 16.08126339 13.2135677 17 15 C17.33 10.38 17.66 5.76 18 1 C20.31 1 22.62 1 25 1 C25 10.57 25 20.14 25 30 C22.36 30 19.72 30 17 30 C14.6875 27.4453125 14.6875 27.4453125 13 24.125 C12.4225 23.03445312 11.845 21.94390625 11.25 20.8203125 C10 18 10 18 10 16 C9.34 16 8.68 16 8 16 C8 20.95 8 25.9 8 31 C5.36 31 2.72 31 0 31 C0 20.77 0 10.54 0 0 Z " fill="#262324" transform="translate(70,24)"/>
<path d="M0 0 C6.93 0 13.86 0 21 0 C21 1.98 21 3.96 21 6 C16.71 6 12.42 6 8 6 C8 7.65 8 9.3 8 11 C11.96 11 15.92 11 20 11 C20 12.98 20 14.96 20 17 C16.04 17 12.08 17 8 17 C8 18.98 8 20.96 8 23 C12.62 23 17.24 23 22 23 C22 25.31 22 27.62 22 30 C14.74 30 7.48 30 0 30 C0 20.1 0 10.2 0 0 Z " fill="#272425" transform="translate(153,25)"/>
<path d="M0 0 C3.1875 2.25 3.1875 2.25 5 5 C5 6.32 5 7.64 5 9 C3.72125 9.061875 2.4425 9.12375 1.125 9.1875 C0.40570313 9.22230469 -0.31359375 9.25710937 -1.0546875 9.29296875 C-1.69664063 9.19628906 -2.33859375 9.09960938 -3 9 C-3.66 8.01 -4.32 7.02 -5 6 C-5.99 6 -6.98 6 -8 6 C-8 6.99 -8 7.98 -8 9 C-7.32453125 9.17015625 -6.6490625 9.3403125 -5.953125 9.515625 C3.62803235 12.11859838 3.62803235 12.11859838 6 16 C6.61125591 20.2023844 6.50296632 22.21953502 4.1875 25.8125 C0.86158549 29.13841451 -1.23959596 30.30455313 -5.875 30.375 C-9.36990548 30.29336717 -10.90584604 30.04995924 -14.0625 28.375 C-16.363706 25.55416683 -16.75499132 23.59346057 -17 20 C-13.625 19.8125 -13.625 19.8125 -10 20 C-9.34 20.99 -8.68 21.98 -8 23 C-5.41619823 23.25030977 -5.41619823 23.25030977 -3 23 C-2.67 21.68 -2.34 20.36 -2 19 C-3.19625 18.7525 -4.3925 18.505 -5.625 18.25 C-9.69440649 17.23806944 -12.67029781 15.59879196 -16 13 C-17.462958 10.074084 -17.44523109 8.24382653 -17 5 C-12.39743999 -0.72210163 -7.08540648 -1.35677996 0 0 Z " fill="#242122" transform="translate(49,25)"/>
<path d="M0 0 C3.0625 1.125 3.0625 1.125 5 3 C5.8125 6.1875 5.8125 6.1875 6 9 C3.1875 9.6875 3.1875 9.6875 0 10 C-1.5625 8.5625 -1.5625 8.5625 -3 7 C-5.62570704 6.74930087 -5.62570704 6.74930087 -8 7 C-8 7.66 -8 8.32 -8 9 C-8.66 9 -9.32 9 -10 9 C-9.88557539 10.60495567 -9.75805306 12.20898119 -9.625 13.8125 C-9.55539063 14.70582031 -9.48578125 15.59914063 -9.4140625 16.51953125 C-9.13354964 19.24398499 -9.13354964 19.24398499 -7 22 C-4.43717258 22.72965366 -4.43717258 22.72965366 -2 23 C-1.34 21.35 -0.68 19.7 0 18 C1.98 18.33 3.96 18.66 6 19 C6.75 20.6875 6.75 20.6875 7 23 C4.91882331 26.12176503 3.13348366 27.91101089 0 30 C-3.39148063 30.54608586 -6.60724838 30.53741186 -10 30 C-12.9375 27.75 -12.9375 27.75 -15 25 C-15.5259375 24.41347656 -16.051875 23.82695313 -16.59375 23.22265625 C-19.4525315 18.70419326 -18.78948371 13.1161031 -18 8 C-13.78436642 0.17464958 -8.34341982 -0.70840357 0 0 Z " fill="#252223" transform="translate(195,25)"/>
<path d="M0 0 C7.92 0 15.84 0 24 0 C24 2.31 24 4.62 24 7 C21.36 7 18.72 7 16 7 C16 14.59 16 22.18 16 30 C13.36 30 10.72 30 8 30 C8 22.41 8 14.82 8 7 C5.36 7 2.72 7 0 7 C0 4.69 0 2.38 0 0 Z " fill="#252223" transform="translate(127,25)"/>
<path d="M0 0 C2.97 0 5.94 0 9 0 C9 9.9 9 19.8 9 30 C6.03 30 3.06 30 0 30 C0 20.1 0 10.2 0 0 Z " fill="#3F3D3D" transform="translate(58,25)"/>
<path d="M0 0 C0.66 0 1.32 0 2 0 C2 2.31 2 4.62 2 7 C3.98 7 5.96 7 8 7 C8 4.69 8 2.38 8 0 C8.66 0 9.32 0 10 0 C11.59492803 3.18985607 11.37616681 6.52932887 11 10 C9.9375 12 9.9375 12 8 13 C4.5 13.4375 4.5 13.4375 1 13 C-1.675255 10.75623774 -1.95868973 9.40484065 -2.3125 5.9375 C-2 3 -2 3 0 0 Z " fill="#FCF5F2" transform="translate(107,33)"/>
<path d="M0 0 C1.65 0 3.3 0 5 0 C5 6.93 5 13.86 5 21 C3.35 21 1.7 21 0 21 C0 14.07 0 7.14 0 0 Z " fill="#EE5119" transform="translate(109,18)"/>
<path d="M0 0 C0.99 0 1.98 0 3 0 C3 8.58 3 17.16 3 26 C2.01 26 1.02 26 0 26 C0 17.42 0 8.84 0 0 Z " fill="#272223" transform="translate(61,27)"/>
<path d="M0 0 C9.89523434 -0.77983458 9.89523434 -0.77983458 14.1875 2.25 C16 5 16 5 16 9 C13.36 9 10.72 9 8 9 C7.71125 8.21625 7.4225 7.4325 7.125 6.625 C5.51781271 2.87489633 3.58162431 1.67142468 0 0 Z " fill="#2A2728" transform="translate(38,25)"/>
<path d="M0 0 C-0.33 1.65 -0.66 3.3 -1 5 C-2.65 5 -4.3 5 -6 5 C-6.66 3.68 -7.32 2.36 -8 1 C-10.31 1 -12.62 1 -15 1 C-15.33 2.32 -15.66 3.64 -16 5 C-16 3.35 -16 1.7 -16 0 C-9.74066138 -2.01193027 -6.25933862 -2.01193027 0 0 Z " fill="#D8D7D7" transform="translate(47,44)"/>
<path d="M0 0 C3.27960333 2.41654983 5.50718148 4.18501935 7 8 C7.1953125 10.359375 7.1953125 10.359375 7.125 12.75 C7.10695313 13.54921875 7.08890625 14.3484375 7.0703125 15.171875 C7.03550781 16.07679687 7.03550781 16.07679687 7 17 C6.67 17 6.34 17 6 17 C5.67 14.69 5.34 12.38 5 10 C3.68 10.33 2.36 10.66 1 11 C-1.30441554 7.54337669 -1.25860135 6.05142119 -1 2 C-0.67 1.34 -0.34 0.68 0 0 Z " fill="#EE6735" transform="translate(119,26)"/>
<path d="M0 0 C2.13586678 3.20380017 2.23132175 4.01939967 2.125 7.6875 C2.10695313 8.49574219 2.08890625 9.30398437 2.0703125 10.13671875 C2.03550781 11.05904297 2.03550781 11.05904297 2 12 C1.34 12 0.68 12 0 12 C0 10.68 0 9.36 0 8 C-1.32 8.33 -2.64 8.66 -4 9 C-4 7.02 -4 5.04 -4 3 C-2.68 3.33 -1.36 3.66 0 4 C0 2.68 0 1.36 0 0 Z " fill="#ED501A" transform="translate(123,33)"/>
<path d="M0 0 C1.9375 0.3125 1.9375 0.3125 4 1 C4.33 1.99 4.66 2.98 5 4 C6.65 4 8.3 4 10 4 C8.4375 5.125 8.4375 5.125 6 6 C2.25 5.125 2.25 5.125 -1 4 C-0.67 2.68 -0.34 1.36 0 0 Z " fill="#E3E3E3" transform="translate(41,30)"/>
<path d="M0 0 C0.4125 0.474375 0.825 0.94875 1.25 1.4375 C3.182185 3.16266518 4.48192275 3.56584875 7 4 C7 3.01 7 2.02 7 1 C7.66 1 8.32 1 9 1 C9 2.32 9 3.64 9 5 C6.36 5 3.72 5 1 5 C0.34 3.68 -0.32 2.36 -1 1 C-0.67 0.67 -0.34 0.34 0 0 Z " fill="#413F40" transform="translate(45,29)"/>
<path d="M0 0 C0.66 0 1.32 0 2 0 C2 2.31 2 4.62 2 7 C1.34 6.34 0.68 5.68 0 5 C-0.66 6.32 -1.32 7.64 -2 9 C-2.25 3.375 -2.25 3.375 0 0 Z " fill="#F7D2C4" transform="translate(107,33)"/>
</svg>
