<?xml version="1.0" encoding="UTF-8"?>
<svg version="1.1" xmlns="http://www.w3.org/2000/svg" width="559" height="131">
<path d="M0 0 C184.47 0 368.94 0 559 0 C559 43.23 559 86.46 559 131 C374.53 131 190.06 131 0 131 C0 87.77 0 44.54 0 0 Z " fill="#FEFDFD" transform="translate(0,0)"/>
<path d="M0 0 C8.34546349 -0.35030262 16.68777459 -0.61538587 25.03881168 -0.77718258 C28.91860178 -0.85491612 32.79330529 -0.95993981 36.67016602 -1.1315918 C65.17058582 -2.36103133 65.17058582 -2.36103133 73.48851013 5.21324158 C75.81921758 7.76338425 77.89923899 10.37450478 79.82159424 13.24455261 C81.33931987 15.50547799 83.10635498 17.48918759 84.9375 19.5 C85.43765625 20.09425781 85.9378125 20.68851563 86.453125 21.30078125 C88.83371741 23.91582594 91.53137188 26.13192792 94.2265625 28.4140625 C96.44462971 30.3976204 98.15089701 32.67370914 100 35 C101.10862378 35.97723134 102.23542555 36.93404419 103.375 37.875 C105.82768337 39.91109172 107.91517496 41.97434116 109.9375 44.4375 C112.05824339 47.00707797 114.26388924 49.16683165 116.8125 51.3125 C121.68597918 55.44128894 125.8170246 60.18764173 130 65 C124.83714826 71.29109731 119.15243609 77.03372472 113.40332031 82.78198242 C111.73473007 84.45279023 110.07433852 86.13148172 108.4140625 87.81054688 C107.35465512 88.87288317 106.29477658 89.93474985 105.234375 90.99609375 C104.73854919 91.49910507 104.24272339 92.00211639 103.73187256 92.52037048 C100.22886363 96 100.22886363 96 98 96 C97.91903197 94.54257537 97.86082226 93.08387193 97.8125 91.625 C97.76029297 90.40683594 97.76029297 90.40683594 97.70703125 89.1640625 C97.80371094 88.44992188 97.90039062 87.73578125 98 87 C98.99 86.34 99.98 85.68 101 85 C101.33 85.99 101.66 86.98 102 88 C108.27 81.73 114.54 75.46 121 69 C114.61579192 73.21631938 114.61579192 73.21631938 108.5625 77.875 C106 80 106 80 104 80 C103.67 79.34 103.34 78.68 103 78 C102.54625 78.495 102.0925 78.99 101.625 79.5 C100 81 100 81 98 81 C98 70.44 98 59.88 98 49 C99.65 50.32 101.3 51.64 103 53 C103.66 52.01 104.32 51.02 105 50 C110.28 53.96 115.56 57.92 121 62 C118.46199693 58.82749617 116.16788243 56.04574551 113.328125 53.23046875 C112.66425781 52.56982422 112.00039062 51.90917969 111.31640625 51.22851562 C110.63449219 50.55498047 109.95257813 49.88144531 109.25 49.1875 C108.55261719 48.49462891 107.85523437 47.80175781 107.13671875 47.08789062 C105.42673845 45.38962252 103.71445866 43.69374494 102 42 C101.34 42.99 100.68 43.98 100 45 C98.515 44.01 98.515 44.01 97 43 C96.58605305 39.63323148 96.86912433 36.40276745 97 33 C93.7 33 90.4 33 87 33 C86.01 31.02 86.01 31.02 85 29 C85.99 28.67 86.98 28.34 88 28 C78.595 18.595 78.595 18.595 69 9 C72.60651065 14.40976597 76.19542636 19.74073644 80 25 C78.515 25.495 78.515 25.495 77 26 C78.65 28.31 80.3 30.62 82 33 C70.78 33 59.56 33 48 33 C49.65 31.02 51.3 29.04 53 27 C52.01 26.34 51.02 25.68 50 25 C50.83144531 23.87851562 50.83144531 23.87851562 51.6796875 22.734375 C52.40414062 21.74953125 53.12859375 20.7646875 53.875 19.75 C54.59429687 18.77546875 55.31359375 17.8009375 56.0546875 16.796875 C58.1716633 13.89596447 58.1716633 13.89596447 60 10 C54.06 15.94 48.12 21.88 42 28 C42.99 28.33 43.98 28.66 45 29 C45 29.66 45 30.32 45 31 C44.34 31 43.68 31 43 31 C43 31.66 43 32.32 43 33 C39.7 33 36.4 33 33 33 C33 36.3 33 39.6 33 43 C31.68 43.66 30.36 44.32 29 45 C28.67 44.01 28.34 43.02 28 42 C21.07 48.93 14.14 55.86 7 63 C9.64 61.02 12.28 59.04 15 57 C16.82589917 55.69784559 18.65794826 54.4042026 20.5 53.125 C21.3559375 52.52945313 22.211875 51.93390625 23.09375 51.3203125 C23.7228125 50.88460937 24.351875 50.44890625 25 50 C25.66 50.99 26.32 51.98 27 53 C28.98 51.35 30.96 49.7 33 48 C33 59.22 33 70.44 33 82 C32.01 82 31.02 82 30 82 C28.3125 80 28.3125 80 27 78 C26.67 78.66 26.34 79.32 26 80 C22.19866558 78.32076975 19.02917298 75.88537166 15.75 73.375 C15.19570312 72.95476562 14.64140625 72.53453125 14.0703125 72.1015625 C12.71133337 71.07061281 11.35536165 70.03570089 10 69 C9.88612572 70.28136427 9.88612572 70.28136427 11.65234375 71.76586914 C12.40644531 72.51473389 13.16054687 73.26359863 13.9375 74.03515625 C15.15566406 75.24848633 15.15566406 75.24848633 16.3984375 76.48632812 C17.25695312 77.33646484 18.11546875 78.18660156 19 79.0625 C19.85851562 79.91650391 20.71703125 80.77050781 21.6015625 81.65039062 C23.7321724 83.7691638 25.86507372 85.88557759 28 88 C28.66 87.01 29.32 86.02 30 85 C32 87 32 87 32.1953125 89.1640625 C32.17210937 89.97617188 32.14890625 90.78828125 32.125 91.625 C32.10695312 92.44226563 32.08890625 93.25953125 32.0703125 94.1015625 C32.04710937 94.72804688 32.02390625 95.35453125 32 96 C19.03398881 89.89460663 5.32032932 79.687132 0 66 C-4.49137826 44.83768242 -1.73843811 21.37991671 0 0 Z " fill="#E3443A" transform="translate(0,0)"/>
<path d="M0 0 C19.14 0 38.28 0 58 0 C58 19.14 58 38.28 58 58 C38.86 58 19.72 58 0 58 C0 38.86 0 19.72 0 0 Z " fill="#DC4B43" transform="translate(36,36)"/>
<path d="M0 0 C0 3.28247431 -0.33076673 3.82566967 -2.1875 6.35546875 C-2.63867188 6.97744141 -3.08984375 7.59941406 -3.5546875 8.24023438 C-4.27011719 9.20413086 -4.27011719 9.20413086 -5 10.1875 C-5.71542969 11.16879883 -5.71542969 11.16879883 -6.4453125 12.16992188 C-7.62389275 13.78457682 -8.81113182 15.39290497 -10 17 C-9.01 17.66 -8.02 18.32 -7 19 C-9.475 21.475 -9.475 21.475 -12 24 C-1.44 24 9.12 24 20 24 C18.68 22.68 17.36 21.36 16 20 C16 19.34 16 18.68 16 18 C16.99 17.505 16.99 17.505 18 17 C14.37 12.05 10.74 7.1 7 2 C7.33 1.34 7.66 0.68 8 0 C14.6 6.6 21.2 13.2 28 20 C27.01 20.66 26.02 21.32 25 22 C25.495 23.485 25.495 23.485 26 25 C29.3 25 32.6 25 36 25 C36 28.3 36 31.6 36 35 C37.485 35.495 37.485 35.495 39 36 C39.66 35.01 40.32 34.02 41 33 C47.93 39.93 54.86 46.86 62 54 C58.6181337 54 58.03299589 53.55473195 55.42578125 51.59375 C54.75869141 51.09746094 54.09160156 50.60117187 53.40429688 50.08984375 C52.71400391 49.56519531 52.02371094 49.04054687 51.3125 48.5 C50.61060547 47.97535156 49.90871094 47.45070312 49.18554688 46.91015625 C47.45225218 45.61313301 45.72549285 44.3073845 44 43 C43.34 43.99 42.68 44.98 42 46 C40.68 44.68 39.36 43.36 38 42 C37.67 52.23 37.34 62.46 37 73 C38.98 71.68 40.96 70.36 43 69 C43 69.99 43 70.98 43 72 C48.28 68.04 53.56 64.08 59 60 C59.66 60.33 60.32 60.66 61 61 C54.4 67.6 47.8 74.2 41 81 C40.34 80.01 39.68 79.02 39 78 C38.67 78.33 38.34 78.66 38 79 C38.1186499 80.51765652 38.25059721 82.03428027 38.38867188 83.55029297 C38.41873125 87.83461001 37.80468727 89.94013862 34.97070312 93.16455078 C33.59962855 94.53405791 32.20137117 95.87673328 30.78125 97.1953125 C30.04878052 97.91363251 29.31631104 98.63195251 28.56164551 99.37203979 C26.23027703 101.64769109 23.8665394 103.88600441 21.5 106.125 C19.9078836 107.66692766 18.31801204 109.21117684 16.73046875 110.7578125 C12.84590127 114.5324755 8.9341913 118.27712342 5 122 C2.12263478 120.68805696 -0.0132762 119.26392367 -2.29980469 117.0859375 C-2.92014587 116.49772217 -3.54048706 115.90950684 -4.17962646 115.3034668 C-6.97712765 112.59552748 -9.77033117 109.88375233 -12.54638672 107.15380859 C-14.01200579 105.72131452 -15.48827547 104.29963466 -16.97509766 102.88916016 C-19.12811722 100.8460129 -21.24602125 98.77155999 -23.359375 96.6875 C-24.02491394 96.0672998 -24.69045288 95.44709961 -25.37615967 94.80810547 C-28.09188072 92.066913 -29.82822279 90.2320184 -30.37219238 86.33056641 C-30.35253906 83.58203125 -30.35253906 83.58203125 -30.13580322 81.01489258 C-30.09098816 80.34997803 -30.0461731 79.68506348 -30 79 C-30.495 78.505 -30.495 78.505 -31 78 C-31.66 78.99 -32.32 79.98 -33 81 C-39.93 74.07 -46.86 67.14 -54 60 C-50.52309251 60 -49.88707948 60.56672296 -47.20703125 62.625 C-46.49482422 63.16640625 -45.78261719 63.7078125 -45.04882812 64.265625 C-43.9418457 65.12414062 -43.9418457 65.12414062 -42.8125 66 C-41.68811523 66.85851562 -41.68811523 66.85851562 -40.54101562 67.734375 C-38.68900765 69.14992249 -36.84236451 70.57193804 -35 72 C-34.505 70.515 -34.505 70.515 -34 69 C-32.5 70.375 -32.5 70.375 -31 72 C-31 72.66 -31 73.32 -31 74 C-30.01 74 -29.02 74 -28 74 C-28.33 63.11 -28.66 52.22 -29 41 C-31.97 43.475 -31.97 43.475 -35 46 C-35.33 45.01 -35.66 44.02 -36 43 C-36.46897705 43.36351562 -36.9379541 43.72703125 -37.42114258 44.1015625 C-39.54592619 45.74187547 -41.67902941 47.3710044 -43.8125 49 C-44.55048828 49.57234375 -45.28847656 50.1446875 -46.04882812 50.734375 C-46.76103516 51.27578125 -47.47324219 51.8171875 -48.20703125 52.375 C-48.8616333 52.87773438 -49.51623535 53.38046875 -50.19067383 53.8984375 C-52 55 -52 55 -55 55 C-47.74 47.74 -40.48 40.48 -33 33 C-32.34 33.99 -31.68 34.98 -31 36 C-29.515 35.505 -29.515 35.505 -28 35 C-28 31.7 -28 28.4 -28 25 C-24.7 25 -21.4 25 -18 25 C-18 24.34 -18 23.68 -18 23 C-17.34 23 -16.68 23 -16 23 C-16 22.34 -16 21.68 -16 21 C-17.32 20.67 -18.64 20.34 -20 20 C-13.4 13.4 -6.8 6.8 0 0 Z M-25 28 C-25 47.14 -25 66.28 -25 86 C-5.86 86 13.28 86 33 86 C33 66.86 33 47.72 33 28 C13.86 28 -5.28 28 -25 28 Z " fill="#FEF1EF" transform="translate(61,8)"/>
<path d="M0 0 C4.52634704 3.87972604 8.84613538 7.7030098 13.02709961 11.91357422 C13.58407532 12.4704039 14.14105103 13.02723358 14.71490479 13.60093689 C16.52976899 15.41649 18.34107911 17.23554394 20.15234375 19.0546875 C21.42007374 20.32428531 22.68802673 21.59366048 23.95619202 22.86282349 C27.27424776 26.18467574 30.58928789 29.50952133 33.90368652 32.83502197 C37.29398355 36.23559509 40.68715506 39.63329737 44.08007812 43.03125 C50.72285162 49.68471019 57.36243946 56.34133959 64 63 C66.71971639 61.67941569 68.95840438 60.35410531 71.25 58.375 C72.1575 57.59125 73.065 56.8075 74 56 C72.4261537 59.86307728 70.17844983 62.32208753 67 65 C63.85514832 65.60127258 63.85514832 65.60127258 60.28198242 65.56762695 C59.62776306 65.56835709 58.9735437 65.56908722 58.29949951 65.56983948 C56.150627 65.56637338 54.00395944 65.52756664 51.85546875 65.48828125 C50.36047042 65.47894945 48.86545674 65.47183507 47.37043762 65.46684265 C43.44586571 65.44780118 39.52222702 65.39872681 35.59802246 65.34332275 C30.88415054 65.28304764 26.16996561 65.26020026 21.45581818 65.23105621 C14.30323082 65.18265801 7.15268884 65.08682789 0 65 C0 43.55 0 22.1 0 0 Z " fill="#FEFDFD" transform="translate(0,66)"/>
<path d="M0 0 C21.12 0 42.24 0 64 0 C62.93012423 3.20962732 62.41610306 3.69905837 59.875 5.6875 C56.4049956 8.54598723 53.54802876 11.68958293 50.6328125 15.1015625 C44.98076923 21.67307692 44.98076923 21.67307692 41 23 C40.67 23.66 40.34 24.32 40 25 C39.67 25.66 39.34 26.32 39 27 C38.01 27.33 37.02 27.66 36 28 C35.505 29.485 35.505 29.485 35 31 C33.37933218 32.71142963 31.70234112 34.36978827 30 36 C28.96132631 37.04272946 27.92608763 38.08888866 26.89379883 39.13793945 C23.85714527 42.20999316 20.8145621 45.27609602 17.76977539 48.34008789 C16.45778332 49.66222634 15.14757883 50.98614091 13.83911133 52.31176758 C11.94556231 54.22944426 10.04574188 56.14070408 8.14453125 58.05078125 C7.55807327 58.6475618 6.9716153 59.24434235 6.36738586 59.85920715 C4.94905011 61.27793655 3.47895971 62.64458583 2 64 C1.34 64 0.68 64 0 64 C0 42.88 0 21.76 0 0 Z " fill="#FEFCFC" transform="translate(0,0)"/>
<path d="M0 0 C4.62 0 9.24 0 14 0 C16.97 7.26 19.94 14.52 23 22 C23.33 14.74 23.66 7.48 24 0 C28.95 0 33.9 0 39 0 C39 19.14 39 38.28 39 58 C34.38 58 29.76 58 25 58 C22.03 50.74 19.06 43.48 16 36 C15.67 43.26 15.34 50.52 15 58 C10.05 58 5.1 58 0 58 C0 38.86 0 19.72 0 0 Z " fill="#E93A30" transform="translate(396,36)"/>
<path d="M0 0 C4.95 0 9.9 0 15 0 C15 19.14 15 38.28 15 58 C10.38 58 5.76 58 1 58 C-0.48063732 54.56312669 -1.95957006 51.12553732 -3.4375 47.6875 C-4.06881836 46.22280273 -4.06881836 46.22280273 -4.71289062 44.72851562 C-5.11572266 43.79072266 -5.51855469 42.85292969 -5.93359375 41.88671875 C-6.4913147 40.59060669 -6.4913147 40.59060669 -7.06030273 39.26831055 C-7.77652302 37.53944521 -8.40822751 35.77531748 -9 34 C-9.33 41.92 -9.66 49.84 -10 58 C-14.62 58 -19.24 58 -24 58 C-24 39.19 -24 20.38 -24 1 C-19.38 1 -14.76 1 -10 1 C-8.68613472 4.10359521 -7.3738531 7.20784352 -6.0625 10.3125 C-5.50272461 11.63411133 -5.50272461 11.63411133 -4.93164062 12.98242188 C-4.39506836 14.25375977 -4.39506836 14.25375977 -3.84765625 15.55078125 C-3.51773682 16.33106689 -3.18781738 17.11135254 -2.84790039 17.9152832 C-2.16847889 19.58576412 -1.57027363 21.28917912 -1 23 C-0.67 15.41 -0.34 7.82 0 0 Z " fill="#EA372D" transform="translate(544,36)"/>
<path d="M0 0 C5.28 0 10.56 0 16 0 C16.02505615 1.32241699 16.0501123 2.64483398 16.07592773 4.00732422 C16.16991165 8.90130754 16.27015418 13.79514593 16.37231445 18.68896484 C16.41569752 20.80937313 16.45737007 22.92981712 16.49731445 25.05029297 C16.55493543 28.09353408 16.61865325 31.1365949 16.68359375 34.1796875 C16.70030624 35.13181122 16.71701874 36.08393494 16.73423767 37.06491089 C16.75418289 37.94567291 16.77412811 38.82643494 16.79467773 39.73388672 C16.81799416 40.89970779 16.81799416 40.89970779 16.84178162 42.08908081 C16.88783251 44.08556935 16.88783251 44.08556935 18 46 C19.66611905 46.042721 21.33382885 46.04063832 23 46 C24.55658482 44.44341518 24.16309399 42.92132264 24.20532227 40.75561523 C24.22526749 39.85475693 24.24521271 38.95389862 24.26576233 38.02574158 C24.28247482 37.04658279 24.29918732 36.06742401 24.31640625 35.05859375 C24.33718735 34.06118668 24.35796844 33.0637796 24.37937927 32.03614807 C24.44498637 28.83667157 24.50381134 25.63711018 24.5625 22.4375 C24.60567462 20.27407961 24.64928855 18.11066794 24.69335938 15.94726562 C24.80067909 10.63159836 24.90191469 5.31584536 25 0 C30.28 0 35.56 0 41 0 C41.07419865 6.88677618 41.12862581 13.77331927 41.16479492 20.66040039 C41.17987428 23.00288954 41.20034078 25.3453505 41.22631836 27.68774414 C41.26273821 31.05622317 41.27973513 34.42432864 41.29296875 37.79296875 C41.30845261 38.83897751 41.32393646 39.88498627 41.33988953 40.96269226 C41.34198476 50.03036077 41.34198476 50.03036077 38 54 C31.57483616 59.91791407 25.94734563 60.39714161 17.453125 60.24609375 C11.53250911 59.82414941 7.10328572 58.58868887 3.0625 54 C0.46496122 50.22176178 -0.12525845 47.72346863 -0.11352539 43.25317383 C-0.11344986 42.29240433 -0.11337433 41.33163483 -0.11329651 40.3417511 C-0.10813522 39.30729355 -0.10297394 38.272836 -0.09765625 37.20703125 C-0.0962413 36.14586594 -0.09482635 35.08470062 -0.09336853 33.99137878 C-0.08776606 30.59839065 -0.07521314 27.20546823 -0.0625 23.8125 C-0.05748532 21.51367283 -0.05292236 19.21484462 -0.04882812 16.91601562 C-0.03779583 11.27731838 -0.02052952 5.63867034 0 0 Z " fill="#EC362B" transform="translate(350,36)"/>
<path d="M0 0 C5.28 0 10.56 0 16 0 C16.33 6.27 16.66 12.54 17 19 C17.56589844 17.71222656 18.13179688 16.42445312 18.71484375 15.09765625 C19.4556074 13.41921709 20.19649945 11.74083459 20.9375 10.0625 C21.31068359 9.21236328 21.68386719 8.36222656 22.06835938 7.48632812 C22.42607422 6.67744141 22.78378906 5.86855469 23.15234375 5.03515625 C23.48226318 4.2862915 23.81218262 3.53742676 24.15209961 2.76586914 C25 1 25 1 26 0 C28.69654854 -0.07319621 31.36691458 -0.09242537 34.0625 -0.0625 C34.82111328 -0.05798828 35.57972656 -0.05347656 36.36132812 -0.04882812 C38.24091871 -0.0370068 40.12046899 -0.01907078 42 0 C39.78590478 7.17981167 36.88458995 13.84923578 33.609375 20.6015625 C33.0834375 21.73464844 33.0834375 21.73464844 32.546875 22.890625 C32.22557617 23.56125977 31.90427734 24.23189453 31.57324219 24.92285156 C30.29127689 29.56806484 32.61847201 33.72224111 34.50390625 37.921875 C34.99697266 39.02917969 35.49003906 40.13648438 35.99804688 41.27734375 C36.51431641 42.42332031 37.03058594 43.56929687 37.5625 44.75 C38.58615355 47.03577906 39.60837211 49.32220151 40.62890625 51.609375 C41.08338135 52.61967773 41.53785645 53.62998047 42.00610352 54.67089844 C43 57 43 57 43 58 C37.39 58 31.78 58 26 58 C24.88625 55.793125 23.7725 53.58625 22.625 51.3125 C22.27775879 50.62712158 21.93051758 49.94174316 21.57275391 49.2355957 C19.87569589 45.85665821 18.40807872 42.5201968 17 39 C16.67 45.27 16.34 51.54 16 58 C10.72 58 5.44 58 0 58 C0 38.86 0 19.72 0 0 Z " fill="#E9392F" transform="translate(440,36)"/>
<path d="M0 0 C10.23 0 20.46 0 31 0 C31 4.95 31 9.9 31 15 C26.05 15 21.1 15 16 15 C16 17.64 16 20.28 16 23 C20.95 23 25.9 23 31 23 C31 27.29 31 31.58 31 36 C26.05 36 21.1 36 16 36 C16 38.31 16 40.62 16 43 C20.95 43 25.9 43 31 43 C31 47.95 31 52.9 31 58 C20.77 58 10.54 58 0 58 C0 38.86 0 19.72 0 0 Z " fill="#EC352B" transform="translate(484,36)"/>
<path d="M0 0 C10.23 0 20.46 0 31 0 C31 4.95 31 9.9 31 15 C26.05 15 21.1 15 16 15 C16 17.64 16 20.28 16 23 C20.95 23 25.9 23 31 23 C31 27.29 31 31.58 31 36 C26.05 36 21.1 36 16 36 C16 38.31 16 40.62 16 43 C20.95 43 25.9 43 31 43 C31 47.95 31 52.9 31 58 C20.77 58 10.54 58 0 58 C0 38.86 0 19.72 0 0 Z " fill="#EB362B" transform="translate(212,36)"/>
<path d="M0 0 C9.9 0 19.8 0 30 0 C30 4.62 30 9.24 30 14 C25.38 14 20.76 14 16 14 C16 16.64 16 19.28 16 22 C20.62 22 25.24 22 30 22 C30 26.29 30 30.58 30 35 C25.38 35 20.76 35 16 35 C16 37.64 16 40.28 16 43 C20.62 43 25.24 43 30 43 C30 47.62 30 52.24 30 57 C20.1 57 10.2 57 0 57 C0 38.19 0 19.38 0 0 Z " fill="#E9372D" transform="translate(280,37)"/>
<path d="M0 0 C0.05398987 2.27057377 0.09278742 4.54151288 0.125 6.8125 C0.14820313 8.07707031 0.17140625 9.34164062 0.1953125 10.64453125 C0 14 0 14 -2 17 C-1.67 17.33 -1.34 17.66 -1 18 C-0.8997907 20.27947792 -0.86918697 22.56207135 -0.8671875 24.84375 C-0.86623077 25.52804077 -0.86527405 26.21233154 -0.86428833 26.9173584 C-0.8636067 28.36661877 -0.86545977 29.81588218 -0.86962891 31.26513672 C-0.87497748 33.49062928 -0.8696834 35.71592001 -0.86328125 37.94140625 C-0.86394203 39.34635461 -0.8652232 40.75130285 -0.8671875 42.15625 C-0.86831543 43.44337891 -0.86944336 44.73050781 -0.87060547 46.05664062 C-1 49 -1 49 -2 50 C-4.33333333 50 -6.66666667 50 -9 50 C-9.99 50.495 -9.99 50.495 -11 51 C-14.0625 51.125 -14.0625 51.125 -17 51 C-18.67725725 49.32274275 -18.13188219 47.27153584 -18.13867188 45.03320312 C-18.13416016 44.34162109 -18.12964844 43.65003906 -18.125 42.9375 C-18.12306641 42.23173828 -18.12113281 41.52597656 -18.11914062 40.79882812 C-18.05851072 33.17966951 -17.56565306 25.59591248 -17 18 C-17.99 17.67 -18.98 17.34 -20 17 C-19.94779297 18.33804688 -19.94779297 18.33804688 -19.89453125 19.703125 C-19.86746094 20.87359375 -19.84039062 22.0440625 -19.8125 23.25 C-19.76029297 24.99023438 -19.76029297 24.99023438 -19.70703125 26.765625 C-20.02017066 30.22268407 -20.65709108 31.51565563 -23 34 C-22.01 34 -21.02 34 -20 34 C-19.97315321 36.64590014 -19.95323643 39.29153096 -19.9375 41.9375 C-19.92912109 42.69224609 -19.92074219 43.44699219 -19.91210938 44.22460938 C-19.90347559 46.14994313 -19.94775667 48.07535581 -20 50 C-21 51 -21 51 -23.28515625 51.09765625 C-24.65994141 51.08025391 -24.65994141 51.08025391 -26.0625 51.0625 C-26.98160156 51.05347656 -27.90070312 51.04445312 -28.84765625 51.03515625 C-29.55792969 51.02355469 -30.26820312 51.01195312 -31 51 C-30.93039063 49.12054688 -30.93039063 49.12054688 -30.859375 47.203125 C-30.82185187 45.55210719 -30.78545229 43.90106358 -30.75 42.25 C-30.71648438 41.425 -30.68296875 40.6 -30.6484375 39.75 C-30.44273859 34.80483252 -30.44273859 34.80483252 -32.99609375 30.77734375 C-33.65738281 30.19082031 -34.31867187 29.60429688 -35 29 C-35.42578125 26.23828125 -35.42578125 26.23828125 -35.3125 23.3125 C-35.28800781 22.33925781 -35.26351562 21.36601563 -35.23828125 20.36328125 C-35 18 -35 18 -34 17 C-34.99 16.67 -35.98 16.34 -37 16 C-37 11.05 -37 6.1 -37 1 C-34.03 1 -31.06 1 -28 1 C-26.9634274 6.0347812 -26 10.84491073 -26 16 C-25.34 16 -24.68 16 -24 16 C-24.01160156 14.92878906 -24.02320312 13.85757813 -24.03515625 12.75390625 C-24.04453299 11.35677257 -24.05363331 9.95963701 -24.0625 8.5625 C-24.07506836 7.50192383 -24.07506836 7.50192383 -24.08789062 6.41992188 C-24.09653588 4.61306441 -24.05220011 2.80612397 -24 1 C-23 0 -23 0 -19.9375 -0.0625 C-18.4834375 -0.0315625 -18.4834375 -0.0315625 -17 0 C-17 3.63 -17 7.26 -17 11 C-15.68 11 -14.36 11 -13 11 C-13.04125 9.741875 -13.0825 8.48375 -13.125 7.1875 C-13.2390374 3.70935927 -13.05925681 3.08888522 -11 0 C-9.16015625 -0.546875 -9.16015625 -0.546875 -7.0625 -0.75 C-6.02802734 -0.86601563 -6.02802734 -0.86601563 -4.97265625 -0.984375 C-3 -1 -3 -1 0 0 Z " fill="#D6443A" transform="translate(91,40)"/>
<path d="M0 0 C10.23 0 20.46 0 31 0 C31 4.95 31 9.9 31 15 C26.05 15 21.1 15 16 15 C16 17.31 16 19.62 16 22 C20.95 22 25.9 22 31 22 C31 26.62 31 31.24 31 36 C26.05 36 21.1 36 16 36 C16 43.26 16 50.52 16 58 C10.72 58 5.44 58 0 58 C0 38.86 0 19.72 0 0 Z " fill="#EB3B32" transform="translate(316,36)"/>
<path d="M0 0 C13.2 0 26.4 0 40 0 C40 5.28 40 10.56 40 16 C36.04 16 32.08 16 28 16 C28 29.86 28 43.72 28 58 C22.72 58 17.44 58 12 58 C12 43.81 12 29.62 12 15 C8.04 15 4.08 15 0 15 C0 10.05 0 5.1 0 0 Z " fill="#EA362C" transform="translate(170,36)"/>
<path d="M0 0 C5.28 0 10.56 0 16 0 C16 14.19 16 28.38 16 43 C20.29 43 24.58 43 29 43 C29 47.95 29 52.9 29 58 C19.43 58 9.86 58 0 58 C0 38.86 0 19.72 0 0 Z " fill="#E93A30" transform="translate(248,36)"/>
<path d="M0 0 C18.15 0 36.3 0 55 0 C55 18.81 55 37.62 55 57 C36.19 57 17.38 57 -2 57 C-2 41.16 -2 25.32 -2 9 C-1.01 9 -0.02 9 1 9 C1.09796875 9.62648438 1.1959375 10.25296875 1.296875 10.8984375 C1.44640625 11.71570312 1.5959375 12.53296875 1.75 13.375 C1.88921875 14.18710937 2.0284375 14.99921875 2.171875 15.8359375 C2.81749261 18.17709092 2.81749261 18.17709092 5.078125 19.2890625 C5.71234375 19.52367188 6.3465625 19.75828125 7 20 C5.02 20.33 3.04 20.66 1 21 C1.02320313 21.80824219 1.04640625 22.61648437 1.0703125 23.44921875 C1.08835938 24.51785156 1.10640625 25.58648437 1.125 26.6875 C1.14820313 27.74324219 1.17140625 28.79898438 1.1953125 29.88671875 C0.99858729 33.02251859 0.33057654 35.17645373 -1 38 C-0.34 38 0.32 38 1 38 C1 42.95 1 47.9 1 53 C2.44375 52.835 3.8875 52.67 5.375 52.5 C10.59859435 51.97017829 15.75447549 51.89955379 21 52 C21 52.66 21 53.32 21 54 C25.95 53.505 25.95 53.505 31 53 C31.33 47.72 31.66 42.44 32 37 C31.01 37 30.02 37 29 37 C29.31710938 36.47921875 29.63421875 35.9584375 29.9609375 35.421875 C31.28920511 32.32591291 31.42364247 29.60595879 31.625 26.25 C31.69976562 25.07953125 31.77453125 23.9090625 31.8515625 22.703125 C31.90054688 21.81109375 31.94953125 20.9190625 32 20 C33.32 20.33 34.64 20.66 36 21 C35.9278125 21.969375 35.855625 22.93875 35.78125 23.9375 C35.09662052 33.64190937 34.88359186 43.27345357 35 53 C38.34252724 53.07427838 40.8035914 53.06546953 44 52 C45.98 52 47.96 52 50 52 C50 41.77 50 31.54 50 21 C48.68 20.34 47.36 19.68 46 19 C47.65 19 49.3 19 51 19 C51 13.72 51 8.44 51 3 C47.7 3.33 44.4 3.66 41 4 C40.34 7.3 39.68 10.6 39 14 C37.68 14 36.36 14 35 14 C35 10.37 35 6.74 35 3 C33.02 3.33 31.04 3.66 29 4 C28.67 8.95 28.34 13.9 28 19 C27.34 19 26.68 19 26 19 C25.0639658 15.20732808 25.01723748 12.06325435 25.4375 8.1875 C25.53933594 7.21167969 25.64117187 6.23585938 25.74609375 5.23046875 C25.82988281 4.49441406 25.91367188 3.75835937 26 3 C25.00097656 3.08378906 24.00195312 3.16757812 22.97265625 3.25390625 C21.68230469 3.35574219 20.39195313 3.45757812 19.0625 3.5625 C17.77472656 3.66691406 16.48695312 3.77132812 15.16015625 3.87890625 C14.11730469 3.91886719 13.07445312 3.95882812 12 4 C11.67 3.67 11.34 3.34 11 3 C8.98405418 2.76572222 6.961526 2.58663876 4.9375 2.4375 C3.83277344 2.35371094 2.72804688 2.26992188 1.58984375 2.18359375 C0.73519531 2.12300781 -0.11945312 2.06242187 -1 2 C-0.67 1.34 -0.34 0.68 0 0 Z " fill="#E5392E" transform="translate(39,37)"/>
<path d="M0 0 C0 3.28247431 -0.33076673 3.82566967 -2.1875 6.35546875 C-2.63867188 6.97744141 -3.08984375 7.59941406 -3.5546875 8.24023438 C-4.27011719 9.20413086 -4.27011719 9.20413086 -5 10.1875 C-5.71542969 11.16879883 -5.71542969 11.16879883 -6.4453125 12.16992188 C-7.62389275 13.78457682 -8.81113182 15.39290497 -10 17 C-9.01 17.66 -8.02 18.32 -7 19 C-9.475 21.475 -9.475 21.475 -12 24 C-1.44 24 9.12 24 20 24 C18.68 22.68 17.36 21.36 16 20 C16 19.34 16 18.68 16 18 C16.99 17.505 16.99 17.505 18 17 C14.37 12.05 10.74 7.1 7 2 C7.33 1.34 7.66 0.68 8 0 C14.6 6.6 21.2 13.2 28 20 C27.01 20.66 26.02 21.32 25 22 C25.495 23.485 25.495 23.485 26 25 C29.3 25 32.6 25 36 25 C35.67 27.97 35.34 30.94 35 34 C34.67 34 34.34 34 34 34 C33.67 32.35 33.34 30.7 33 29 C13.86 28.67 -5.28 28.34 -25 28 C-25 47.47 -25 66.94 -25 87 C-23.515 87.495 -23.515 87.495 -22 88 C-22 88.33 -22 88.66 -22 89 C-23.98 89 -25.96 89 -28 89 C-28.04898438 88.37351562 -28.09796875 87.74703125 -28.1484375 87.1015625 C-28.22320312 86.28429687 -28.29796875 85.46703125 -28.375 84.625 C-28.44460937 83.81289062 -28.51421875 83.00078125 -28.5859375 82.1640625 C-28.82892588 79.79665809 -28.82892588 79.79665809 -31 78 C-31.66 78.99 -32.32 79.98 -33 81 C-39.93 74.07 -46.86 67.14 -54 60 C-50.52309251 60 -49.88707948 60.56672296 -47.20703125 62.625 C-46.49482422 63.16640625 -45.78261719 63.7078125 -45.04882812 64.265625 C-43.9418457 65.12414062 -43.9418457 65.12414062 -42.8125 66 C-41.68811523 66.85851562 -41.68811523 66.85851562 -40.54101562 67.734375 C-38.68900765 69.14992249 -36.84236451 70.57193804 -35 72 C-34.505 70.515 -34.505 70.515 -34 69 C-32.5 70.375 -32.5 70.375 -31 72 C-31 72.66 -31 73.32 -31 74 C-30.01 74 -29.02 74 -28 74 C-28.33 63.11 -28.66 52.22 -29 41 C-31.97 43.475 -31.97 43.475 -35 46 C-35.33 45.01 -35.66 44.02 -36 43 C-36.46897705 43.36351562 -36.9379541 43.72703125 -37.42114258 44.1015625 C-39.54592619 45.74187547 -41.67902941 47.3710044 -43.8125 49 C-44.55048828 49.57234375 -45.28847656 50.1446875 -46.04882812 50.734375 C-46.76103516 51.27578125 -47.47324219 51.8171875 -48.20703125 52.375 C-48.8616333 52.87773438 -49.51623535 53.38046875 -50.19067383 53.8984375 C-52 55 -52 55 -55 55 C-47.74 47.74 -40.48 40.48 -33 33 C-32.34 33.99 -31.68 34.98 -31 36 C-29.515 35.505 -29.515 35.505 -28 35 C-28 31.7 -28 28.4 -28 25 C-24.7 25 -21.4 25 -18 25 C-18 24.34 -18 23.68 -18 23 C-17.34 23 -16.68 23 -16 23 C-16 22.34 -16 21.68 -16 21 C-17.32 20.67 -18.64 20.34 -20 20 C-13.4 13.4 -6.8 6.8 0 0 Z " fill="#FEF4F2" transform="translate(61,8)"/>
<path d="M0 0 C1.62418745 -0.08090971 3.24951745 -0.13914995 4.875 -0.1875 C5.77992187 -0.22230469 6.68484375 -0.25710937 7.6171875 -0.29296875 C8.79667969 -0.14794922 8.79667969 -0.14794922 10 0 C10.66 0.99 11.32 1.98 12 3 C11.01 3.33 10.02 3.66 9 4 C15.27 10.27 21.54 16.54 28 23 C23.78368062 16.61579192 23.78368062 16.61579192 19.125 10.5625 C17 8 17 8 17 6 C17.99 6 18.98 6 20 6 C18.68 4.02 17.36 2.04 16 0 C26.56 0 37.12 0 48 0 C46 4 46 4 45 5 C45.66 5.33 46.32 5.66 47 6 C45.32076975 9.80133442 42.88537166 12.97082702 40.375 16.25 C39.95476562 16.80429688 39.53453125 17.35859375 39.1015625 17.9296875 C38.07061281 19.28866663 37.03570089 20.64463835 36 22 C40.48680391 18.60272591 44.36973856 14.74554815 48.3125 10.75 C48.95767578 10.1003125 49.60285156 9.450625 50.26757812 8.78125 C51.8473635 7.18976251 53.42475329 5.59597783 55 4 C54.01 3.34 53.02 2.68 52 2 C54 0 54 0 56.3828125 -0.1953125 C57.28773437 -0.17210938 58.19265625 -0.14890625 59.125 -0.125 C60.03507812 -0.10695313 60.94515625 -0.08890625 61.8828125 -0.0703125 C62.58148438 -0.04710938 63.28015625 -0.02390625 64 0 C58.19316781 7.11905227 51.63714556 13.47374812 45.125 19.9375 C43.94768362 21.10979204 42.77059826 22.28231614 41.59375 23.45507812 C38.73182511 26.30606982 35.86678543 29.15389615 33 32 C30.14990552 30.70472808 28.09108181 29.34021432 25.88378906 27.12670898 C25.30348938 26.54948593 24.7231897 25.97226288 24.12530518 25.37754822 C23.51161072 24.75666824 22.89791626 24.13578827 22.265625 23.49609375 C21.62759949 22.85761002 20.98957397 22.21912628 20.33221436 21.56129456 C18.98846937 20.21453424 17.64714989 18.86535006 16.30810547 17.51391602 C14.24891577 15.43640613 12.181772 13.36707339 10.11328125 11.29882812 C8.80942164 9.99005558 7.50601999 8.68082659 6.203125 7.37109375 C5.58133362 6.74818954 4.95954224 6.12528534 4.31890869 5.48350525 C0 1.11605959 0 1.11605959 0 0 Z " fill="#E83A31" transform="translate(33,98)"/>
<path d="M0 0 C0.66 0 1.32 0 2 0 C2 19.14 2 38.28 2 58 C12.23 58 22.46 58 33 58 C33 58.33 33 58.66 33 59 C16.5 59 0 59 -17 59 C-16.67 58.34 -16.34 57.68 -16 57 C-10.72 57 -5.44 57 0 57 C-0.87785156 55.12054688 -1.75570313 53.24109375 -2.66015625 51.3046875 C-3.50184224 49.4682817 -4.34341791 47.63182314 -5.18188477 45.79394531 C-5.76520651 44.52283112 -6.3540134 43.25421865 -6.94848633 41.98828125 C-7.80444119 40.16300953 -8.63879927 38.32765968 -9.47265625 36.4921875 C-9.98062744 35.39245605 -10.48859863 34.29272461 -11.01196289 33.15966797 C-12.7783203 27.51099053 -10.91832906 23.34263454 -8.49609375 18.1640625 C-8.00302734 17.10058594 -7.50996094 16.03710938 -7.00195312 14.94140625 C-6.48568359 13.84699219 -5.96941406 12.75257812 -5.4375 11.625 C-4.65729492 9.94857422 -4.65729492 9.94857422 -3.86132812 8.23828125 C-2.58071341 5.48907168 -1.29343785 2.7431939 0 0 Z " fill="#FEF7F6" transform="translate(482,36)"/>
<path d="M0 0 C1.65 1.32 3.3 2.64 5 4 C5.66 3.01 6.32 2.02 7 1 C9.98792225 3.09194676 12.96369823 5.20053965 15.9375 7.3125 C16.78763672 7.90740234 17.63777344 8.50230469 18.51367188 9.11523438 C19.32255859 9.69208984 20.13144531 10.26894531 20.96484375 10.86328125 C21.7137085 11.39219971 22.46257324 11.92111816 23.23413086 12.46606445 C25 14 25 14 26 17 C23.04777314 19.34114526 20.08725012 21.67155454 17.125 24 C15.86236328 25.00160156 15.86236328 25.00160156 14.57421875 26.0234375 C13.36572266 26.97089844 13.36572266 26.97089844 12.1328125 27.9375 C11.38918457 28.52402344 10.64555664 29.11054687 9.87939453 29.71484375 C8 31 8 31 6 31 C5.67 30.34 5.34 29.68 5 29 C4.54625 29.495 4.0925 29.99 3.625 30.5 C2 32 2 32 0 32 C0 21.44 0 10.88 0 0 Z " fill="#EA392F" transform="translate(98,49)"/>
<path d="M0 0 C0.99 0.33 1.98 0.66 3 1 C3 1.66 3 2.32 3 3 C3.66 3 4.32 3 5 3 C5 3.66 5 4.32 5 5 C5.87398437 5.09087891 5.87398437 5.09087891 6.765625 5.18359375 C9.94981191 6.34704666 10.90824206 8.26444467 12.75 11.0625 C13.36359375 11.98160156 13.9771875 12.90070312 14.609375 13.84765625 C15.06828125 14.55792969 15.5271875 15.26820312 16 16 C15.01 16.33 14.02 16.66 13 17 C15.475 20.465 15.475 20.465 18 24 C6.78 24 -4.44 24 -16 24 C-14.35 22.02 -12.7 20.04 -11 18 C-11.99 17.34 -12.98 16.68 -14 16 C-12.9054851 14.34773231 -11.7990483 12.70335702 -10.6875 11.0625 C-9.76517578 9.68771484 -9.76517578 9.68771484 -8.82421875 8.28515625 C-7 6 -7 6 -4 5 C-2.61423077 3.37667033 -1.27358732 1.71275535 0 0 Z " fill="#EB372D" transform="translate(64,9)"/>
<path d="M0 0 C3.63 0 7.26 0 11 0 C11 2.97 11 5.94 11 9 C9.68 9 8.36 9 7 9 C7.66 11.31 8.32 13.62 9 16 C8.34 16 7.68 16 7 16 C7.33 16.66 7.66 17.32 8 18 C8.66 17.34 9.32 16.68 10 16 C12.625 15.875 12.625 15.875 15 16 C14.690625 16.5775 14.38125 17.155 14.0625 17.75 C13.711875 18.4925 13.36125 19.235 13 20 C12.566875 20.8971875 12.566875 20.8971875 12.125 21.8125 C11.91460132 25.49447691 14.06039191 27.94364785 16 31 C10.72 31.33 5.44 31.66 0 32 C0 27.05 0 22.1 0 17 C-0.66 17 -1.32 17 -2 17 C-1.34 11.39 -0.68 5.78 0 0 Z " fill="#E15046" transform="translate(40,58)"/>
<path d="M0 0 C0.33 0 0.66 0 1 0 C1 4.62 1 9.24 1 14 C2.65 14 4.3 14 6 14 C6 12.02 6 10.04 6 8 C6.8353125 9.2065625 6.8353125 9.2065625 7.6875 10.4375 C10.00525267 13.5180913 10.00525267 13.5180913 15 14 C15 9.38 15 4.76 15 0 C15.33 0 15.66 0 16 0 C16.02465504 4.39656173 16.04283842 8.7930872 16.05493164 13.18969727 C16.05997121 14.68644918 16.06680287 16.18319616 16.07543945 17.67993164 C16.08752159 19.82699807 16.09323191 21.97399962 16.09765625 24.12109375 C16.10551147 26.06133423 16.10551147 26.06133423 16.11352539 28.04077148 C16 31 16 31 15 32 C12.66666667 32 10.33333333 32 8 32 C7.01 32.495 7.01 32.495 6 33 C2.9375 33.125 2.9375 33.125 0 33 C-1.67725725 31.32274275 -1.13188219 29.27153584 -1.13867188 27.03320312 C-1.13416016 26.34162109 -1.12964844 25.65003906 -1.125 24.9375 C-1.12306641 24.23173828 -1.12113281 23.52597656 -1.11914062 22.79882812 C-1.05851072 15.17966951 -0.56565306 7.59591248 0 0 Z " fill="#D9544D" transform="translate(74,58)"/>
<path d="M0 0 C1.62418745 -0.08090971 3.24951745 -0.13914995 4.875 -0.1875 C5.77992187 -0.22230469 6.68484375 -0.25710937 7.6171875 -0.29296875 C8.79667969 -0.14794922 8.79667969 -0.14794922 10 0 C10.66 0.99 11.32 1.98 12 3 C11.01 3.33 10.02 3.66 9 4 C12.05009435 7.13731659 15.11709677 10.25756652 18.1875 13.375 C19.05181641 14.26445313 19.91613281 15.15390625 20.80664062 16.0703125 C22.06831055 17.34648438 22.06831055 17.34648438 23.35546875 18.6484375 C24.12528076 19.43395996 24.89509277 20.21948242 25.68823242 21.02880859 C28.05665861 23.0483115 30.06193783 24.03200736 33 25 C40.65164161 18.29634939 47.86532381 11.24500623 55 4 C54.01 3.34 53.02 2.68 52 2 C54 0 54 0 56.3828125 -0.1953125 C57.28773437 -0.17210938 58.19265625 -0.14890625 59.125 -0.125 C60.03507812 -0.10695313 60.94515625 -0.08890625 61.8828125 -0.0703125 C62.58148438 -0.04710938 63.28015625 -0.02390625 64 0 C58.19316781 7.11905227 51.63714556 13.47374812 45.125 19.9375 C43.94768362 21.10979204 42.77059826 22.28231614 41.59375 23.45507812 C38.73182511 26.30606982 35.86678543 29.15389615 33 32 C30.14990552 30.70472808 28.09108181 29.34021432 25.88378906 27.12670898 C25.30348938 26.54948593 24.7231897 25.97226288 24.12530518 25.37754822 C23.51161072 24.75666824 22.89791626 24.13578827 22.265625 23.49609375 C21.62759949 22.85761002 20.98957397 22.21912628 20.33221436 21.56129456 C18.98846937 20.21453424 17.64714989 18.86535006 16.30810547 17.51391602 C14.24891577 15.43640613 12.181772 13.36707339 10.11328125 11.29882812 C8.80942164 9.99005558 7.50601999 8.68082659 6.203125 7.37109375 C5.58133362 6.74818954 4.95954224 6.12528534 4.31890869 5.48350525 C0 1.11605959 0 1.11605959 0 0 Z " fill="#D84C43" transform="translate(33,98)"/>
<path d="M0 0 C0.66 0.33 1.32 0.66 2 1 C2.625 3.0625 2.625 3.0625 3 5 C3.33 3.35 3.66 1.7 4 0 C4.33 0 4.66 0 5 0 C5 19.14 5 38.28 5 58 C4.67 58 4.34 58 4 58 C4 47.44 4 36.88 4 26 C3.34 26 2.68 26 2 26 C2.01160156 26.71027344 2.02320313 27.42054687 2.03515625 28.15234375 C2.04417969 29.07144531 2.05320313 29.99054688 2.0625 30.9375 C2.07410156 31.85402344 2.08570313 32.77054688 2.09765625 33.71484375 C2 36 2 36 1 37 C-1.53049402 37.07313567 -4.03304837 37.09247527 -6.5625 37.0625 C-7.62887695 37.05573242 -7.62887695 37.05573242 -8.71679688 37.04882812 C-10.47790013 37.03700864 -12.23896036 37.01907263 -14 37 C-14 38.65 -14 40.3 -14 42 C-9.05 42 -4.1 42 1 42 C1 47.28 1 52.56 1 58 C0.67 58 0.34 58 0 58 C0 53.05 0 48.1 0 43 C-4.95 43 -9.9 43 -15 43 C-15 40.69 -15 38.38 -15 36 C-10.05 36 -5.1 36 0 36 C0 31.71 0 27.42 0 23 C-4.95 23 -9.9 23 -15 23 C-15 20.36 -15 17.72 -15 15 C-10.05 15 -5.1 15 0 15 C0 10.05 0 5.1 0 0 Z " fill="#FEE5E2" transform="translate(243,36)"/>
<path d="M0 0 C4.95 0 9.9 0 15 0 C15 0.33 15 0.66 15 1 C10.38 1 5.76 1 1 1 C1 19.81 1 38.62 1 58 C0.34 56.68 -0.32 55.36 -1 54 C-1.495 53.505 -1.495 53.505 -2 53 C-2.33 54.65 -2.66 56.3 -3 58 C-3.33 58 -3.66 58 -4 58 C-4 53.05 -4 48.1 -4 43 C-8.95 43 -13.9 43 -19 43 C-19 40.69 -19 38.38 -19 36 C-14.05 36 -9.1 36 -4 36 C-4 31.71 -4 27.42 -4 23 C-8.95 23 -13.9 23 -19 23 C-19 20.36 -19 17.72 -19 15 C-14.05 15 -9.1 15 -4 15 C-4 15.33 -4 15.66 -4 16 C-8.62 16 -13.24 16 -18 16 C-18 17.98 -18 19.96 -18 22 C-13.05 22 -8.1 22 -3 22 C-2.67 22.66 -2.34 23.32 -2 24 C-1.01356362 18.87716234 -0.69032947 13.82251071 -0.4375 8.625 C-0.39431641 7.79355469 -0.35113281 6.96210937 -0.30664062 6.10546875 C-0.20138195 4.07046772 -0.10026928 2.03525297 0 0 Z " fill="#FDD9D7" transform="translate(519,36)"/>
<path d="M0 0 C10.23 0 20.46 0 31 0 C31 4.95 31 9.9 31 15 C26.05 15 21.1 15 16 15 C16.33 14.34 16.66 13.68 17 13 C20.96 13 24.92 13 29 13 C28.505 8.05 28.505 8.05 28 3 C19.75 3 11.5 3 3 3 C2.67 20.82 2.34 38.64 2 57 C11.24 57 20.48 57 30 57 C30 52.71 30 48.42 30 44 C25.38 44 20.76 44 16 44 C16 43.67 16 43.34 16 43 C20.95 43 25.9 43 31 43 C31 47.95 31 52.9 31 58 C20.77 58 10.54 58 0 58 C0 38.86 0 19.72 0 0 Z " fill="#E0554D" transform="translate(212,36)"/>
<path d="M0 0 C0.08096803 1.45742463 0.13917774 2.91612807 0.1875 4.375 C0.23970703 5.59316406 0.23970703 5.59316406 0.29296875 6.8359375 C0.19628906 7.55007812 0.09960938 8.26421875 0 9 C-0.99 9.66 -1.98 10.32 -3 11 C-3.33 10.01 -3.66 9.02 -4 8 C-7.02822296 10.87987389 -10.03621245 13.77899446 -13.02709961 16.69750977 C-14.04716288 17.68740421 -15.07254676 18.67184642 -16.10327148 19.65063477 C-17.58450414 21.05905502 -19.04546319 22.48600885 -20.50390625 23.91796875 C-21.38892822 24.77156982 -22.2739502 25.6251709 -23.18579102 26.50463867 C-25.23404823 28.82490975 -25.23404823 28.82490975 -25.06054688 31.51367188 C-23.71357129 34.67149863 -21.98569657 36.46677379 -19.52734375 38.86328125 C-18.62822266 39.74951172 -17.72910156 40.63574219 -16.80273438 41.54882812 C-15.38444336 42.9168457 -15.38444336 42.9168457 -13.9375 44.3125 C-12.97760179 45.25232276 -12.01860671 46.19306889 -11.06054688 47.13476562 C-8.71576088 49.43242024 -6.36215473 51.7202276 -4 54 C-3.34 53.01 -2.68 52.02 -2 51 C0 53 0 53 0.1953125 55.1640625 C0.17210937 55.97617188 0.14890625 56.78828125 0.125 57.625 C0.10695312 58.44226563 0.08890625 59.25953125 0.0703125 60.1015625 C0.04710937 60.72804687 0.02390625 61.35453125 0 62 C-2.79425088 60.7237475 -4.85142126 59.40029023 -7.02441406 57.234375 C-7.58469299 56.68040039 -8.14497192 56.12642578 -8.722229 55.55566406 C-9.31404968 54.95979492 -9.90587036 54.36392578 -10.515625 53.75 C-11.4393692 52.82912598 -11.4393692 52.82912598 -12.3817749 51.88964844 C-13.67852646 50.59425517 -14.97276657 49.29634356 -16.26464844 47.99609375 C-18.24975202 46.00024932 -20.24533591 44.01533274 -22.2421875 42.03125 C-23.50064211 40.77147445 -24.75847654 39.51107899 -26.015625 38.25 C-26.6155426 37.65413086 -27.21546021 37.05826172 -27.83355713 36.44433594 C-32 32.22993247 -32 32.22993247 -32 30 C-30.66967773 28.69311523 -30.66967773 28.69311523 -28.74609375 27.12109375 C-25.07268427 23.99825038 -21.61673451 20.70622574 -18.22265625 17.28515625 C-17.72164398 16.78084076 -17.22063171 16.27652527 -16.70443726 15.75692749 C-15.15513709 14.19407022 -13.60841356 12.62870684 -12.0625 11.0625 C-9.99372962 8.96721097 -7.92170002 6.87522387 -5.84765625 4.78515625 C-4.94023682 3.86613525 -4.03281738 2.94711426 -3.09790039 2.00024414 C-1 0 -1 0 0 0 Z " fill="#D94F46" transform="translate(32,34)"/>
<path d="M0 0 C10.23 0 20.46 0 31 0 C31 4.95 31 9.9 31 15 C26.05 15 21.1 15 16 15 C18 13 18 13 20.6015625 12.8046875 C23.40104167 12.86979167 26.20052083 12.93489583 29 13 C29 9.37 29 5.74 29 2 C20.09 2 11.18 2 2 2 C2 20.15 2 38.3 2 57 C11.24 57 20.48 57 30 57 C30 52.71 30 48.42 30 44 C25.38 44 20.76 44 16 44 C16 43.67 16 43.34 16 43 C20.95 43 25.9 43 31 43 C31 47.95 31 52.9 31 58 C20.77 58 10.54 58 0 58 C0 38.86 0 19.72 0 0 Z " fill="#DE564F" transform="translate(484,36)"/>
<path d="M0 0 C0.33 0 0.66 0 1 0 C1 2.97 1 5.94 1 9 C2.65 8.67 4.3 8.34 6 8 C5.34 7.34 4.68 6.68 4 6 C23.14 6 42.28 6 62 6 C62 6.33 62 6.66 62 7 C49.79 7.33 37.58 7.66 25 8 C33.25 8.33 41.5 8.66 50 9 C49.67 9.66 49.34 10.32 49 11 C38.77 11 28.54 11 18 11 C18.99 11.99 19.98 12.98 21 14 C21 14.66 21 15.32 21 16 C20.01 16 19.02 16 18 16 C21.96 21.28 25.92 26.56 30 32 C29.67 32.66 29.34 33.32 29 34 C22.4 27.4 15.8 20.8 9 14 C9.99 13.34 10.98 12.68 12 12 C9.87420503 9.87420503 5.34787605 10.55328631 2.46875 10.37890625 C1.6540625 10.25386719 0.839375 10.12882812 0 10 C-1.6415049 6.7169902 -0.51888624 3.57454967 0 0 Z " fill="#FCDDD9" transform="translate(32,88)"/>
<path d="M0 0 C19.14 0 38.28 0 58 0 C58 0.33 58 0.66 58 1 C30.775 1.495 30.775 1.495 3 2 C6.63 2.33 10.26 2.66 14 3 C14 4.98 14 6.96 14 9 C12.68 9 11.36 9 10 9 C10 12.3 10 15.6 10 19 C8.35 19 6.7 19 5 19 C4.67 16.03 4.34 13.06 4 10 C3.01 10 2.02 10 1 10 C1 25.84 1 41.68 1 58 C0.67 58 0.34 58 0 58 C0 38.86 0 19.72 0 0 Z " fill="#D9544B" transform="translate(36,36)"/>
<path d="M0 0 C0.99 0 1.98 0 3 0 C3 15.18 3 30.36 3 46 C2.67 46 2.34 46 2 46 C1.505 41.05 1.505 41.05 1 36 C-4.28 36 -9.56 36 -15 36 C-15 35.67 -15 35.34 -15 35 C-10.05 35 -5.1 35 0 35 C0 30.38 0 25.76 0 21 C-4.95 21 -9.9 21 -15 21 C-15 18.69 -15 16.38 -15 14 C-10.05 14 -5.1 14 0 14 C0 9.38 0 4.76 0 0 Z " fill="#FEF1EF" transform="translate(347,37)"/>
<path d="M0 0 C10.56 0 21.12 0 32 0 C32 5.28 32 10.56 32 16 C27.05 16 22.1 16 17 16 C17 15.67 17 15.34 17 15 C21.62 15 26.24 15 31 15 C31 10.38 31 5.76 31 1 C21.1 1 11.2 1 1 1 C1 19.81 1 38.62 1 58 C10.9 58 20.8 58 31 58 C31 58.33 31 58.66 31 59 C10.54 59 -9.92 59 -31 59 C-31 58.67 -31 58.34 -31 58 C-21.43 58 -11.86 58 -2 58 C-2 53.05 -2 48.1 -2 43 C-1.67 43 -1.34 43 -1 43 C-0.67 28.81 -0.34 14.62 0 0 Z " fill="#FBC4C1" transform="translate(279,36)"/>
<path d="M0 0 C8.91 0 17.82 0 27 0 C27 2.64 27 5.28 27 8 C26.67 7.34 26.34 6.68 26 6 C24.35 6 22.7 6 21 6 C22.32 5.67 23.64 5.34 25 5 C25 3.68 25 2.36 25 1 C22.03 1 19.06 1 16 1 C16.01160156 2.02738281 16.02320312 3.05476563 16.03515625 4.11328125 C16.09724473 12.13821757 15.94716781 20.01672842 15 28 C14.360625 28.103125 13.72125 28.20625 13.0625 28.3125 C12.381875 28.539375 11.70125 28.76625 11 29 C10.67 29.99 10.34 30.98 10 32 C9.67 32 9.34 32 9 32 C9 30.35 9 28.7 9 27 C10.32 27 11.64 27 13 27 C13 25.68 13 24.36 13 23 C11.68 22.67 10.36 22.34 9 22 C10.32 22 11.64 22 13 22 C13 20.68 13 19.36 13 18 C10.03 18 7.06 18 4 18 C4 17.01 4 16.02 4 15 C5.32 15 6.64 15 8 15 C8 11.7 8 8.4 8 5 C9.32 5 10.64 5 12 5 C12 3.68 12 2.36 12 1 C8.04 1 4.08 1 0 1 C0 0.67 0 0.34 0 0 Z " fill="#E04B43" transform="translate(38,40)"/>
<path d="M0 0 C2.05164237 3.46214649 2 4.59389235 2 9 C-1.3 9 -4.6 9 -8 9 C-8.33 9.99 -8.66 10.98 -9 12 C-7.515 12.99 -7.515 12.99 -6 14 C-12.6 20.6 -19.2 27.2 -26 34 C-26 30.6181337 -25.55473195 30.03299589 -23.59375 27.42578125 C-23.09746094 26.75869141 -22.60117188 26.09160156 -22.08984375 25.40429688 C-21.56519531 24.71400391 -21.04054688 24.02371094 -20.5 23.3125 C-19.71302734 22.2596582 -19.71302734 22.2596582 -18.91015625 21.18554688 C-17.61313301 19.45225218 -16.3073845 17.72549285 -15 16 C-15.99 15.67 -16.98 15.34 -18 15 C-16.35 13.02 -14.7 11.04 -13 9 C-13.74685059 9.01047363 -14.49370117 9.02094727 -15.26318359 9.03173828 C-18.63375508 9.0732077 -22.004273 9.09929729 -25.375 9.125 C-26.550625 9.14175781 -27.72625 9.15851563 -28.9375 9.17578125 C-30.61972656 9.18544922 -30.61972656 9.18544922 -32.3359375 9.1953125 C-33.37282715 9.20578613 -34.4097168 9.21625977 -35.47802734 9.22705078 C-38 9 -38 9 -40 7 C-27.13 6.67 -14.26 6.34 -1 6 C-0.67 4.02 -0.34 2.04 0 0 Z " fill="#FEF7F5" transform="translate(95,88)"/>
<path d="M0 0 C0.33 0 0.66 0 1 0 C1 19.14 1 38.28 1 58 C0.67 58 0.34 58 0 58 C-0.33 54.04 -0.66 50.08 -1 46 C-2.485 48.475 -2.485 48.475 -4 51 C-5.2195756 48.56084879 -5.08586292 47.08884853 -5.02172852 44.36669922 C-5.00163223 43.40585419 -4.98153595 42.44500916 -4.96083069 41.45504761 C-4.93379562 40.41542877 -4.90676056 39.37580994 -4.87890625 38.3046875 C-4.85529526 37.24210724 -4.83168427 36.17952698 -4.80735779 35.08474731 C-4.73060988 31.68136603 -4.64663335 28.27820596 -4.5625 24.875 C-4.50929046 22.57162551 -4.45655 20.26824013 -4.40429688 17.96484375 C-4.27497972 12.30975812 -4.13972279 6.65483758 -4 1 C-0.84228577 4.15771423 -1.37493227 7.62579022 -1 12 C-0.67 8.04 -0.34 4.08 0 0 Z " fill="#FEE0DD" transform="translate(395,36)"/>
<path d="M0 0 C0.33 0 0.66 0 1 0 C1 10.89 1 21.78 1 33 C2.98 31.68 4.96 30.36 7 29 C7 29.99 7 30.98 7 32 C12.28 28.04 17.56 24.08 23 20 C23.66 20.33 24.32 20.66 25 21 C18.4 27.6 11.8 34.2 5 41 C4.34 40.01 3.68 39.02 3 38 C1.74127744 39.02965595 1.74127744 39.02965595 1.9375 41.25 C1.958125 42.1575 1.97875 43.065 2 44 C2.03786901 45.66623639 2.04627845 47.33397597 2 49 C1 50 1 50 -1.50390625 50.09765625 C-2.51324219 50.08605469 -3.52257812 50.07445312 -4.5625 50.0625 C-5.57441406 50.05347656 -6.58632812 50.04445312 -7.62890625 50.03515625 C-8.41136719 50.02355469 -9.19382812 50.01195312 -10 50 C-10 49.67 -10 49.34 -10 49 C-6.7 49 -3.4 49 0 49 C-0.33 47.68 -0.66 46.36 -1 45 C-2.00132385 40.55045528 -2.16539161 36.5482693 -2 32 C-1.67 32 -1.34 32 -1 32 C-0.67 21.44 -0.34 10.88 0 0 Z " fill="#F7D4D1" transform="translate(97,48)"/>
<path d="M0 0 C13.2 0 26.4 0 40 0 C40 5.28 40 10.56 40 16 C36.04 16 32.08 16 28 16 C28 29.86 28 43.72 28 58 C27.67 58 27.34 58 27 58 C26.97535487 51.8944529 26.95716629 45.78893449 26.94506836 39.68334961 C26.94002712 37.60456844 26.93319426 35.52579084 26.92456055 33.44702148 C26.91248578 30.46597414 26.90676976 27.48497351 26.90234375 24.50390625 C26.89460182 23.10078941 26.89460182 23.10078941 26.88670349 21.66932678 C26.88659019 20.37810158 26.88659019 20.37810158 26.88647461 19.06079102 C26.884254 18.29912125 26.88203339 17.53745148 26.87974548 16.75270081 C27 15 27 15 28 14 C31.6691577 13.85689713 35.32715441 13.95778338 39 14 C39 10.04 39 6.08 39 2 C26.79 2.33 14.58 2.66 2 3 C1.67 6.63 1.34 10.26 1 14 C4.63 14 8.26 14 12 14 C12 14.33 12 14.66 12 15 C8.04 15 4.08 15 0 15 C0 10.05 0 5.1 0 0 Z " fill="#E86962" transform="translate(170,36)"/>
<path d="M0 0 C5.28 0 10.56 0 16 0 C16.02505615 1.31718018 16.0501123 2.63436035 16.07592773 3.99145508 C16.17000882 8.87241562 16.27022792 13.75323408 16.37231445 18.6340332 C16.41566064 20.7476062 16.45733594 22.86121414 16.49731445 24.97485352 C16.55502449 28.01068664 16.61871701 31.04634389 16.68359375 34.08203125 C16.70030624 35.02899368 16.71701874 35.97595612 16.73423767 36.95161438 C16.75418289 37.83230087 16.77412811 38.71298737 16.79467773 39.62036133 C16.81799416 40.78285149 16.81799416 40.78285149 16.84178162 41.96882629 C16.93355377 44.20332493 16.93355377 44.20332493 18 47 C16.515 46.505 16.515 46.505 15 46 C15 31.48 15 16.96 15 2 C13.35 2.33 11.7 2.66 10 3 C8 3 6 3 4 3 C2.78045333 3.99856319 2.78045333 3.99856319 2.87974548 5.98048401 C2.88196609 6.84874313 2.88418671 7.71700226 2.88647461 8.61157227 C2.88655014 9.59251358 2.88662567 10.5734549 2.88670349 11.5841217 C2.89186478 12.6507756 2.89702606 13.7174295 2.90234375 14.81640625 C2.9037587 15.9025975 2.90517365 16.98878876 2.90663147 18.1078949 C2.91224952 21.59279075 2.92480508 25.07762342 2.9375 28.5625 C2.94251267 30.91861887 2.94707598 33.27473874 2.95117188 35.63085938 C2.96222481 41.42059464 2.97898049 47.21029281 3 53 C0.68509565 50.68509565 0.05922901 49.07520832 -0.12025452 45.81697083 C-0.11803391 44.97091782 -0.11581329 44.12486481 -0.11352539 43.25317383 C-0.11344986 42.29240433 -0.11337433 41.33163483 -0.11329651 40.3417511 C-0.10813522 39.30729355 -0.10297394 38.272836 -0.09765625 37.20703125 C-0.0962413 36.14586594 -0.09482635 35.08470062 -0.09336853 33.99137878 C-0.08776606 30.59839065 -0.07521314 27.20546823 -0.0625 23.8125 C-0.05748532 21.51367283 -0.05292236 19.21484462 -0.04882812 16.91601562 C-0.03779583 11.27731838 -0.02052952 5.63867034 0 0 Z " fill="#DF534B" transform="translate(350,36)"/>
<path d="M0 0 C5.28 0 10.56 0 16 0 C16 16.17 16 32.34 16 49 C15.67 49 15.34 49 15 49 C14.67 33.82 14.34 18.64 14 3 C10.04 2.67 6.08 2.34 2 2 C2.02094727 3.28165039 2.04189453 4.56330078 2.06347656 5.88378906 C2.13588666 10.63969751 2.1818036 15.39555724 2.21972656 20.15185547 C2.23983969 22.21020705 2.26713397 24.26850152 2.30175781 26.32666016 C2.35028883 29.28562513 2.37297166 32.24383461 2.390625 35.203125 C2.41127014 36.12305237 2.43191528 37.04297974 2.45318604 37.99078369 C2.45541993 44.3539615 2.45541993 44.3539615 0.14746094 47.62792969 C-2 49 -2 49 -4.75 48.75 C-5.4925 48.5025 -6.235 48.255 -7 48 C-7 47.67 -7 47.34 -7 47 C-5.02 46.34 -3.04 45.68 -1 45 C-0.67 30.15 -0.34 15.3 0 0 Z " fill="#D7554E" transform="translate(375,36)"/>
<path d="M0 0 C1.65 0 3.3 0 5 0 C5 4.95 5 9.9 5 15 C3.35 15 1.7 15 0 15 C-1.8125 12.5 -1.8125 12.5 -3 10 C-3.33 11.65 -3.66 13.3 -4 15 C-5.65 15 -7.3 15 -9 15 C-9 10.38 -9 5.76 -9 1 C-7.35 1 -5.7 1 -4 1 C-2.1875 3 -2.1875 3 -1 5 C-0.67 3.35 -0.34 1.7 0 0 Z " fill="#FEEEEC" transform="translate(84,74)"/>
<path d="M0 0 C1.65 0 3.3 0 5 0 C6.8125 2 6.8125 2 8 4 C8.33 2.68 8.66 1.36 9 0 C10.65 0 12.3 0 14 0 C14 4.62 14 9.24 14 14 C12.35 14 10.7 14 9 14 C7.1875 12 7.1875 12 6 10 C5.67 11.32 5.34 12.64 5 14 C3.35 14 1.7 14 0 14 C0 9.38 0 4.76 0 0 Z " fill="#FDEAE7" transform="translate(75,58)"/>
<path d="M0 0 C13.2 0 26.4 0 40 0 C38.875 5.625 38.875 5.625 36 8 C35.505 5.525 35.505 5.525 35 3 C33.02 3.33 31.04 3.66 29 4 C28.67 8.95 28.34 13.9 28 19 C27.34 19 26.68 19 26 19 C25.0639658 15.20732808 25.01723748 12.06325435 25.4375 8.1875 C25.53933594 7.21167969 25.64117187 6.23585938 25.74609375 5.23046875 C25.82988281 4.49441406 25.91367188 3.75835937 26 3 C25.00097656 3.08378906 24.00195312 3.16757812 22.97265625 3.25390625 C21.68230469 3.35574219 20.39195313 3.45757812 19.0625 3.5625 C17.77472656 3.66691406 16.48695312 3.77132812 15.16015625 3.87890625 C14.11730469 3.91886719 13.07445312 3.95882812 12 4 C11.67 3.67 11.34 3.34 11 3 C8.98405418 2.76572222 6.961526 2.58663876 4.9375 2.4375 C3.83277344 2.35371094 2.72804687 2.26992188 1.58984375 2.18359375 C0.73519531 2.12300781 -0.11945312 2.06242187 -1 2 C-0.67 1.34 -0.34 0.68 0 0 Z " fill="#E9372B" transform="translate(39,37)"/>
<path d="M0 0 C1.1446875 0.12375 1.1446875 0.12375 2.3125 0.25 C2.003125 0.8275 1.69375 1.405 1.375 2 C1.024375 2.7425 0.67375 3.485 0.3125 4.25 C0.02375 4.848125 -0.265 5.44625 -0.5625 6.0625 C-0.77289868 9.74447691 1.37289191 12.19364785 3.3125 15.25 C0.4375 15.4375 0.4375 15.4375 -2.6875 15.25 C-3.3475 14.26 -4.0075 13.27 -4.6875 12.25 C-5.0175 13.24 -5.3475 14.23 -5.6875 15.25 C-7.3375 15.25 -8.9875 15.25 -10.6875 15.25 C-10.6875 10.63 -10.6875 6.01 -10.6875 1.25 C-9.3675 1.25 -8.0475 1.25 -6.6875 1.25 C-6.3575 2.24 -6.0275 3.23 -5.6875 4.25 C-5.295625 3.59 -4.90375 2.93 -4.5 2.25 C-2.6875 0.25 -2.6875 0.25 0 0 Z " fill="#FEF1EF" transform="translate(52.6875,73.75)"/>
<path d="M0 0 C1.65 0 3.3 0 5 0 C5.33 3.3 5.66 6.6 6 10 C6.66 10 7.32 10 8 10 C8.33 6.7 8.66 3.4 9 0 C10.32 0 11.64 0 13 0 C13.05389087 1.95803507 13.09274217 3.91648909 13.125 5.875 C13.14820312 6.96554688 13.17140625 8.05609375 13.1953125 9.1796875 C13 12 13 12 11 14 C8.90625 14.30078125 8.90625 14.30078125 6.5 14.3125 C5.7059375 14.32925781 4.911875 14.34601563 4.09375 14.36328125 C3.4028125 14.24339844 2.711875 14.12351562 2 14 C-0.28062828 10.57905758 -0.21925007 9.31812778 -0.125 5.3125 C-0.10695312 4.31863281 -0.08890625 3.32476562 -0.0703125 2.30078125 C-0.04710937 1.54152344 -0.02390625 0.78226563 0 0 Z " fill="#FEE8E4" transform="translate(56,58)"/>
<path d="M0 0 C0.66 0 1.32 0 2 0 C2 19.14 2 38.28 2 58 C12.23 58 22.46 58 33 58 C33 58.33 33 58.66 33 59 C16.5 59 0 59 -17 59 C-16.67 58.34 -16.34 57.68 -16 57 C-10.72 57 -5.44 57 0 57 C-0.33 55.68 -0.66 54.36 -1 53 C-0.34 53 0.32 53 1 53 C0.67 37.82 0.34 22.64 0 7 C-0.66 6.67 -1.32 6.34 -2 6 C-1.34 4.02 -0.68 2.04 0 0 Z " fill="#FEF1F1" transform="translate(482,36)"/>
<path d="M0 0 C0.08096803 1.45742463 0.13917774 2.91612807 0.1875 4.375 C0.23970703 5.59316406 0.23970703 5.59316406 0.29296875 6.8359375 C0.19628906 7.55007812 0.09960938 8.26421875 0 9 C-0.99 9.66 -1.98 10.32 -3 11 C-3.33 10.01 -3.66 9.02 -4 8 C-11.26 15.26 -18.52 22.52 -26 30 C-26.66 29.67 -27.32 29.34 -28 29 C-25.73289312 24.7995787 -22.86462664 21.58630023 -19.4921875 18.26171875 C-18.70305466 17.47327324 -18.70305466 17.47327324 -17.89797974 16.66889954 C-16.79259168 15.56651743 -15.6847894 14.46655135 -14.57470703 13.36889648 C-12.86817094 11.68074451 -11.16990025 9.98459829 -9.47265625 8.28710938 C-8.39630635 7.21567044 -7.31949963 6.14469018 -6.2421875 5.07421875 C-5.73178925 4.56493332 -5.22139099 4.05564789 -4.69552612 3.53092957 C-1.116085 0 -1.116085 0 0 0 Z " fill="#D73E38" transform="translate(32,34)"/>
<path d="M0 0 C5.06623768 4.23816537 9.80038069 8.67408963 14.4375 13.375 C15.07365234 14.01566406 15.70980469 14.65632813 16.36523438 15.31640625 C17.91250332 16.87530879 19.45736492 18.43651416 21 20 C20.01 20.66 19.02 21.32 18 22 C18.33 22.66 18.66 23.32 19 24 C17.35 24.66 15.7 25.32 14 26 C9 20.25 9 20.25 9 18 C9.66 17.67 10.32 17.34 11 17 C10.66677734 16.5560791 10.33355469 16.1121582 9.99023438 15.65478516 C8.48854282 13.64850424 6.99420906 11.63685888 5.5 9.625 C4.71302734 8.57699219 4.71302734 8.57699219 3.91015625 7.5078125 C3.41386719 6.8375 2.91757813 6.1671875 2.40625 5.4765625 C1.94541016 4.85861816 1.48457031 4.24067383 1.00976562 3.60400391 C0 2 0 2 0 0 Z " fill="#FEEAE8" transform="translate(68,8)"/>
<path d="M0 0 C1.33333333 2.66666667 2.66666667 5.33333333 4 8 C2.02 9.65 0.04 11.3 -2 13 C-2.33 12.01 -2.66 11.02 -3 10 C-3.46897705 10.36351562 -3.9379541 10.72703125 -4.42114258 11.1015625 C-6.54592619 12.74187547 -8.67902941 14.3710044 -10.8125 16 C-11.55048828 16.57234375 -12.28847656 17.1446875 -13.04882812 17.734375 C-13.76103516 18.27578125 -14.47324219 18.8171875 -15.20703125 19.375 C-16.18893433 20.12910156 -16.18893433 20.12910156 -17.19067383 20.8984375 C-19 22 -19 22 -22 22 C-14.74 14.74 -7.48 7.48 0 0 Z " fill="#FEEEEB" transform="translate(28,41)"/>
<path d="M0 0 C0 3.28247431 -0.33076673 3.82566967 -2.1875 6.35546875 C-2.63867188 6.97744141 -3.08984375 7.59941406 -3.5546875 8.24023438 C-4.03164063 8.88283203 -4.50859375 9.52542969 -5 10.1875 C-5.47695313 10.84169922 -5.95390625 11.49589844 -6.4453125 12.16992188 C-7.62389275 13.78457682 -8.81113182 15.39290497 -10 17 C-9.01 17.66 -8.02 18.32 -7 19 C-9.25 21.5625 -9.25 21.5625 -12 24 C-14.3125 23.8125 -14.3125 23.8125 -16 23 C-16 22.34 -16 21.68 -16 21 C-17.32 20.67 -18.64 20.34 -20 20 C-13.4 13.4 -6.8 6.8 0 0 Z " fill="#FEE9E8" transform="translate(61,8)"/>
<path d="M0 0 C2.97 0 5.94 0 9 0 C9 0.99 9 1.98 9 3 C7.35 3 5.7 3 4 3 C4 3.66 4 4.32 4 5 C5.65 5 7.3 5 9 5 C9 7.97 9 10.94 9 14 C6.03 14 3.06 14 0 14 C0 9.38 0 4.76 0 0 Z " fill="#FEF6F4" transform="translate(60,75)"/>
<path d="M0 0 C2.97 0 5.94 0 9 0 C9 2.97 9 5.94 9 9 C7.35 9 5.7 9 4 9 C4 9.66 4 10.32 4 11 C5.65 11 7.3 11 9 11 C9 11.99 9 12.98 9 14 C6.03 14 3.06 14 0 14 C0 9.38 0 4.76 0 0 Z " fill="#FEF7F5" transform="translate(54,41)"/>
<path d="M0 0 C2.97 0 5.94 0 9 0 C9 2.97 9 5.94 9 9 C7.35 9 5.7 9 4 9 C4 9.66 4 10.32 4 11 C5.65 11 7.3 11 9 11 C9 11.99 9 12.98 9 14 C6.03 14 3.06 14 0 14 C0 9.38 0 4.76 0 0 Z " fill="#FDF0EE" transform="translate(80,41)"/>
<path d="M0 0 C0 11.22 0 22.44 0 34 C-0.99 34 -1.98 34 -3 34 C-4.6875 32 -4.6875 32 -6 30 C-6.33 30.66 -6.66 31.32 -7 32 C-11.04420651 30.22054913 -14.46078487 27.60470327 -18 25 C-17.34 24.67 -16.68 24.34 -16 24 C-13.69 25.65 -11.38 27.3 -9 29 C-8.67 28.34 -8.34 27.68 -8 27 C-7.01 27 -6.02 27 -5 27 C-4.01 27.99 -3.02 28.98 -2 30 C-2.33 21.75 -2.66 13.5 -3 5 C-3.99 5.66 -4.98 6.32 -6 7 C-2.86206897 0 -2.86206897 0 0 0 Z " fill="#DD655F" transform="translate(33,48)"/>
<path d="M0 0 C2.77438124 1.31220734 5.20790172 2.77482369 7.671875 4.6015625 C8.33574219 5.09140625 8.99960938 5.58125 9.68359375 6.0859375 C10.36550781 6.59382813 11.04742187 7.10171875 11.75 7.625 C12.44738281 8.140625 13.14476562 8.65625 13.86328125 9.1875 C15.57755267 10.45559119 17.28905156 11.7274289 19 13 C19.33 12.01 19.66 11.02 20 10 C22.125 12.0625 22.125 12.0625 24 15 C23.25 18.8125 23.25 18.8125 22 22 C16.76619303 17.62374788 11.87123062 13.02454503 7.0625 8.1875 C6.37865234 7.50751953 5.69480469 6.82753906 4.99023438 6.12695312 C4.34505859 5.48048828 3.69988281 4.83402344 3.03515625 4.16796875 C2.4512915 3.58297607 1.86742676 2.9979834 1.26586914 2.39526367 C0 1 0 1 0 0 Z " fill="#FEF1EF" transform="translate(7,67)"/>
<path d="M0 0 C0.33 0 0.66 0 1 0 C1.05402274 2.10388569 1.09280256 4.20816714 1.125 6.3125 C1.14820312 7.48425781 1.17140625 8.65601562 1.1953125 9.86328125 C1 13 1 13 -1 16 C-0.01 16 0.98 16 2 16 C2.02684679 18.64590014 2.04676357 21.29153096 2.0625 23.9375 C2.07087891 24.69224609 2.07925781 25.44699219 2.08789062 26.22460938 C2.09652441 28.14994313 2.05224333 30.07535581 2 32 C1 33 1 33 -1.28515625 33.09765625 C-2.65994141 33.08025391 -2.65994141 33.08025391 -4.0625 33.0625 C-4.98160156 33.05347656 -5.90070312 33.04445312 -6.84765625 33.03515625 C-7.55792969 33.02355469 -8.26820312 33.01195312 -9 33 C-9 32.34 -9 31.68 -9 31 C-6.03 31 -3.06 31 0 31 C0 29.68 0 28.36 0 27 C-1.32 26.67 -2.64 26.34 -4 26 C-2.68 26 -1.36 26 0 26 C0 24.68 0 23.36 0 22 C-1.65 22 -3.3 22 -5 22 C-5 21.34 -5 20.68 -5 20 C-3.35 20 -1.7 20 0 20 C0 19.01 0 18.02 0 17 C-2.97 17 -5.94 17 -9 17 C-9 16.01 -9 15.02 -9 14 C-7.865625 13.855625 -6.73125 13.71125 -5.5625 13.5625 C-2.19222799 13.38828522 -2.19222799 13.38828522 -1 12 C-0.76572222 9.98405418 -0.58663876 7.961526 -0.4375 5.9375 C-0.35371094 4.83277344 -0.26992187 3.72804687 -0.18359375 2.58984375 C-0.12300781 1.73519531 -0.06242187 0.88054688 0 0 Z " fill="#DD6159" transform="translate(69,58)"/>
<path d="M0 0 C2.97 0 5.94 0 9 0 C9 2.97 9 5.94 9 9 C7.35 9 5.7 9 4 9 C4 10.65 4 12.3 4 14 C2.68 14 1.36 14 0 14 C0 9.38 0 4.76 0 0 Z " fill="#FEF9F9" transform="translate(42,58)"/>
<path d="M0 0 C0.66 1.32 1.32 2.64 2 4 C-0.31 6.31 -2.62 8.62 -5 11 C-4.01 11.33 -3.02 11.66 -2 12 C-2 12.66 -2 13.32 -2 14 C-2.66 14 -3.32 14 -4 14 C-4 14.66 -4 15.32 -4 16 C-7.3 16 -10.6 16 -14 16 C-14 19.3 -14 22.6 -14 26 C-14.33 26 -14.66 26 -15 26 C-15.96474556 22.56353405 -16.4537486 19.55861265 -16 16 C-14.0744574 13.53637275 -11.98206522 11.8612472 -9.50390625 9.9609375 C-5.82420168 7.07917199 -2.96786491 3.58815821 0 0 Z " fill="#DD655F" transform="translate(47,17)"/>
<path d="M0 0 C1.65 0 3.3 0 5 0 C5 3.63 5 7.26 5 11 C6.65 11 8.3 11 10 11 C10 12.32 10 13.64 10 15 C6.7 15 3.4 15 0 15 C0 10.05 0 5.1 0 0 Z " fill="#FBD3CD" transform="translate(68,41)"/>
<path d="M0 0 C0.66 0.66 1.32 1.32 2 2 C1.9765625 4.1640625 1.9765625 4.1640625 1.625 6.625 C1.45871094 7.85089844 1.45871094 7.85089844 1.2890625 9.1015625 C1.14597656 10.04128906 1.14597656 10.04128906 1 11 C2.65 11 4.3 11 6 11 C4.68 11.33 3.36 11.66 2 12 C2 15.3 2 18.6 2 22 C0.68 22 -0.64 22 -2 22 C-2 18.7 -2 15.4 -2 12 C-3.32 11.67 -4.64 11.34 -6 11 C-6.99 10.34 -7.98 9.68 -9 9 C-6.03 9 -3.06 9 0 9 C0 8.01 0 7.02 0 6 C-1.65 6 -3.3 6 -5 6 C-5 5.34 -5 4.68 -5 4 C-3.35 4 -1.7 4 0 4 C0 2.68 0 1.36 0 0 Z " fill="#DE5C56" transform="translate(63,46)"/>
<path d="M0 0 C0.66 0.99 1.32 1.98 2 3 C1.01 3 0.02 3 -1 3 C1.475 6.465 1.475 6.465 4 10 C-7.22 10 -18.44 10 -30 10 C-28.35 8.02 -26.7 6.04 -25 4 C-25 4.99 -25 5.98 -25 7 C-17.08 7 -9.16 7 -1 7 C-1.66 5.68 -2.32 4.36 -3 3 C-2.01 2.67 -1.02 2.34 0 2 C0 1.34 0 0.68 0 0 Z " fill="#DB5E59" transform="translate(78,23)"/>
<path d="M0 0 C3.96 0 7.92 0 12 0 C12 1.32 12 2.64 12 4 C10.68 4 9.36 4 8 4 C8 7.3 8 10.6 8 14 C6.68 14 5.36 14 4 14 C4 10.7 4 7.4 4 4 C2.68 4 1.36 4 0 4 C0 2.68 0 1.36 0 0 Z " fill="#FEEEEC" transform="translate(38,41)"/>
<path d="M0 0 C0.33 0 0.66 0 1 0 C1.89571109 10.48670989 1.97960463 20.51069502 1 31 C2.65 31 4.3 31 6 31 C6 29.02 6 27.04 6 25 C7.70840281 26.63412443 8.93453047 27.86906094 10 30 C12.52733235 30.65555119 12.52733235 30.65555119 15 31 C15 31.33 15 31.66 15 32 C13.88625 31.979375 12.7725 31.95875 11.625 31.9375 C8.16784079 31.73619282 8.16784079 31.73619282 6 33 C2.9375 33.125 2.9375 33.125 0 33 C-1.67725725 31.32274275 -1.13188219 29.27153584 -1.13867188 27.03320312 C-1.13416016 26.34162109 -1.12964844 25.65003906 -1.125 24.9375 C-1.12306641 24.23173828 -1.12113281 23.52597656 -1.11914062 22.79882812 C-1.05851072 15.17966951 -0.56565306 7.59591248 0 0 Z " fill="#CF4137" transform="translate(74,58)"/>
<path d="M0 0 C9.57 0 19.14 0 29 0 C29 4.62 29 9.24 29 14 C24.38 14 19.76 14 15 14 C15 16.31 15 18.62 15 21 C14.67 21 14.34 21 14 21 C14 19.02 14 17.04 14 15 C13.34 15 12.68 15 12 15 C12 14.34 12 13.68 12 13 C15.00313748 11.49843126 17.79067522 11.90718796 21.125 11.9375 C22.40632813 11.94652344 23.68765625 11.95554687 25.0078125 11.96484375 C25.99523437 11.97644531 26.98265625 11.98804688 28 12 C28 8.37 28 4.74 28 1 C18.76 1 9.52 1 0 1 C0 0.67 0 0.34 0 0 Z " fill="#DC4037" transform="translate(317,37)"/>
<path d="M0 0 C0.02692484 2.29160319 0.04636124 4.58329546 0.0625 6.875 C0.07410156 8.15117188 0.08570312 9.42734375 0.09765625 10.7421875 C0 14 0 14 -1 16 C-4.63 16 -8.26 16 -12 16 C-12.02685095 13.52076199 -12.04676547 11.0418116 -12.0625 8.5625 C-12.07506836 7.50192383 -12.07506836 7.50192383 -12.08789062 6.41992188 C-12.09653588 4.61306441 -12.05220011 2.80612397 -12 1 C-9.22036907 -1.77963093 -3.39894022 -1.13298007 0 0 Z M-11 1 C-11 5.62 -11 10.24 -11 15 C-8.03 15 -5.06 15 -2 15 C-2 14.01 -2 13.02 -2 12 C-3.65 12 -5.3 12 -7 12 C-7 11.34 -7 10.68 -7 10 C-5.35 10 -3.7 10 -2 10 C-2 7.03 -2 4.06 -2 1 C-4.97 1 -7.94 1 -11 1 Z " fill="#DD635A" transform="translate(91,40)"/>
<path d="M0 0 C0.99 0 1.98 0 3 0 C3 1.65 3 3.3 3 5 C13.23 5 23.46 5 34 5 C34 5.33 34 5.66 34 6 C17.5 6 1 6 -16 6 C-15.67 5.34 -15.34 4.68 -15 4 C-9.72 4 -4.44 4 1 4 C0.67 2.68 0.34 1.36 0 0 Z " fill="#FEE0DC" transform="translate(481,89)"/>
<path d="M0 0 C0.66 0 1.32 0 2 0 C2 5.28 2 10.56 2 16 C0.35 16 -1.3 16 -3 16 C-3.66 17.32 -4.32 18.64 -5 20 C-6 17 -6 17 -5.25 14.375 C-4 12 -4 12 -1 11 C-0.67 7.37 -0.34 3.74 0 0 Z " fill="#EB362C" transform="translate(53,57)"/>
<path d="M0 0 C0.33 0.66 0.66 1.32 1 2 C2.32 1.67 3.64 1.34 5 1 C1.5072685 4.62805874 -2.09471524 7.76705926 -6.125 10.8125 C-7.67574219 11.99779297 -7.67574219 11.99779297 -9.2578125 13.20703125 C-12 15 -12 15 -15 15 C-10.05 10.05 -5.1 5.1 0 0 Z " fill="#FED0CB" transform="translate(21,48)"/>
<path d="M0 0 C0.99 0 1.98 0 3 0 C3 4.29 3 8.58 3 13 C1.35 12.67 -0.3 12.34 -2 12 C-3.125 8.25 -3.125 8.25 -2 6 C-1.34 6 -0.68 6 0 6 C0 4.02 0 2.04 0 0 Z " fill="#FEF7F7" transform="translate(85,59)"/>
<path d="M0 0 C0.99 0 1.98 0 3 0 C3 0.66 3 1.32 3 2 C4.65 2 6.3 2 8 2 C8 2.33 8 2.66 8 3 C-6.85 3 -21.7 3 -37 3 C-37 2.67 -37 2.34 -37 2 C-35.91468994 1.97494385 -34.82937988 1.9498877 -33.71118164 1.92407227 C-29.698684 1.83016245 -25.68636618 1.72990233 -21.67407227 1.62768555 C-19.93485712 1.58427427 -18.19559765 1.54260388 -16.45629883 1.50268555 C-13.96161512 1.44513232 -11.4671559 1.3813958 -8.97265625 1.31640625 C-8.19036148 1.29969376 -7.40806671 1.28298126 -6.60206604 1.26576233 C-3.00128219 1.49351269 -3.00128219 1.49351269 0 0 Z " fill="#FEFBF9" transform="translate(84,32)"/>
<path d="M0 0 C5.29012124 4.40843437 10.18808428 9.07559794 15 14 C11.6181337 14 11.03299589 13.55473195 8.42578125 11.59375 C7.75869141 11.09746094 7.09160156 10.60117187 6.40429688 10.08984375 C5.71400391 9.56519531 5.02371094 9.04054688 4.3125 8.5 C3.61060547 7.97535156 2.90871094 7.45070313 2.18554688 6.91015625 C0.45225218 5.61313301 -1.27450715 4.3073845 -3 3 C-2.01 2.67 -1.02 2.34 0 2 C0 1.34 0 0.68 0 0 Z " fill="#FDDBD6" transform="translate(108,48)"/>
<path d="M0 0 C2.5625 0.1875 2.5625 0.1875 4.5625 2.1875 C4.02678571 5.72321429 4.02678571 5.72321429 2.5625 7.1875 C0.56291636 7.22830783 -1.43795254 7.23004356 -3.4375 7.1875 C-3.48004356 5.18795254 -3.47830783 3.18708364 -3.4375 1.1875 C-2.4375 0.1875 -2.4375 0.1875 0 0 Z " fill="#E39C96" transform="translate(81.4375,123.8125)"/>
<path d="M0 0 C0.66 0 1.32 0 2 0 C2 4.62 2 9.24 2 14 C1.34 14 0.68 14 0 14 C0 13.34 0 12.68 0 12 C-0.66 12 -1.32 12 -2 12 C-2.625 9.125 -2.625 9.125 -3 6 C-2.34 5.34 -1.68 4.68 -1 4 C-0.3574765 1.93125966 -0.3574765 1.93125966 0 0 Z " fill="#EB352B" transform="translate(56,73)"/>
<path d="M0 0 C0.99 0.99 1.98 1.98 3 3 C2.34 3 1.68 3 1 3 C1 10.92 1 18.84 1 27 C2.32 27.66 3.64 28.32 5 29 C3.625 30.5 3.625 30.5 2 32 C1.34 32 0.68 32 0 32 C0 21.44 0 10.88 0 0 Z " fill="#D74640" transform="translate(98,49)"/>
<path d="M0 0 C0.33 0.66 0.66 1.32 1 2 C1.66 2.33 2.32 2.66 3 3 C-1.29 7.29 -5.58 11.58 -10 16 C-10 11.7349984 -7.55526586 9.49967621 -5 6.3125 C-4.52304688 5.70599609 -4.04609375 5.09949219 -3.5546875 4.47460938 C-2.37623606 2.97797604 -1.18894812 1.48830827 0 0 Z " fill="#FEDBD4" transform="translate(79,106)"/>
<path d="M0 0 C5.28 0 10.56 0 16 0 C15.34 1.98 14.68 3.96 14 6 C13.67 4.68 13.34 3.36 13 2 C11.06183265 2.1141866 9.12444901 2.24173423 7.1875 2.375 C6.10855469 2.44460937 5.02960938 2.51421875 3.91796875 2.5859375 C0.81373814 2.81195733 0.81373814 2.81195733 -2 5 C-1.34 3.35 -0.68 1.7 0 0 Z " fill="#E05D55" transform="translate(466,36)"/>
<path d="M0 0 C1.62418745 -0.08090971 3.24951745 -0.13914995 4.875 -0.1875 C5.77992187 -0.22230469 6.68484375 -0.25710937 7.6171875 -0.29296875 C8.79667969 -0.14794922 8.79667969 -0.14794922 10 0 C10.66 0.99 11.32 1.98 12 3 C10.68 3 9.36 3 8 3 C8 3.99 8 4.98 8 6 C4.74456771 5.65120368 3.98126893 4.97866739 1.75 2.4375 C1.1725 1.633125 0.595 0.82875 0 0 Z " fill="#D7473E" transform="translate(33,98)"/>
<path d="M0 0 C0.66 0 1.32 0 2 0 C2 3.96 2 7.92 2 12 C0.35 11.67 -1.3 11.34 -3 11 C-2.32829194 7.1936543 -1.27253436 3.64793184 0 0 Z " fill="#FEFAF9" transform="translate(86,76)"/>
<path d="M0 0 C1.32 0 2.64 0 4 0 C3.9175 0.721875 3.835 1.44375 3.75 2.1875 C4.07426559 5.83548794 5.57319587 7.34568298 8 10 C7.01 10.495 7.01 10.495 6 11 C6 10.34 6 9.68 6 9 C5.34 9 4.68 9 4 9 C4 8.34 4 7.68 4 7 C1.11424181 7.39803561 0.17810487 7.79009069 -1.75 10.0625 C-2.1625 10.701875 -2.575 11.34125 -3 12 C-3.66 11.67 -4.32 11.34 -5 11 C-4.175 10.113125 -3.35 9.22625 -2.5 8.3125 C-0.53900524 5.98692593 -0.02740522 5.25212806 0.3125 2.125 C0.209375 1.42375 0.10625 0.7225 0 0 Z " fill="#E14037" transform="translate(63,3)"/>
<path d="M0 0 C1.32 0 2.64 0 4 0 C4.33 4.29 4.66 8.58 5 13 C3.68 12.67 2.36 12.34 1 12 C0.67 8.04 0.34 4.08 0 0 Z " fill="#FFF7F6" transform="translate(57,58)"/>
<path d="M0 0 C1.65 0 3.3 0 5 0 C5 4.95 5 9.9 5 15 C3.35 15 1.7 15 0 15 C-0.33 14.34 -0.66 13.68 -1 13 C1.475 13.495 1.475 13.495 4 14 C4 10.04 4 6.08 4 2 C3.34 2 2.68 2 2 2 C1.67 3.98 1.34 5.96 1 8 C0.34 7.34 -0.32 6.68 -1 6 C-0.625 2.875 -0.625 2.875 0 0 Z " fill="#F8CECB" transform="translate(84,74)"/>
<path d="M0 0 C0.66 0 1.32 0 2 0 C2 3.3 2 6.6 2 10 C0.68 10.33 -0.64 10.66 -2 11 C-2.33 11.99 -2.66 12.98 -3 14 C-3.33 14 -3.66 14 -4 14 C-4 12.35 -4 10.7 -4 9 C-2.68 9 -1.36 9 0 9 C0 7.68 0 6.36 0 5 C-1.32 4.67 -2.64 4.34 -4 4 C-2.68 4 -1.36 4 0 4 C0 2.68 0 1.36 0 0 Z " fill="#D93E34" transform="translate(51,58)"/>
<path d="M0 0 C3.21043882 1.38188453 5.04936365 2.92421903 7.25 5.625 C8.03117188 6.57246094 8.03117188 6.57246094 8.828125 7.5390625 C9.40820312 8.26222656 9.40820312 8.26222656 10 9 C8.35 9.33 6.7 9.66 5 10 C4.54625 9.21625 4.0925 8.4325 3.625 7.625 C2.11571258 4.96301969 2.11571258 4.96301969 0 3 C0 2.01 0 1.02 0 0 Z " fill="#DC3F37" transform="translate(120,57)"/>
<path d="M0 0 C0.33 0 0.66 0 1 0 C1 8.25 1 16.5 1 25 C-1.26185454 22.73814546 -2.03921617 21.03016439 -3 18 C-2.505 16.515 -2.505 16.515 -2 15 C-1.67 15.33 -1.34 15.66 -1 16 C-0.67 10.72 -0.34 5.44 0 0 Z " fill="#FEEBE5" transform="translate(543,36)"/>
<path d="M0 0 C4.52615993 3.67832017 8.39424999 7.41086363 12 12 C11.34 12 10.68 12 10 12 C9.67 12.66 9.34 13.32 9 14 C7.49412261 12.04594482 5.99521356 10.08718716 4.5 8.125 C4.07074219 7.56941406 3.64148438 7.01382812 3.19921875 6.44140625 C0 2.2265625 0 2.2265625 0 0 Z " fill="#FECEC7" transform="translate(68,8)"/>
<path d="M0 0 C0.99 0.66 1.98 1.32 3 2 C3.29296875 4.1640625 3.29296875 4.1640625 3.1875 6.625 C3.16042969 7.44226563 3.13335937 8.25953125 3.10546875 9.1015625 C3.07066406 9.72804688 3.03585938 10.35453125 3 11 C-0.84375 9.328125 -0.84375 9.328125 -2.25 6.375 C-2.4975 5.59125 -2.745 4.8075 -3 4 C-2.01 4 -1.02 4 0 4 C0 2.68 0 1.36 0 0 Z " fill="#D8493D" transform="translate(29,85)"/>
<path d="M0 0 C3.58513106 1.62184501 6.58992323 3.79256239 9.75 6.125 C11.22726563 7.21167969 11.22726563 7.21167969 12.734375 8.3203125 C13.48203125 8.87460938 14.2296875 9.42890625 15 10 C14.01 10.495 14.01 10.495 13 11 C12.67 11.66 12.34 12.32 12 13 C9.99698146 11.0238076 7.99750133 9.04425526 6 7.0625 C5.42765625 6.49853516 4.8553125 5.93457031 4.265625 5.35351562 C2.82474495 3.92121224 1.41012857 2.46258871 0 1 C0 0.67 0 0.34 0 0 Z " fill="#FED2CD" transform="translate(7,67)"/>
<path d="M0 0 C0.66 0.33 1.32 0.66 2 1 C-0.97 7.6 -3.94 14.2 -7 21 C-7.33 21 -7.66 21 -8 21 C-8 19.02 -8 17.04 -8 15 C-7.34 14.67 -6.68 14.34 -6 14 C-4.93772661 11.79437235 -4.93772661 11.79437235 -4 9.1875 C-2.80588472 6.02962483 -1.5633367 2.99406895 0 0 Z " fill="#FEE2DE" transform="translate(464,36)"/>
<path d="M0 0 C2.97 0 5.94 0 9 0 C9 1.98 9 3.96 9 6 C7.35 6 5.7 6 4 6 C4 4.68 4 3.36 4 2 C2.68 2 1.36 2 0 2 C0 1.34 0 0.68 0 0 Z " fill="#FBDFD8" transform="translate(54,41)"/>
<path d="M0 0 C0.99 0.33 1.98 0.66 3 1 C2.06725891 2.12894876 1.12859878 3.25300876 0.1875 4.375 C-0.33457031 5.00148438 -0.85664062 5.62796875 -1.39453125 6.2734375 C-3 8 -3 8 -6 10 C-6 6 -6 6 -4.6875 4.296875 C-4.130625 3.78640625 -3.57375 3.2759375 -3 2.75 C-2.1646875 1.96882812 -2.1646875 1.96882812 -1.3125 1.171875 C-0.879375 0.78515625 -0.44625 0.3984375 0 0 Z " fill="#D44038" transform="translate(55,10)"/>
<path d="M0 0 C0 0.33 0 0.66 0 1 C-1.65 1 -3.3 1 -5 1 C-5 2.98 -5 4.96 -5 7 C-5.556875 6.195625 -6.11375 5.39125 -6.6875 4.5625 C-9.21864487 1.75771784 -10.32579134 1.30618405 -14 1 C-14 0.67 -14 0.34 -14 0 C-9.20699867 -1.39151652 -4.84864218 -0.68662689 0 0 Z " fill="#DC4D44" transform="translate(89,57)"/>
<path d="M0 0 C4.2742558 1.5830577 6.26531794 4.50568404 9 8 C7.02 8.33 5.04 8.66 3 9 C2 6 2 6 3 3 C1.68 2.67 0.36 2.34 -1 2 C-0.67 1.34 -0.34 0.68 0 0 Z " fill="#E15C52" transform="translate(64,0)"/>
<path d="M0 0 C0.66 0.66 1.32 1.32 2 2 C1.96712417 4.72869407 1.43602229 7.2966618 1 10 C-2.3 10 -5.6 10 -9 10 C-9 9.67 -9 9.34 -9 9 C-6.03 9 -3.06 9 0 9 C0 8.01 0 7.02 0 6 C-1.65 6 -3.3 6 -5 6 C-5 5.34 -5 4.68 -5 4 C-3.35 4 -1.7 4 0 4 C0 2.68 0 1.36 0 0 Z " fill="#E4736D" transform="translate(63,46)"/>
<path d="M0 0 C1.32 0 2.64 0 4 0 C3.67 0.66 3.34 1.32 3 2 C2.34 1.67 1.68 1.34 1 1 C1.33 4.63 1.66 8.26 2 12 C2.99 10.68 3.98 9.36 5 8 C6.24546405 10.49092811 5.7767578 11.41080733 5 14 C3.35 14 1.7 14 0 14 C0 9.38 0 4.76 0 0 Z " fill="#FBDCD8" transform="translate(42,75)"/>
<path d="M0 0 C1.32 0.66 2.64 1.32 4 2 C2.35 3.32 0.7 4.64 -1 6 C-1 5.34 -1 4.68 -1 4 C-1.99 4.66 -2.98 5.32 -4 6 C-6.6875 5.625 -6.6875 5.625 -9 5 C-8.67 4.34 -8.34 3.68 -8 3 C-6.68 3 -5.36 3 -4 3 C-1.77256213 1.58022091 -1.77256213 1.58022091 0 0 Z " fill="#E45A4F" transform="translate(71,119)"/>
<path d="M0 0 C0.66 0 1.32 0 2 0 C2 3.3 2 6.6 2 10 C1.34 10 0.68 10 0 10 C0 8.68 0 7.36 0 6 C-1.65 6 -3.3 6 -5 6 C-5 5.34 -5 4.68 -5 4 C-3.35 4 -1.7 4 0 4 C0 2.68 0 1.36 0 0 Z " fill="#DA5A50" transform="translate(69,74)"/>
<path d="M0 0 C0.99 0 1.98 0 3 0 C3 2.97 3 5.94 3 9 C2.01 9.33 1.02 9.66 0 10 C0 6.7 0 3.4 0 0 Z " fill="#FFF8F8" transform="translate(69,42)"/>
<path d="M0 0 C1.70840281 1.63412443 2.93453047 2.86906094 4 5 C6.52733235 5.65555119 6.52733235 5.65555119 9 6 C9 6.33 9 6.66 9 7 C4.38 7 -0.24 7 -5 7 C-5 6.67 -5 6.34 -5 6 C-3.35 6 -1.7 6 0 6 C0 4.02 0 2.04 0 0 Z " fill="#D64D46" transform="translate(80,83)"/>
<path d="M0 0 C0.66 0.33 1.32 0.66 2 1 C-0.97 3.97 -3.94 6.94 -7 10 C-7.99 9.34 -8.98 8.68 -10 8 C-6.7 5.36 -3.4 2.72 0 0 Z " fill="#FED1CB" transform="translate(120,68)"/>
<path d="M0 0 C1.74627478 2.61941217 2.38722388 4.03824877 3 7 C2.01 6.67 1.02 6.34 0 6 C-0.33 6.66 -0.66 7.32 -1 8 C-2.5 6.625 -2.5 6.625 -4 5 C-4 4.34 -4 3.68 -4 3 C-2 1.375 -2 1.375 0 0 Z " fill="#E15349" transform="translate(4,61)"/>
<path d="M0 0 C0 3.60573896 -0.81707462 4.41336566 -3 7.1875 C-3.556875 7.90292969 -4.11375 8.61835938 -4.6875 9.35546875 C-5.120625 9.89816406 -5.55375 10.44085938 -6 11 C-6.99 10.34 -7.98 9.68 -9 9 C-6.03 6.03 -3.06 3.06 0 0 Z " fill="#FECBC6" transform="translate(61,8)"/>
<path d="M0 0 C1 2 1 2 1.375 4.5 C1.78838835 7.34474481 1.78838835 7.34474481 5 9 C4.67 9.66 4.34 10.32 4 11 C2.66102417 10.04956626 1.32894573 9.08940853 0 8.125 C-0.7425 7.59132813 -1.485 7.05765625 -2.25 6.5078125 C-2.8275 6.01023437 -3.405 5.51265625 -4 5 C-4 4.34 -4 3.68 -4 3 C-2 1.375 -2 1.375 0 0 Z " fill="#E14039" transform="translate(10,61)"/>
<path d="M0 0 C1.37562854 1.28965176 2.70766393 2.62689293 4 4 C4 4.66 4 5.32 4 6 C3.34 6 2.68 6 2 6 C2.33 7.65 2.66 9.3 3 11 C2.01 10.34 1.02 9.68 0 9 C-0.29296875 6.8359375 -0.29296875 6.8359375 -0.1875 4.375 C-0.16042969 3.55773438 -0.13335937 2.74046875 -0.10546875 1.8984375 C-0.05326172 0.95871094 -0.05326172 0.95871094 0 0 Z " fill="#D54237" transform="translate(98,34)"/>
<path d="M0 0 C1.65 0 3.3 0 5 0 C5 1.98 5 3.96 5 6 C2.03 6 -0.94 6 -4 6 C-4 5.67 -4 5.34 -4 5 C-2.02 4.67 -0.04 4.34 2 4 C1.34 3.67 0.68 3.34 0 3 C0 2.01 0 1.02 0 0 Z " fill="#F9D3CC" transform="translate(64,83)"/>
<path d="M0 0 C2 1 2 1 2.8515625 3.28515625 C3.10679687 4.20167969 3.36203125 5.11820312 3.625 6.0625 C3.88539063 6.98160156 4.14578125 7.90070313 4.4140625 8.84765625 C4.60742188 9.55792969 4.80078125 10.26820312 5 11 C3.68 10.67 2.36 10.34 1 10 C0.67 6.7 0.34 3.4 0 0 Z " fill="#FEE2DE" transform="translate(411,71)"/>
<path d="M0 0 C2.56687367 3.8503105 1.83288724 5.58569763 1 10 C-1.97 9.505 -1.97 9.505 -5 9 C-5 8.01 -5 7.02 -5 6 C-3.35 6 -1.7 6 0 6 C0 4.02 0 2.04 0 0 Z " fill="#DE5F57" transform="translate(80,66)"/>
<path d="M0 0 C0.33 0 0.66 0 1 0 C1.66 2.31 2.32 4.62 3 7 C2.34 7 1.68 7 1 7 C1.33 8.32 1.66 9.64 2 11 C1.01 11.495 1.01 11.495 0 12 C0 10.68 0 9.36 0 8 C-1.32 7.67 -2.64 7.34 -4 7 C-4 6.34 -4 5.68 -4 5 C-2.68 5 -1.36 5 0 5 C0 3.35 0 1.7 0 0 Z " fill="#EE7975" transform="translate(46,67)"/>
<path d="M0 0 C0.66 0 1.32 0 2 0 C3.5078125 1.75 3.5078125 1.75 5.125 4 C5.66382813 4.7425 6.20265625 5.485 6.7578125 6.25 C7.16773438 6.8275 7.57765625 7.405 8 8 C7.67 8.66 7.34 9.32 7 10 C5.82438854 8.90536178 4.6597511 7.79892814 3.5 6.6875 C2.52546875 5.76517578 2.52546875 5.76517578 1.53125 4.82421875 C0 3 0 3 0 0 Z " fill="#FED0CA" transform="translate(54,112)"/>
<path d="M0 0 C1.12894876 0.93274109 2.25300876 1.87140122 3.375 2.8125 C4.00148438 3.33457031 4.62796875 3.85664062 5.2734375 4.39453125 C7 6 7 6 9 9 C5.4213696 7.34832443 2.25179812 5.21713508 -1 3 C-0.67 2.01 -0.34 1.02 0 0 Z " fill="#FFBEB7" transform="translate(114,54)"/>
<path d="M0 0 C0.33 0.66 0.66 1.32 1 2 C3.02463255 2.65213292 3.02463255 2.65213292 5 3 C4 4 4 4 1.93359375 4.09765625 C1.10988281 4.08605469 0.28617188 4.07445312 -0.5625 4.0625 C-1.38878906 4.05347656 -2.21507812 4.04445313 -3.06640625 4.03515625 C-3.70449219 4.02355469 -4.34257813 4.01195312 -5 4 C-3.36587557 2.29159719 -2.13093906 1.06546953 0 0 Z " fill="#D93E34" transform="translate(39,28)"/>
<path d="M0 0 C-0.56371414 3.26954202 -1.49962266 4.82575883 -4 7 C-4 6.01 -4 5.02 -4 4 C-4.66 3.67 -5.32 3.34 -6 3 C-3.375 0 -3.375 0 0 0 Z " fill="#FEDFD7" transform="translate(54,18)"/>
<path d="M0 0 C2.475 0.495 2.475 0.495 5 1 C5 2.32 5 3.64 5 5 C3.35 5 1.7 5 0 5 C0 3.35 0 1.7 0 0 Z " fill="#FCD9D2" transform="translate(46,62)"/>
<path d="M0 0 C2.88575819 0.39803561 3.82189513 0.79009069 5.75 3.0625 C6.1625 3.701875 6.575 4.34125 7 5 C5.02 5 3.04 5 1 5 C0.67 3.35 0.34 1.7 0 0 Z " fill="#FFE4DE" transform="translate(78,20)"/>
<path d="M0 0 C1.32 0 2.64 0 4 0 C2.60667426 3.36720387 1.0210714 4.9859524 -2 7 C-1.42415568 4.61435923 -0.77772405 2.33317216 0 0 Z " fill="#FEEAE6" transform="translate(108,77)"/>
<path d="M0 0 C1.98 0 3.96 0 6 0 C6.625 1.875 6.625 1.875 7 4 C6.34 4.66 5.68 5.32 5 6 C5 4.68 5 3.36 5 2 C3.35 2 1.7 2 0 2 C0 1.34 0 0.68 0 0 Z " fill="#DC605A" transform="translate(84,50)"/>
<path d="M0 0 C0.33 0 0.66 0 1 0 C1.08096803 1.45742463 1.13917774 2.91612807 1.1875 4.375 C1.22230469 5.18710937 1.25710937 5.99921875 1.29296875 6.8359375 C1.19628906 7.55007812 1.09960938 8.26421875 1 9 C0.01 9.66 -0.98 10.32 -2 11 C-2 9.68 -2 8.36 -2 7 C-1.34 7 -0.68 7 0 7 C0 5.68 0 4.36 0 3 C-0.66 2.67 -1.32 2.34 -2 2 C-1.34 1.34 -0.68 0.68 0 0 Z " fill="#D04A41" transform="translate(31,34)"/>
<path d="M0 0 C0.66 0.33 1.32 0.66 2 1 C0.60667426 4.36720387 -0.9789286 5.9859524 -4 8 C-4.33 7.01 -4.66 6.02 -5 5 C-3.35 3.35 -1.7 1.7 0 0 Z " fill="#FBD7D1" transform="translate(53,8)"/>
<path d="M0 0 C0.66 0 1.32 0 2 0 C2.33 1.32 2.66 2.64 3 4 C2.01 4 1.02 4 0 4 C-0.33 4.66 -0.66 5.32 -1 6 C-1.66 4.68 -2.32 3.36 -3 2 C-2.01 2 -1.02 2 0 2 C0 1.34 0 0.68 0 0 Z " fill="#E2584F" transform="translate(53,102)"/>
<path d="M0 0 C0.66 0.33 1.32 0.66 2 1 C2 1.99 2 2.98 2 4 C2.99 4.33 3.98 4.66 5 5 C3.68 5.99 2.36 6.98 1 8 C1 7.01 1 6.02 1 5 C0.34 4.67 -0.32 4.34 -1 4 C-0.67 2.68 -0.34 1.36 0 0 Z " fill="#E85E55" transform="translate(123,63)"/>
<path d="M0 0 C0.66 0 1.32 0 2 0 C1.979375 0.9075 1.95875 1.815 1.9375 2.75 C1.9889755 5.42672588 2.2215017 7.46988052 3 10 C2.01 10 1.02 10 0 10 C0 6.7 0 3.4 0 0 Z " fill="#DB4C41" transform="translate(469,60)"/>
<path d="M0 0 C0.66 0 1.32 0 2 0 C1.67 2.97 1.34 5.94 1 9 C0.67 7.68 0.34 6.36 0 5 C-1.32 4.67 -2.64 4.34 -4 4 C-2.68 4 -1.36 4 0 4 C0 2.68 0 1.36 0 0 Z " fill="#D6554A" transform="translate(51,58)"/>
<path d="M0 0 C2.97 0 5.94 0 9 0 C9 1.32 9 2.64 9 4 C7.68 3.67 6.36 3.34 5 3 C5.33 2.67 5.66 2.34 6 2 C3.03 1.505 3.03 1.505 0 1 C0 0.67 0 0.34 0 0 Z " fill="#FDE6DF" transform="translate(42,58)"/>
<path d="M0 0 C0.33 1.32 0.66 2.64 1 4 C-1.375 5.5625 -1.375 5.5625 -4 7 C-4.66 6.67 -5.32 6.34 -6 6 C-4.02 4.02 -2.04 2.04 0 0 Z " fill="#FFD9D7" transform="translate(28,41)"/>
<path d="M0 0 C1.2065625 0.0309375 1.2065625 0.0309375 2.4375 0.0625 C0.6875 3.9375 0.6875 3.9375 -1.5625 5.0625 C-1.5625 4.0725 -1.5625 3.0825 -1.5625 2.0625 C-2.2225 1.7325 -2.8825 1.4025 -3.5625 1.0625 C-2.5625 0.0625 -2.5625 0.0625 0 0 Z " fill="#FBCAC4" transform="translate(52.5625,73.9375)"/>
<path d="M0 0 C0.66 0 1.32 0 2 0 C2.33 1.65 2.66 3.3 3 5 C2.01 5.495 2.01 5.495 1 6 C1 5.01 1 4.02 1 3 C-0.32 3.33 -1.64 3.66 -3 4 C-1.625 2 -1.625 2 0 0 Z " fill="#E8645B" transform="translate(61,3)"/>
</svg>
